<?xml version="1.0" encoding="utf-8"?>
<!-- Generator: Adobe Illustrator 21.0.2, SVG Export Plug-In . SVG Version: 6.00 Build 0)  -->
<svg version="1.1" id="Layer_1" xmlns="http://www.w3.org/2000/svg" xmlns:xlink="http://www.w3.org/1999/xlink" x="0px" y="0px"
	 viewBox="0 0 356 108" style="enable-background:new 0 0 356 108;" xml:space="preserve">
<style type="text/css">
	.st0{fill:#00457C;}
	.st1{fill:#FFFFFF;}
	.st2{fill:#D2B887;}
</style>
<polygon class="st0" points="356,54 319.4,108 -6,108 -6,0 319.6,0 "/>
<g>
	<g>
		<path class="st1" d="M78,82.1c-0.8,0.1-1.1,0.3-1.2,0.8c-0.1,0.4-0.1,1-0.1,2.1v1.4c0,1.6-0.2,2.8-1,3.7c-0.6,0.7-1.6,1-2.6,1
			c-0.9,0-1.7-0.2-2.4-0.7c-0.8-0.6-1.2-1.7-1.2-3.4v-3.5c0-1.3-0.1-1.4-1.2-1.5v-0.5h4v0.5c-1.1,0.1-1.2,0.2-1.2,1.5v3.2
			c0,2.2,0.8,3.5,2.4,3.5c1.8,0,2.5-1.5,2.5-3.8V85c0-1.1-0.1-1.7-0.1-2.1c-0.1-0.5-0.4-0.8-1.4-0.8v-0.5H78V82.1z"/>
		<path class="st1" d="M99.5,82.1c-0.8,0-1.1,0.2-1.1,0.9c-0.1,0.4-0.1,1.1-0.1,2.4v5.7h-0.6l-5.9-7.3h0v3.4c0,1.3,0.1,1.9,0.1,2.4
			c0.1,0.7,0.4,0.9,1.3,1v0.5h-3.4v-0.5c0.8-0.1,1.1-0.3,1.2-0.9c0.1-0.5,0.1-1.1,0.1-2.4v-3c0-1,0-1.2-0.3-1.5
			c-0.3-0.4-0.6-0.5-1.2-0.5v-0.5H92l5.5,6.6h0v-2.9c0-1.3-0.1-2-0.1-2.4c-0.1-0.6-0.4-0.8-1.4-0.9v-0.5h3.4V82.1z"/>
		<path class="st1" d="M111.5,90.9v-0.5c1.1-0.1,1.2-0.2,1.2-1.4v-5.6c0-1.2-0.1-1.3-1.2-1.4v-0.5h4v0.5c-1.1,0.1-1.2,0.2-1.2,1.4
			v5.6c0,1.2,0.1,1.3,1.2,1.4v0.5H111.5z"/>
		<path class="st1" d="M137,82.1c-0.9,0.1-1.1,0.3-1.7,1.6c-0.4,1-1.8,4.4-2.9,7.4h-0.6c-1-2.6-2.2-6-2.9-7.7
			c-0.4-1.1-0.6-1.3-1.5-1.3v-0.5h3.9v0.5c-1,0.1-1,0.3-0.8,0.9c0.4,1.1,1.5,4,2.1,5.7h0c0.7-2,1.5-4,1.9-5.4
			c0.3-0.9,0.3-1.1-0.9-1.2v-0.5h3.2V82.1z"/>
		<path class="st1" d="M156.2,88.6c-0.1,0.6-0.4,1.9-0.5,2.3h-7v-0.5c1.2-0.1,1.3-0.2,1.3-1.4v-5.6c0-1.3-0.1-1.3-1.2-1.4v-0.5h6.5
			c0,0.3,0.1,1.3,0.1,2.1l-0.5,0.1c-0.1-0.5-0.3-1-0.5-1.2c-0.2-0.3-0.6-0.4-1.5-0.4h-0.8c-0.5,0-0.5,0-0.5,0.5v3.1h1.1
			c1.2,0,1.4-0.1,1.6-1.1h0.5v2.8h-0.5c-0.2-1-0.3-1.1-1.5-1.1h-1.1V89c0,0.7,0.1,1,0.3,1.2c0.3,0.1,0.8,0.2,1.3,0.2
			c0.9,0,1.3-0.1,1.6-0.5c0.3-0.3,0.5-0.8,0.8-1.4L156.2,88.6z"/>
		<path class="st1" d="M176.6,91.1c-0.1,0-0.3,0-0.4,0c-1.5-0.1-2.1-0.4-2.7-1.4c-0.4-0.6-0.8-1.4-1.2-2.2c-0.2-0.4-0.5-0.6-1-0.6
			h-0.3v2.2c0,1.2,0.1,1.3,1.2,1.4v0.5h-4v-0.5c1.1-0.1,1.2-0.2,1.2-1.4v-5.6c0-1.2-0.1-1.3-1.2-1.4v-0.5h3.8c1.2,0,1.9,0.1,2.4,0.5
			c0.6,0.4,0.9,1,0.9,1.9c0,1.2-0.8,2-1.8,2.4c0.2,0.4,0.8,1.4,1.2,2.1c0.5,0.8,0.8,1.2,1.1,1.5c0.3,0.4,0.6,0.5,0.9,0.6L176.6,91.1
			z M171.4,86.4c0.6,0,1.1-0.1,1.4-0.4c0.5-0.4,0.7-1,0.7-1.7c0-1.5-0.9-2.1-1.8-2.1c-0.4,0-0.6,0.1-0.7,0.1
			c-0.1,0.1-0.1,0.2-0.1,0.6v3.5H171.4z"/>
		<path class="st1" d="M193.4,83.9c-0.3-0.9-0.7-1.9-1.9-1.9c-0.9,0-1.4,0.7-1.4,1.5c0,0.9,0.6,1.4,1.8,2c1.3,0.7,2.4,1.4,2.4,2.9
			c0,1.6-1.3,2.8-3.3,2.8c-0.5,0-1-0.1-1.4-0.2c-0.4-0.1-0.6-0.2-0.8-0.3c-0.1-0.3-0.3-1.6-0.4-2.4l0.5-0.1c0.3,0.9,1,2.5,2.4,2.5
			c0.9,0,1.5-0.6,1.5-1.6c0-0.9-0.7-1.5-1.7-2c-1.2-0.6-2.4-1.4-2.4-2.9c0-1.5,1.2-2.7,3.1-2.7c0.8,0,1.5,0.2,1.9,0.4
			c0.1,0.5,0.1,1.1,0.3,2L193.4,83.9z"/>
		<path class="st1" d="M206.3,90.9v-0.5c1.1-0.1,1.2-0.2,1.2-1.4v-5.6c0-1.2-0.1-1.3-1.2-1.4v-0.5h4v0.5c-1.1,0.1-1.2,0.2-1.2,1.4
			v5.6c0,1.2,0.1,1.3,1.2,1.4v0.5H206.3z"/>
		<path class="st1" d="M230.1,84c-0.2-0.7-0.3-1.2-0.6-1.4c-0.2-0.3-0.5-0.4-1.5-0.4h-0.8v6.9c0,1.2,0.1,1.3,1.4,1.4v0.5h-4.4v-0.5
			c1.2-0.1,1.3-0.2,1.3-1.4v-6.9h-0.6c-1.2,0-1.4,0.1-1.6,0.4c-0.2,0.2-0.4,0.7-0.5,1.4h-0.5c0.1-1,0.1-2,0.2-2.7h0.3
			c0.2,0.3,0.4,0.4,0.8,0.4h5.6c0.4,0,0.5-0.1,0.8-0.4h0.3c0,0.6,0.1,1.8,0.1,2.7L230.1,84z"/>
		<path class="st1" d="M251.4,82.1c-0.9,0.1-1.1,0.3-1.7,1.2c-0.6,0.9-1,1.6-1.7,2.9c-0.2,0.4-0.2,0.5-0.2,0.9V89
			c0,1.3,0.1,1.3,1.4,1.5v0.5h-4.3v-0.5c1.2-0.1,1.3-0.2,1.3-1.5v-1.7c0-0.3-0.1-0.5-0.2-0.8c-0.4-0.8-0.9-1.8-1.7-3.2
			c-0.5-1-0.7-1.1-1.5-1.2v-0.5h3.8v0.5c-1,0.1-0.9,0.3-0.7,0.8c0.5,1.1,1.1,2.2,1.7,3.2c0.4-0.9,1.2-2.2,1.5-3.1
			c0.3-0.6,0.2-0.8-0.8-0.9v-0.5h3.2V82.1z"/>
	</g>
	<g>
		<path class="st1" d="M87.8,62.9c-1.7,0.3-1.9,0.5-1.9,2.7v2.7c0,1.2,0,2.3,0.2,3.1c-2,0.5-4.9,1.2-7.6,1.2
			c-7.8,0-12.8-4.4-12.8-11.2c0-8.9,6.2-12.5,13.3-12.5c2.7,0,5.8,0.7,7,1l0,7.6l-1.2,0c-0.8-3.8-3.3-6.3-6.5-6.3
			c-4,0-7.5,3.6-7.5,9.6c0,5.1,2.5,10.3,8,10.3c0.7,0,1.4-0.1,1.9-0.4c0.5-0.3,0.8-0.8,0.8-1.9v-3.2c0-2.3-0.2-2.6-3.7-2.9v-1.2h10
			V62.9z"/>
		<path class="st1" d="M100.5,72.2V71c2-0.3,2.1-0.7,1.6-2.2c-0.3-1-0.8-2.4-1.3-3.8h-6.4c-0.4,1-0.8,2.2-1.2,3.6
			c-0.5,1.6-0.4,2.1,2,2.4v1.2h-7.5V71c2.2-0.3,2.6-0.6,3.8-3.4l6.9-17.2l1.7-0.4c2.1,5.9,4.2,11.7,6.4,17.4
			c1.1,2.9,1.5,3.4,3.7,3.6v1.2H100.5z M97.6,56h-0.1c-0.9,2.4-1.8,4.9-2.6,7.3h5.2L97.6,56z"/>
		<path class="st1" d="M128.9,66.5c-0.3,1.4-1,4.8-1.2,5.7h-16.3V71c2.9-0.2,3.2-0.4,3.2-3.3V54.9c0-2.9-0.3-3.1-2.9-3.3v-1.2H122
			v1.2c-2.5,0.2-2.8,0.4-2.8,3.3V68c0,1.6,0.1,2.1,0.8,2.4c0.6,0.2,1.5,0.3,2.5,0.3c1.4,0,2.6-0.2,3.4-1.1c0.6-0.7,1.2-1.7,1.8-3.4
			L128.9,66.5z"/>
		<path class="st1" d="M146.6,66.5c-0.3,1.4-1,4.8-1.2,5.7H129V71c2.9-0.2,3.2-0.4,3.2-3.3V54.9c0-2.9-0.3-3.1-2.9-3.3v-1.2h10.2
			v1.2c-2.5,0.2-2.8,0.4-2.8,3.3V68c0,1.6,0.1,2.1,0.8,2.4c0.6,0.2,1.5,0.3,2.5,0.3c1.4,0,2.6-0.2,3.4-1.1c0.6-0.7,1.2-1.7,1.8-3.4
			L146.6,66.5z"/>
		<path class="st1" d="M159.1,72.2V71c2-0.3,2.1-0.7,1.6-2.2c-0.3-1-0.8-2.4-1.3-3.8h-6.4c-0.4,1-0.8,2.2-1.2,3.6
			c-0.5,1.6-0.4,2.1,2,2.4v1.2h-7.5V71c2.2-0.3,2.6-0.6,3.7-3.4l6.9-17.2l1.7-0.4c2.1,5.9,4.2,11.7,6.4,17.4
			c1.1,2.9,1.5,3.4,3.7,3.6v1.2H159.1z M156.3,56h-0.1c-0.9,2.4-1.8,4.9-2.6,7.3h5.2L156.3,56z"/>
		<path class="st1" d="M190.5,51.6c-1.8,0.1-2.6,0.8-2.8,2c-0.2,1-0.3,2.3-0.3,4.7v3.7c0,3.5-0.5,6.4-2.4,8.4
			c-1.5,1.6-3.8,2.4-6.2,2.4c-2.2,0-4.3-0.5-5.9-1.7c-1.9-1.5-2.8-4-2.8-7.9v-7.9c0-3.1-0.3-3.4-2.8-3.6v-1.2h10.1v1.2
			c-2.4,0.2-2.8,0.4-2.8,3.6v7.3c0,5,1.8,7.9,5.4,7.9c4,0,5.7-3,5.7-8.6v-3.6c0-2.4-0.2-3.6-0.3-4.7c-0.2-1.2-1-1.8-3.2-2v-1.2h8.4
			V51.6z"/>
		<path class="st1" d="M202.4,50.4c4.2,0,7.5,0.8,9.6,2.9c1.7,1.6,3,4,3,7.1c0,4.1-1.6,7-4.2,9c-2.5,1.9-6,2.8-10.1,2.8H192V71
			c2.6-0.2,3-0.4,3-3.3V54.9c0-2.9-0.3-3.1-2.7-3.3v-1.2H202.4z M199.5,67.5c0,2.4,0.5,3.2,2.8,3.2c4.5,0,7.6-3.6,7.6-9.6
			c0-3.2-1-5.7-2.5-7.2c-1.4-1.4-3.1-2.1-5.5-2.1c-1.2,0-1.9,0.2-2.1,0.5c-0.3,0.3-0.3,0.9-0.3,1.8V67.5z"/>
		<path class="st1" d="M234.3,66.6c-0.2,1.5-0.9,4.6-1.2,5.6H216V71c2.8-0.2,3.2-0.4,3.2-3.3V54.8c0-2.9-0.3-3.1-2.7-3.3v-1.2h15.8
			c0,0.6,0.2,2.9,0.3,5l-1.2,0.2c-0.3-1.2-0.7-2.3-1.3-2.9c-0.6-0.6-1.5-0.8-3.3-0.8h-1.6c-1.2,0-1.4,0.1-1.4,1.2v7.1h2.2
			c2.8,0,3.3-0.2,3.7-2.5h1.2v6.7h-1.2c-0.4-2.4-0.9-2.5-3.7-2.5h-2.2v5.8c0,1.6,0.1,2.4,0.8,2.7c0.6,0.3,1.7,0.3,3,0.3
			c1.7,0,2.9-0.2,3.7-1.1c0.7-0.7,1.3-1.8,1.9-3.3L234.3,66.6z"/>
		<path class="st1" d="M253,56.1c-0.4-1.7-0.9-2.9-1.5-3.5c-0.6-0.6-1.4-0.8-3.4-0.8h-1.5v15.8c0,2.8,0.3,3,3.3,3.3v1.2H239V71
			c2.8-0.2,3.1-0.4,3.1-3.3V51.9H241c-2.8,0-3.4,0.3-3.9,0.9c-0.6,0.6-1,1.7-1.4,3.4h-1.2c0.1-2.4,0.3-4.9,0.4-6.6h0.8
			c0.5,0.7,0.9,0.8,1.9,0.8h13.5c0.9,0,1.3-0.2,1.9-0.8h0.8c0,1.4,0.2,4.4,0.4,6.5L253,56.1z"/>
	</g>
	<path class="st2" d="M242.8,42.2C242.8,42.2,242.8,42.2,242.8,42.2c-15.4-12.2-56.3-26-89.4-26c-35.5,0-66.2,9.4-80.6,23
		c20.4-10.2,49-16.6,80.6-16.6c15.9,0,31.1,1.6,44.8,4.5c-6.5-0.8-13.3-1.2-20.3-1.2c-30.5,0-56.8,8.1-69.2,19.8
		c17.5-8.8,42-14.2,69.2-14.2c27.1,0,51.7,5.4,69.2,14.2C245.8,44.5,244.4,43.3,242.8,42.2z"/>
</g>
</svg>
