<?xml version="1.0" encoding="UTF-8" standalone="no"?>
<svg width="1972px" height="281px" viewBox="0 0 1972 281" version="1.1" xmlns="http://www.w3.org/2000/svg" xmlns:xlink="http://www.w3.org/1999/xlink" xmlns:sketch="http://www.bohemiancoding.com/sketch/ns">
    <!-- Generator: Sketch 3.4.2 (15855) - http://www.bohemiancoding.com/sketch -->
    <title>ASLconnect Copy</title>
    <desc>Created with Sketch.</desc>
    <defs></defs>
    <g id="Page-1" stroke="none" stroke-width="1" fill="none" fill-rule="evenodd" sketch:type="MSPage">
        <path d="M1820.10639,118.738365 L1815.55051,130.187476 C1806.80975,126.371087 1798.74621,123.324176 1791.35965,121.046654 C1783.97309,118.769131 1776.27887,117.630387 1768.27676,117.630387 C1756.58137,117.630387 1747.53297,122.185364 1741.13129,131.295455 C1734.7296,140.405546 1731.52881,153.270279 1731.52881,169.89004 C1731.52881,203.375781 1743.90111,220.1184 1768.64609,220.1184 C1789.82089,220.1184 1810.13363,213.963025 1829.58491,201.652091 L1829.58491,259.082311 C1810.9954,271.393245 1788.65139,277.54862 1762.55221,277.54862 C1728.32781,277.54862 1702.3829,268.315558 1684.71671,249.849157 C1670.52332,235.012856 1662.03165,214.971833 1659.24156,189.725675 L1534.37601,189.725675 C1534.86845,201.421062 1539.14644,210.592571 1547.2101,217.240475 C1555.27376,223.888379 1566.2611,227.212282 1580.17246,227.212282 C1592.85272,227.212282 1604.51715,226.011984 1615.16611,223.611352 C1625.81507,221.210719 1637.3564,217.117395 1649.79044,211.331256 L1649.79044,263.221584 C1638.46438,269.007723 1626.76917,273.008716 1614.70446,275.224684 C1602.63974,277.440653 1588.23616,278.54862 1571.49329,278.54862 L1571.49329,280.54862 C1536.65335,280.54862 1509.60048,269.284781 1490.33387,250.756825 C1471.06725,232.22887 1461.43409,205.853089 1461.43409,171.628693 C1461.43409,136.296312 1470.35939,109.181886 1488.21024,90.2846026 C1506.06109,71.3873189 1531.54435,61.9388188 1564.66076,61.9388188 C1596.17675,61.9388188 1620.52126,70.156244 1637.69501,86.5913409 C1650.62271,98.9630115 1658.68462,115.43285 1661.88083,136.001158 C1666.26516,117.296753 1674.58497,101.816971 1686.84034,89.5615973 C1705.92229,70.4796495 1733.06749,60.9388188 1768.27676,60.9388188 C1792.52234,60.9388188 1815.35263,66.2294016 1836.76831,76.8107259 L1851.1231,66.6633745 L1869.77408,22.7135597 L1917.04783,22.7135597 L1917.04783,64.6320805 L1968.38416,64.6320805 L1968.38416,118.738365 L1917.04783,118.738365 L1917.04783,200.174786 C1917.04783,213.716814 1923.57252,220.487726 1936.62211,220.487726 C1946.34775,220.487726 1957.98141,218.08713 1971.52344,213.285866 L1971.52344,265.914845 C1961.7978,270.100563 1952.53396,273.08592 1943.73164,274.871005 C1934.92933,276.656091 1924.61907,277.54862 1912.80058,277.54862 C1888.54804,277.54862 1871.06677,271.608683 1860.35626,259.728632 C1849.64575,247.848581 1844.29057,229.597895 1844.29057,204.976027 L1844.29057,118.738365 L1820.10639,118.738365 Z M829.23255,205.483951 L829.23255,259.082311 C810.643039,271.393245 788.299029,277.54862 762.199849,277.54862 C727.975453,277.54862 702.030548,268.315558 684.364358,249.849157 C675.832672,240.931019 669.361158,230.132288 664.949785,217.452875 L664.949785,273.855358 L488.042547,273.855358 L488.042547,3.87792483 L560.984467,3.87792483 L560.984467,214.947833 L664.112885,214.947833 C659.947755,201.952882 657.865205,187.056757 657.865205,170.259366 C657.865205,135.542532 667.406036,108.643545 686.487983,89.5615973 C705.569931,70.4796495 732.715134,60.9388188 767.924405,60.9388188 C792.176945,60.9388188 815.013385,66.232441 836.43441,76.8198442 L815.198155,130.187476 C806.457392,126.371087 798.393851,123.324176 791.007291,121.046654 C783.62073,118.769131 775.926512,117.630387 767.924405,117.630387 C756.229018,117.630387 747.180617,122.185364 740.778931,131.295455 C734.377245,140.405546 731.17645,153.270279 731.17645,169.89004 C731.17645,203.375781 743.548754,220.1184 768.293731,220.1184 C789.16437,220.1184 809.197527,214.138594 828.393786,202.178806 C825.953426,191.942726 824.733253,180.81049 824.733253,168.782062 C824.733253,134.680774 833.935538,108.181886 852.340385,89.2846026 C870.745231,70.3873189 896.567028,60.9388188 929.80655,60.9388188 C950.365809,60.9388188 968.524165,65.3091348 984.28216,74.0498979 C1000.04016,82.7906611 1012.19702,95.3168486 1020.75312,111.628836 C1029.30922,127.940824 1033.5872,146.991708 1033.5872,168.782062 C1033.5872,203.006458 1024.38492,229.690007 1005.98007,248.83351 C987.575227,267.977012 961.814984,277.54862 928.698571,277.54862 C896.936361,277.54862 871.668548,267.761574 852.894374,248.187189 C841.624488,236.436947 833.737233,222.202592 829.23255,205.483951 Z M194.819557,273.855358 L181.523815,223.257672 L93.8088483,223.257672 L80.1437798,273.855358 L0,273.855358 L88.0842926,2.76994631 L185.401739,2.76994631 L274.594011,273.855358 L194.819557,273.855358 Z M166.381442,163.426832 L154.747667,119.107691 C152.039262,109.258944 148.746136,96.5173184 144.868192,80.8824322 C140.990248,65.2475459 138.435767,54.044764 137.204674,47.2737503 C136.09669,53.5523267 133.911532,63.8933561 130.649134,78.2971489 C127.386737,92.7009418 120.154171,121.077219 108.951221,163.426832 L166.381442,163.426832 Z M473.30869,191.864948 C473.30869,208.607818 469.061481,223.473048 460.566937,236.461083 C452.072392,249.449118 439.823197,259.543933 423.818982,266.745829 C407.814768,273.947726 389.040875,277.54862 367.496741,277.54862 C349.522777,277.54862 334.442109,276.286768 322.254284,273.763027 C310.06646,271.239285 297.386388,266.838192 284.213688,260.559616 L284.213688,195.558209 C298.125044,202.698551 312.590174,208.269165 327.609514,212.270219 C342.628853,216.271272 356.416893,218.271769 368.974045,218.271769 C379.807667,218.271769 387.748101,216.39438 392.795584,212.639545 C397.843067,208.88471 400.36677,204.052741 400.36677,198.143492 C400.36677,194.450212 399.351133,191.218641 397.319829,188.44868 C395.288525,185.67872 392.026177,182.878025 387.532686,180.04651 C383.039195,177.214995 371.066991,171.428943 351.615715,162.68818 C334.01108,154.686073 320.807801,146.930301 312.005483,139.420631 C303.203165,131.910961 296.678468,123.293436 292.431196,113.567799 C288.183924,103.842161 286.060319,92.33161 286.060319,79.0358013 C286.060319,54.1677146 295.10872,34.7782843 313.205793,20.8669288 C331.302866,6.95557339 356.17058,0 387.80968,0 C415.755501,0 444.254885,6.46314342 473.30869,19.3896241 L450.964456,75.7118657 C425.727041,64.1395877 403.937015,58.3535355 385.593723,58.3535355 C376.114304,58.3535355 369.220284,60.0154867 364.911457,63.3394389 C360.602631,66.6633911 358.448249,70.7874921 358.448249,75.7118657 C358.448249,81.0055674 361.187391,85.7452059 366.665757,89.9309234 C372.144122,94.116641 387.009352,101.749306 411.261892,112.829146 C434.529558,123.29344 450.687416,134.526999 459.735953,146.53016 C468.784489,158.53332 473.30869,173.644765 473.30869,191.864948 Z M664.112885,214.947833 L664.949785,214.947833 L664.949785,217.452875 C664.662054,216.625862 664.383087,215.790848 664.112885,214.947833 Z M829.23255,205.483951 L829.23255,201.652091 C828.95314,201.828933 828.673552,202.004505 828.393786,202.178806 C828.658966,203.291103 828.938554,204.392818 829.23255,205.483951 Z M898.044499,168.782062 C898.044499,186.756025 900.445095,200.451734 905.246359,209.869599 C910.047623,219.287463 918.111164,223.996325 929.437223,223.996325 C940.640173,223.996325 948.54983,219.287463 953.16643,209.869599 C957.78303,200.451734 960.091296,186.756025 960.091296,168.782062 C960.091296,150.931207 957.752254,137.450937 953.074099,128.340846 C948.395944,119.230754 940.393957,114.675777 929.067897,114.675777 C917.988057,114.675777 910.047623,119.199977 905.246359,128.248514 C900.445095,137.297051 898.044499,150.808098 898.044499,168.782062 Z M1169.80118,273.855358 L1169.80118,159.73357 C1169.80118,145.822215 1167.80068,135.327301 1163.79963,128.248514 C1159.79858,121.169727 1153.36621,117.630387 1144.50234,117.630387 C1132.31451,117.630387 1123.51233,122.493133 1118.09552,132.21877 C1112.6787,141.944408 1109.97034,158.625474 1109.97034,182.262467 L1109.97034,273.855358 L1037.76707,273.855358 L1037.76707,64.6320805 L1092.24268,64.6320805 L1101.29118,90.4849127 L1105.53843,90.4849127 C1111.69389,80.6361655 1120.21909,73.2497158 1131.11426,68.3253422 C1142.00944,63.4009686 1154.53563,60.9388188 1168.6932,60.9388188 C1191.83776,60.9388188 1209.84223,67.6481772 1222.70715,81.0670952 C1235.57208,94.4860133 1242.00445,113.383014 1242.00445,137.758663 L1242.00445,273.855358 L1169.80118,273.855358 Z M1386.15894,273.855358 L1386.15894,159.73357 C1386.15894,145.822215 1384.15844,135.327301 1380.15739,128.248514 C1376.15633,121.169727 1369.72397,117.630387 1360.86009,117.630387 C1348.67227,117.630387 1339.87008,122.493133 1334.45327,132.21877 C1329.03646,141.944408 1326.3281,158.625474 1326.3281,182.262467 L1326.3281,273.855358 L1254.12483,273.855358 L1254.12483,64.6320805 L1308.60044,64.6320805 L1317.64893,90.4849127 L1321.89618,90.4849127 C1328.05165,80.6361655 1336.57684,73.2497158 1347.47202,68.3253422 C1358.3672,63.4009686 1370.89338,60.9388188 1385.05096,60.9388188 C1408.19551,60.9388188 1426.19998,67.6481772 1439.06491,81.0670952 C1451.92984,94.4860133 1458.3622,113.383014 1458.3622,137.758663 L1458.3622,273.855358 L1386.15894,273.855358 Z M1567.24604,110.0592 C1558.7515,110.0592 1551.64204,112.736788 1545.91746,118.092044 C1540.19287,123.447301 1536.83819,131.849387 1535.85332,143.298556 L1597.90011,143.298556 C1597.6539,133.20359 1594.79165,125.140049 1589.31328,119.107691 C1583.83492,113.075334 1576.47924,110.0592 1567.24604,110.0592 Z" id="ASLconnect-Copy" fill="#000000" sketch:type="MSShapeGroup"></path>
    </g>
</svg>