<?xml version="1.0" encoding="UTF-8" standalone="no"?>
<svg width="1932px" height="278px" viewBox="0 0 1932 278" version="1.1" xmlns="http://www.w3.org/2000/svg" xmlns:xlink="http://www.w3.org/1999/xlink" xmlns:sketch="http://www.bohemiancoding.com/sketch/ns">
    <!-- Generator: Sketch 3.4.2 (15855) - http://www.bohemiancoding.com/sketch -->
    <title>ASLconnect</title>
    <desc>Created with Sketch.</desc>
    <defs></defs>
    <g id="Page-1" stroke="none" stroke-width="1" fill="none" fill-rule="evenodd" sketch:type="MSPage">
        <path d="M194.819557,274 L181.523815,223.402314 L93.8088483,223.402314 L80.1437798,274 L0,274 L88.0842926,2.91458809 L185.401739,2.91458809 L274.594011,274 L194.819557,274 Z M166.381442,163.571474 L154.747667,119.252333 C152.039262,109.403586 148.746136,96.6619602 144.868192,81.0270739 C140.990248,65.3921877 138.435767,54.1894058 137.204674,47.4183921 C136.09669,53.6969684 133.911532,64.0379979 130.649134,78.4417907 C127.386737,92.8455835 120.154171,121.221861 108.951221,163.571474 L166.381442,163.571474 Z M443.30869,192.009589 C443.30869,208.75246 439.061481,223.617689 430.566937,236.605725 C422.072392,249.59376 409.823197,259.688575 393.818982,266.890471 C377.814768,274.092368 359.040875,277.693262 337.496741,277.693262 C319.522777,277.693262 304.442109,276.43141 292.254284,273.907668 C280.06646,271.383927 267.386388,266.982834 254.213688,260.704258 L254.213688,195.702851 C268.125044,202.843193 282.590174,208.413807 297.609514,212.41486 C312.628853,216.415914 326.416893,218.416411 338.974045,218.416411 C349.807667,218.416411 357.748101,216.539021 362.795584,212.784187 C367.843067,209.029352 370.36677,204.197383 370.36677,198.288134 C370.36677,194.594854 369.351133,191.363282 367.319829,188.593322 C365.288525,185.823362 362.026177,183.022667 357.532686,180.191152 C353.039195,177.359637 341.066991,171.573585 321.615715,162.832822 C304.01108,154.830714 290.807801,147.074942 282.005483,139.565273 C273.203165,132.055603 266.678468,123.438078 262.431196,113.71244 C258.183924,103.986802 256.060319,92.4762518 256.060319,79.1804431 C256.060319,54.3123563 265.10872,34.9229261 283.205793,21.0115706 C301.302866,7.10021518 326.17058,0.144641787 357.80968,0.144641787 C385.755501,0.144641787 414.254885,6.6077852 443.30869,19.5342659 L420.964456,75.8565075 C395.727041,64.2842295 373.937015,58.4981773 355.593723,58.4981773 C346.114304,58.4981773 339.220284,60.1601285 334.911457,63.4840807 C330.602631,66.8080329 328.448249,70.9321339 328.448249,75.8565075 C328.448249,81.1502091 331.187391,85.8898476 336.665757,90.0755652 C342.144122,94.2612828 357.009352,101.893947 381.261892,112.973788 C404.529558,123.438082 420.687416,134.671641 429.735953,146.674801 C438.784489,158.677962 443.30869,173.789407 443.30869,192.009589 L443.30869,192.009589 Z M448.042547,274 L448.042547,4.02256662 L520.984467,4.02256662 L520.984467,215.092475 L624.949785,215.092475 L624.949785,274 L448.042547,274 Z M722.199849,277.693262 C687.975453,277.693262 662.030548,268.4602 644.364358,249.993799 C626.698168,231.527398 617.865205,204.997733 617.865205,170.404008 C617.865205,135.687174 627.406036,108.788187 646.487983,89.706239 C665.569931,70.6242913 692.715134,61.0834605 727.924405,61.0834605 C752.176945,61.0834605 775.013385,66.3770828 796.43441,76.964486 L775.198155,130.332118 C766.457392,126.515729 758.393851,123.468818 751.007291,121.191295 C743.62073,118.913773 735.926512,117.775028 727.924405,117.775028 C716.229018,117.775028 707.180617,122.330006 700.778931,131.440097 C694.377245,140.550188 691.17645,153.414921 691.17645,170.034682 C691.17645,203.520423 703.548754,220.263042 728.293731,220.263042 C749.468538,220.263042 769.781274,214.107667 789.23255,201.796733 L789.23255,259.226953 C770.643039,271.537887 748.299029,277.693262 722.199849,277.693262 L722.199849,277.693262 Z M993.587205,168.926703 C993.587205,203.1511 984.384919,229.834649 965.980073,248.978152 C947.575227,268.121654 921.814984,277.693262 888.698571,277.693262 C856.936361,277.693262 831.668548,267.906216 812.894374,248.331831 C794.120199,228.757446 784.733253,202.289335 784.733253,168.926703 C784.733253,134.825416 793.935538,108.326528 812.340385,89.4292444 C830.745231,70.5319607 856.567028,61.0834605 889.80655,61.0834605 C910.365809,61.0834605 928.524165,65.4537766 944.28216,74.1945397 C960.040156,82.9353029 972.197021,95.4614904 980.75312,111.773478 C989.309219,128.085466 993.587205,147.13635 993.587205,168.926703 L993.587205,168.926703 Z M858.044499,168.926703 C858.044499,186.900667 860.445095,200.596376 865.246359,210.01424 C870.047623,219.432105 878.111164,224.140966 889.437223,224.140966 C900.640173,224.140966 908.54983,219.432105 913.16643,210.01424 C917.78303,200.596376 920.091296,186.900667 920.091296,168.926703 C920.091296,151.075849 917.752254,137.595579 913.074099,128.485487 C908.395944,119.375396 900.393957,114.820419 889.067897,114.820419 C877.988057,114.820419 870.047623,119.344619 865.246359,128.393156 C860.445095,137.441692 858.044499,150.95274 858.044499,168.926703 L858.044499,168.926703 Z M1129.80118,274 L1129.80118,159.878212 C1129.80118,145.966857 1127.80068,135.471943 1123.79963,128.393156 C1119.79858,121.314369 1113.36621,117.775028 1104.50234,117.775028 C1092.31451,117.775028 1083.51233,122.637774 1078.09552,132.363412 C1072.6787,142.08905 1069.97034,158.770115 1069.97034,182.407109 L1069.97034,274 L997.767073,274 L997.767073,64.7767223 L1052.24268,64.7767223 L1061.29118,90.6295545 L1065.53843,90.6295545 C1071.69389,80.7808073 1080.21909,73.3943576 1091.11426,68.469984 C1102.00944,63.5456104 1114.53563,61.0834605 1128.6932,61.0834605 C1151.83776,61.0834605 1169.84223,67.7928189 1182.70715,81.211737 C1195.57208,94.6306551 1202.00445,113.527655 1202.00445,137.903305 L1202.00445,274 L1129.80118,274 Z M1346.15894,274 L1346.15894,159.878212 C1346.15894,145.966857 1344.15844,135.471943 1340.15739,128.393156 C1336.15633,121.314369 1329.72397,117.775028 1320.86009,117.775028 C1308.67227,117.775028 1299.87008,122.637774 1294.45327,132.363412 C1289.03646,142.08905 1286.3281,158.770115 1286.3281,182.407109 L1286.3281,274 L1214.12483,274 L1214.12483,64.7767223 L1268.60044,64.7767223 L1277.64893,90.6295545 L1281.89618,90.6295545 C1288.05165,80.7808073 1296.57684,73.3943576 1307.47202,68.469984 C1318.3672,63.5456104 1330.89338,61.0834605 1345.05096,61.0834605 C1368.19551,61.0834605 1386.19998,67.7928189 1399.06491,81.211737 C1411.92984,94.6306551 1418.3622,113.527655 1418.3622,137.903305 L1418.3622,274 L1346.15894,274 Z M1531.49329,277.693262 C1496.65335,277.693262 1469.60048,268.429423 1450.33387,249.901467 C1431.06725,231.373511 1421.43409,204.997731 1421.43409,170.773334 C1421.43409,135.440954 1430.35939,108.326528 1448.21024,89.4292444 C1466.06109,70.5319607 1491.54435,61.0834605 1524.66076,61.0834605 C1556.17675,61.0834605 1580.52126,69.3008857 1597.69501,85.7359827 C1614.86876,102.17108 1623.45551,125.838495 1623.45551,156.73894 L1623.45551,188.870317 L1494.37601,188.870317 C1494.86845,200.565704 1499.14644,209.737212 1507.2101,216.385117 C1515.27376,223.033021 1526.2611,226.356924 1540.17246,226.356924 C1552.85272,226.356924 1564.51715,225.156625 1575.16611,222.755993 C1585.81507,220.355361 1597.3564,216.262037 1609.79044,210.475898 L1609.79044,262.366226 C1598.46438,268.152365 1586.76917,272.153358 1574.70446,274.369326 C1562.63974,276.585294 1548.23616,277.693262 1531.49329,277.693262 L1531.49329,277.693262 Z M1527.24604,110.203842 C1518.7515,110.203842 1511.64204,112.88143 1505.91746,118.236686 C1500.19287,123.591942 1496.83819,131.994029 1495.85332,143.443197 L1557.90011,143.443197 C1557.6539,133.348231 1554.79165,125.284691 1549.31328,119.252333 C1543.83492,113.219975 1536.47924,110.203842 1527.24604,110.203842 L1527.24604,110.203842 Z M1722.55221,277.693262 C1688.32781,277.693262 1662.3829,268.4602 1644.71671,249.993799 C1627.05052,231.527398 1618.21756,204.997733 1618.21756,170.404008 C1618.21756,135.687174 1627.75839,108.788187 1646.84034,89.706239 C1665.92229,70.6242913 1693.06749,61.0834605 1728.27676,61.0834605 C1752.5293,61.0834605 1775.36574,66.3770828 1796.78677,76.964486 L1775.55051,130.332118 C1766.80975,126.515729 1758.74621,123.468818 1751.35965,121.191295 C1743.97309,118.913773 1736.27887,117.775028 1728.27676,117.775028 C1716.58137,117.775028 1707.53297,122.330006 1701.13129,131.440097 C1694.7296,140.550188 1691.52881,153.414921 1691.52881,170.034682 C1691.52881,203.520423 1703.90111,220.263042 1728.64609,220.263042 C1749.82089,220.263042 1770.13363,214.107667 1789.58491,201.796733 L1789.58491,259.226953 C1770.9954,271.537887 1748.65139,277.693262 1722.55221,277.693262 L1722.55221,277.693262 Z M1896.62211,220.632368 C1906.34775,220.632368 1917.98141,218.231772 1931.52344,213.430507 L1931.52344,266.059487 C1921.7978,270.245205 1912.53396,273.230562 1903.73164,275.015647 C1894.92933,276.800732 1884.61907,277.693262 1872.80058,277.693262 C1848.54804,277.693262 1831.06677,271.753325 1820.35626,259.873274 C1809.64575,247.993222 1804.29057,229.742537 1804.29057,205.120669 L1804.29057,118.883007 L1778.99173,118.883007 L1778.99173,89.521576 L1811.1231,66.8080162 L1829.77408,22.8582015 L1877.04783,22.8582015 L1877.04783,64.7767223 L1928.38416,64.7767223 L1928.38416,118.883007 L1877.04783,118.883007 L1877.04783,200.319428 C1877.04783,213.861456 1883.57252,220.632368 1896.62211,220.632368 L1896.62211,220.632368 Z" id="ASLconnect" fill="#F8F0BF" sketch:type="MSShapeGroup"></path>
    </g>
</svg>