<?xml version="1.0" encoding="UTF-8" standalone="no"?>
<svg width="70px" height="100px" viewBox="0 0 70 100" version="1.1" xmlns="http://www.w3.org/2000/svg" xmlns:xlink="http://www.w3.org/1999/xlink" xmlns:sketch="http://www.bohemiancoding.com/sketch/ns">
    <!-- Generator: Sketch 3.4.2 (15855) - http://www.bohemiancoding.com/sketch -->
    <title>asl-level-1</title>
    <desc>Created with Sketch.</desc>
    <defs></defs>
    <g id="Page-1" stroke="none" stroke-width="1" fill="none" fill-rule="evenodd" sketch:type="MSPage">
        <g id="asl-level-1" sketch:type="MSLayerGroup" fill="#FF0000">
            <g id="Numbers" sketch:type="MSShapeGroup">
                <path d="M69.22,60.73 L69.16,60.18 L60.16,51.53 L60.16,8.8 C60.16,4.3 56.22,0.64 51.37,0.64 C46.52,0.64 42.57,4.3 42.57,8.78 L42.26,32 C41.2888487,31.3670431 40.1590298,31.0204729 39,31 L34.34,31 C31.7425839,31.0053918 29.4219929,32.6242233 28.52,35.06 C27.4847258,34.3507192 26.254785,33.9803393 25,34 L20.15,34 C17.7171638,34.0023883 15.5175594,35.4478426 14.55,37.68 C13.5054293,36.9064424 12.2398149,36.4892453 10.94,36.49 L6.83,36.49 C3.46334615,36.4955056 0.735505577,39.2233461 0.73,42.59 L0.73,63.59 C0.731404687,65.6378017 1.50649333,67.6094558 2.9,69.11 C2.74,72.01 2.68,82.76 9.84,90.72 C15.03,96.48 22.78,99.41 32.84,99.41 C55.73,99.41 61.3,90.69 65.03,81.76 C66.27,78.82 69.72,65.48 69.22,60.73 L69.22,60.73 Z M51.36,3.64 C54.55,3.64 57.15,5.95 57.15,8.8 L57.15,48.66 L55.71,47.28 C53.9443922,45.7736547 51.824571,44.7412743 49.55,44.28 L45.19,43.36 L45.19,37.28 L45.57,8.8 C45.57,6 48.17,3.64 51.36,3.64 L51.36,3.64 Z M31.12,37.26 C31.1093047,36.3990935 31.4438263,35.5697603 32.0488565,34.9572141 C32.6538868,34.3446679 33.4790271,33.9999336 34.34,34 L39,34 C40.7783569,34 42.22,35.4416431 42.22,37.22 L42.22,42.74 L34.57,41.13 C33.4303161,40.8845939 32.2456065,40.9502192 31.14,41.32 L31.14,37.26 L31.12,37.26 Z M31.12,68.97 L31.12,57 C31.864548,57.6090846 32.6930843,58.1075536 33.58,58.48 L42.19,62.2 L42.19,73.37 C42.1900232,74.7437308 41.6422657,76.060764 40.6680799,77.0293187 C39.693894,77.9978734 38.3737076,78.5379868 37,78.53 L36.28,78.53 C33.4302107,78.53 31.12,76.2197893 31.12,73.37 L31.12,69 L31.12,68.97 Z M17,40.09 C17,38.3779173 18.3879173,36.99 20.1,36.99 L25,36.99 C26.7120827,36.99 28.1,38.3779173 28.1,40.09 L28.1,43.48 C26.7250624,45.1885617 26.3108544,47.4780022 27,49.56 L27.86,52.23 C27.94,52.48 28.04,52.72 28.14,52.96 L28.14,69 C28.1181104,71.8263762 25.82644,74.1091295 23,74.12 L22.2,74.12 C20.8314706,74.1306499 19.5147664,73.5971961 18.5395682,72.637001 C17.5643701,71.6768059 17.0105676,70.36853 17,69 L17,40.09 L17,40.09 Z M3.73,42.57 C3.73,40.8579173 5.11791728,39.47 6.83,39.47 L10.94,39.47 C12.6520827,39.47 14.04,40.8579173 14.04,42.57 L14.04,63.57 C14.04,66.4197893 11.7297893,68.73 8.88,68.73 C6.03021069,68.73 3.72,66.4197893 3.72,63.57 L3.72,42.57 L3.73,42.57 Z M62.29,80.57 C59.5,87.24 55.68,96.37 32.86,96.37 C23.67,96.37 16.68,93.79 12.08,88.69 C6.82,82.85 6,75 5.88,71.11 C8.64758209,72.2186844 11.8003227,71.7194684 14.09,69.81 C14.5293269,73.9604825 18.0263377,77.1125353 22.2,77.12 L23,77.12 C24.966855,77.1241381 26.8681905,76.4133585 28.35,75.12 C29.1736227,78.8759496 32.5048177,81.5492336 36.35,81.54 L37,81.54 C41.5043593,81.5344901 45.1544901,77.8843593 45.16,73.38 L45.16,63.5 L47.16,64.38 C47.9088198,64.6615294 48.7468007,64.3058613 49.0645094,63.5716604 C49.3822182,62.8374595 49.0678352,61.9831322 48.35,61.63 L34.75,55.72 C32.8196432,54.9188398 31.3387786,53.3099992 30.7,51.32 L29.84,48.65 C29.4521808,47.4512823 29.7326422,46.1367358 30.5759211,45.2006756 C31.4192,44.2646154 32.6974482,43.8489561 33.93,44.11 L48.93,47.27 C50.6644428,47.6064029 52.2891094,48.3654967 53.66,49.48 L66.27,61.58 C66.39,65.95 63.45,77.81 62.3,80.56 L62.29,80.57 Z" id="Shape"></path>
            </g>
        </g>
    </g>
</svg>