<?xml version="1.0" encoding="UTF-8" standalone="no"?>
<svg width="76px" height="98px" viewBox="0 0 76 98" version="1.1" xmlns="http://www.w3.org/2000/svg" xmlns:xlink="http://www.w3.org/1999/xlink" xmlns:sketch="http://www.bohemiancoding.com/sketch/ns">
    <!-- Generator: Sketch 3.4.2 (15855) - http://www.bohemiancoding.com/sketch -->
    <title>asl-level-4</title>
    <desc>Created with Sketch.</desc>
    <defs></defs>
    <g id="Page-1" stroke="none" stroke-width="1" fill="none" fill-rule="evenodd" sketch:type="MSPage">
        <g id="asl-level-4" sketch:type="MSLayerGroup" fill="#0060D3">
            <g id="Numbers" sketch:type="MSShapeGroup">
                <path d="M73.61,6.43 C70.8584157,3.02174437 65.9778021,2.24067359 62.3,4.62 C60.5797798,5.73225998 59.4017783,7.51194853 59.05,9.53 L52.74,33.14 L52.35,8.63 C52.3666084,4.12723201 48.7327447,0.462041913 44.23,0.44 L44.23,0.44 C42.0606462,0.421363986 39.9731684,1.26735323 38.4288613,2.79101953 C36.8845542,4.31468583 36.0105544,6.39059178 36,8.56 L36,29.36 L32,11.12 C31.2978371,6.66137277 27.1207226,3.61127415 22.66,4.3 C20.5153449,4.6413075 18.5948167,5.82241914 17.3226549,7.5824307 C16.050493,9.34244225 15.5313849,11.5365206 15.88,13.68 L19.44,34.29 L14.85,23.07 C13.9919304,20.2108651 11.5180315,18.1342231 8.55346262,17.784556 C5.58889374,17.4348889 2.69973073,18.8789646 1.2,21.46 C0.229713065,23.1366417 -0.0261202273,25.1328621 0.49,27 L7.58,52.2 C7.51,56 7.49,96.35 34.13,97.59 L36.08,97.59 C55.49,97.59 64.46,83.69 68.08,75.21 C69.5316921,71.8611102 68.579776,67.955394 65.75,65.65 L66.64,46.65 L75.1,12.23 L75.1,12.11 C75.4128493,10.0919458 74.8731655,8.03462775 73.61,6.43 L73.61,6.43 Z M72.19,11.66 L63.72,46.16 L62.87,63.76 L41.81,50.22 C39.5598463,48.4958991 36.6289087,47.9326849 33.9,48.7 C32.2222536,49.1672839 30.8828555,50.4318553 30.32,52.08 C28.54,57.6 30.56,64.61 35.23,69.13 L45.43,77.42 C45.8462144,77.757616 46.4109284,77.8475383 46.9114196,77.655894 C47.4119108,77.4642497 47.7721428,77.0201543 47.8564196,76.490894 C47.9406964,75.9616338 47.7362144,75.427616 47.32,75.09 L37.32,66.93 C34,63.76 31.58,58 33.18,53 C33.458759,52.2790205 34.0702999,51.7383289 34.82,51.55 C36.6631036,51.08307 38.6185334,51.5007705 40.11,52.68 L63.38,67.68 C65.537378,69.0349496 66.3861557,71.7595259 65.38,74.1 C61.91,82.1 53.26,95.5 34.29,94.63 C9.84,93.49 10.59,52.5 10.6,52.08 L10.6,51.82 L3.38,26.21 C3.08992349,25.1265653 3.24094449,23.9723334 3.8,23 C4.70074808,21.4424148 6.44434179,20.5729706 8.23039249,20.7907816 C10.0164432,21.0085927 11.4999831,22.2715898 12,24 L21.89,48.23 C21.9137706,48.2814915 21.9404814,48.3315741 21.97,48.38 L21.97,48.45 C22.0489007,48.5773582 22.1466817,48.691998 22.26,48.79 L22.32,48.79 C22.4376137,48.8859581 22.5691114,48.963508 22.71,49.02 L22.77,49.02 C22.9213572,49.0717208 23.0800549,49.0987332 23.24,49.1 L23.24,49.1 L23.5,49.1 L23.5,49.1 L23.65,49.1 L23.8,49.1 L23.8,49.1 L23.89,49.1 L24.05,49.01 L24.16,48.92 L24.27,48.83 L24.37,48.71 L24.46,48.61 L24.53,48.48 L24.6,48.35 C-10.9,-1 24.6,48.26 24.6,48.22 C24.6022235,48.1733598 24.6022235,48.1266402 24.6,48.08 C24.5977765,48.0333598 24.6,47.98 24.6,47.93 L24.6,47.79 C24.6036275,47.7300548 24.6036275,47.6699452 24.6,47.61 C24.5963725,47.5500548 24.6,47.54 24.6,47.5 L18.83,13.19 C18.6110255,11.8321809 18.942108,10.4430737 19.75,9.33 C20.5518243,8.21940331 21.7659674,7.47722681 23.12,7.27 C25.9562383,6.87109918 28.5826237,8.83642155 29,11.67 L36,43.35 C-10.9,-1 36,43.43 36,43.47 C36.0257878,43.5736128 36.0698073,43.6718101 36.13,43.76 L36.19,43.87 L36.41,44 L36.48,44.08 L36.61,44.19 L36.7,44.26 L36.84,44.33 L37,44.42 L37.15,44.42 L37.28,44.42 L37.45,44.42 L37.71,44.42 L37.88,44.42 L37.88,44.42 L37.98,44.42 L38.16,44.36 L38.28,44.29 L38.41,44.21 L38.52,44.12 L38.63,44.03 L38.7,44 L38.79,43.88 L38.86,43.76 L38.93,43.63 C38.932485,43.5800309 38.932485,43.5299691 38.93,43.48 C38.927515,43.4300309 38.93,43.39 38.93,43.35 C38.9344494,43.2834076 38.9344494,43.2165924 38.93,43.15 C38.9255506,43.0834076 38.93,43.09 38.93,43.06 L38.93,43.06 L38.93,43.06 L38.93,8.57 C38.9465007,5.73193339 41.2518854,3.43995203 44.09,3.44 L44.09,3.44 C45.4620169,3.44791234 46.77439,4.00192556 47.7370336,4.97958112 C48.6996772,5.95723669 49.2333178,7.27802489 49.22,8.65 L49.78,43.95 C-10.9,-1 49.78,44.01 49.78,44.04 C49.7771344,44.0932948 49.7771344,44.1467052 49.78,44.2 C49.7828656,44.2532948 49.78,44.29 49.78,44.34 L49.78,44.48 L49.84,44.61 L49.91,44.73 L49.99,44.85 L50.33,45 L50.43,45.1 L50.54,45.19 L50.66,45.27 L50.78,45.34 L50.93,45.4 L51.01,45.4 L51.01,45.4 L51.16,45.4 L51.31,45.4 L51.46,45.4 L51.62,45.4 L51.76,45.4 L51.89,45.4 L52.04,45.33 L52.15,45.27 L52.28,45.18 L52.38,45.1 L52.49,44.99 L52.57,44.89 L52.65,44.76 L52.71,44.64 C52.7327345,44.5911376 52.7527647,44.541062 52.77,44.49 L52.77,44.41 L62,10.23 L62,10.08 C62.2050741,8.83925196 62.9335688,7.74650994 64,7.08 C66.3756209,5.56742994 69.5070139,6.06999919 71.29,8.25 C72.0534621,9.21089469 72.3798391,10.4475009 72.19,11.66 L72.19,11.66 Z" id="Shape"></path>
            </g>
        </g>
    </g>
</svg>