<?xml version="1.0" encoding="UTF-8" standalone="no"?>
<svg width="66px" height="97px" viewBox="0 0 66 97" version="1.1" xmlns="http://www.w3.org/2000/svg" xmlns:xlink="http://www.w3.org/1999/xlink" xmlns:sketch="http://www.bohemiancoding.com/sketch/ns">
    <!-- Generator: Sketch 3.4.2 (15855) - http://www.bohemiancoding.com/sketch -->
    <title>asl-level-2</title>
    <desc>Created with Sketch.</desc>
    <defs></defs>
    <g id="Page-1" stroke="none" stroke-width="1" fill="none" fill-rule="evenodd" sketch:type="MSPage">
        <g id="asl-level-2" sketch:type="MSLayerGroup" fill="#FFAD00">
            <g id="Numbers" sketch:type="MSShapeGroup">
                <path d="M65.82,11.68 C66.3574483,7.36316518 63.3125434,3.42086157 59,2.85 C56.9126632,2.49806086 54.7694386,2.94813803 53,4.11 C51.2776653,5.21460055 50.0928927,6.98632469 49.73,9 L42.81,34 L36.61,7.46 C35.7180601,3.041722 31.413278,0.183060129 26.995,1.075 C22.576722,1.96693987 19.7180601,6.271722 20.61,10.69 L25.39,34.59 C24.4003788,34.1954439 23.3244549,34.0678503 22.27,34.22 L18.79,34.72 C16.1706392,35.0933986 14.0906382,37.1128171 13.64,39.72 C12.6262242,39.25994 11.5017672,39.1002948 10.4,39.26 L5.1,40.02 C3.55718989,40.2307331 2.16205652,41.0478567 1.22357605,42.2904049 C0.285095579,43.532953 -0.119281872,45.0983817 0.1,46.64 L1.35,55.34 C1.23,57.63 4.5519144e-14,79 10.21,90.29 C14.1044107,94.6041192 19.6582944,97.0462266 25.47,97 L28.17,97 C51.11,97 58.17,90.12 61.96,65.62 C62.5350236,61.2332793 60.8395735,56.8552502 57.46,54 L58.52,46.68 L65.82,11.68 Z M27.59,4 C28.9416029,3.73299483 30.3438903,4.01542825 31.4867493,4.78484071 C32.6296083,5.55425317 33.4188733,6.74724908 33.68,8.1 L41.28,40.6 C41.4719776,41.3506513 42.2040725,41.8315644 42.9692335,41.7096574 C43.7343946,41.5877503 44.2807967,40.9031445 44.23,40.13 L52.65,9.73 L52.65,9.57 C52.8563045,8.32973791 53.5844906,7.23745876 54.65,6.57 C55.7933492,5.82579584 57.1752904,5.54012324 58.52,5.77 C61.33,6.22 63.28,8.64 62.89,11.1 L55.58,46.1 L54.67,52.37 L30.18,44.58 L29.91,44.5 L29.18,39.39 C29.1419767,39.0893091 29.0818133,38.7918345 29,38.5 C29.1109906,38.2275192 29.138827,37.9282778 29.08,37.64 L23.56,10.1 C23.2828231,8.75642244 23.5520905,7.35777608 24.3082972,6.21314554 C25.064504,5.06851501 26.2453924,4.27213634 27.59,4 L27.59,4 Z M17.18,38.9 C17.6617663,38.2495274 18.3802345,37.8148541 19.18,37.69 L22.66,37.19 C22.809807,37.1792378 22.960193,37.1792378 23.11,37.19 C24.6488321,37.1942775 25.9515902,38.3267405 26.17,39.85 L26.73,43.78 C22.62,43.09 19.3,43.78 17.11,45.15 L16.55,41.23 C16.4342597,40.3999675 16.661751,39.5586105 17.18,38.9 L17.18,38.9 Z M3.66,44.1 C4.11245486,43.4994749 4.78528921,43.10369 5.53,43 L10.83,42.24 C12.3837942,42.0197951 13.8232452,43.0971482 14.05,44.65 L14.56,48.19 C13.5915503,50.9154242 13.6771554,53.9044696 14.8,56.57 C15.1676107,57.5379558 15.6263377,58.4688034 16.17,59.35 L16.65,62.72 C16.7295812,63.2528146 16.5908477,63.7952025 16.2652085,64.2243687 C15.9395692,64.6535349 15.4545652,64.9331825 14.92,65 L8.19,66 L8.19,66 C7.61017874,66.0856361 7.02015536,65.9363647 6.55081629,65.5852991 C6.08147722,65.2342335 5.77162681,64.7103993 5.69,64.13 L3.12,46.21 C3.01130762,45.4627915 3.20572312,44.703131 3.66,44.1 L3.66,44.1 Z M59,65.25 C55.33,89.16 49.07,94.54 25.53,94 C20.5391056,94.0386009 15.7705608,91.9382571 12.43,88.23 C7.62,83 5.61,74.84 4.8,68 C5.69001186,68.6531589 6.76604153,69.0036572 7.87,69 C8.11636194,69.0173395 8.36363806,69.0173395 8.61,69 L15.34,68 C16.1525871,67.875572 16.9219599,67.5527102 17.58,67.06 C18.5209953,69.0026325 20.4914655,70.2346621 22.65,70.23 C22.9244123,70.2295244 23.1984412,70.2094736 23.47,70.17 L23.47,70.17 L28.4,69.46 C29.5937037,69.2854767 30.6840576,68.6852493 31.47,67.77 L38.28,69.83 C38.8123799,70.0939477 39.4503817,70.0187433 39.9067971,69.6382414 C40.3632125,69.2577395 40.5519864,68.6436821 40.3881386,68.0724986 C40.2242908,67.501315 39.7387141,67.0806995 39.15,67 L23.6,62.26 C20.8082604,60.8579776 18.6607274,58.4384237 17.6,55.5 C16.7013874,53.435826 16.6510977,51.1009512 17.46,49 C18.34,47.12 22.7,45.32 29.26,47.44 L53.93,55.3 C57.24,56.6 59.61,61.25 59,65.25 L59,65.25 Z M19.78,63.41 C20.6073356,64.0493916 21.5109271,64.5834847 22.47,65 L27.47,66.52 L23.03,67.16 L23.03,67.16 C21.579808,67.3580267 20.2359046,66.3645139 20,64.92 L19.78,63.41 Z" id="Shape"></path>
            </g>
        </g>
    </g>
</svg>