<?xml version="1.0" encoding="UTF-8" standalone="no"?>
<svg width="88px" height="98px" viewBox="0 0 88 98" version="1.1" xmlns="http://www.w3.org/2000/svg" xmlns:xlink="http://www.w3.org/1999/xlink" xmlns:sketch="http://www.bohemiancoding.com/sketch/ns">
    <!-- Generator: Sketch 3.4.2 (15855) - http://www.bohemiancoding.com/sketch -->
    <title>asl-level-3</title>
    <desc>Created with Sketch.</desc>
    <defs></defs>
    <g id="Page-1" stroke="none" stroke-width="1" fill="none" fill-rule="evenodd" sketch:type="MSPage">
        <g id="asl-level-3" sketch:type="MSLayerGroup" fill="#009D03">
            <g id="Numbers" sketch:type="MSShapeGroup">
                <path d="M86.19,58.19 L86,58 C85.79,57.76 80.72,52.28 70.57,55.87 L62,57.6 L61.76,50 L73,17 L73,16.86 C73.5834604,14.7295252 73.2804902,12.4536415 72.16,10.55 C71.1804461,9.03002262 69.6177268,7.98097491 67.84,7.65 C62.76,6.58 59.27,8.38 57.15,13.2 L46.88,38.53 L44.74,7.85 C44.5726841,3.4840747 40.9690257,0.0397918662 36.6,0.07 C34.3847986,0.01925096 32.2416781,0.858489743 30.65,2.4 C29.2327947,3.7785274 28.4353394,5.67293474 28.44,7.65 L28.52,31.43 C27.9123063,30.9048088 27.209649,30.5008657 26.45,30.24 L22.58,29 C21.1183646,28.4962352 19.5102662,28.6493875 18.17,29.42 C16.3873931,30.4560906 15.129409,32.2012709 14.71,34.22 C14.45,35.35 14.23,36.48 14.03,37.62 C13.4071861,37.0013 12.6561912,36.5268078 11.83,36.23 L9,35.27 C7.59766853,34.78334 6.05276485,34.9330825 4.77,35.68 C3.05072168,36.7003476 1.84977636,38.4071457 1.47,40.37 C0.150619269,46.5262156 -0.14333339,52.8580234 0.6,59.11 C0.845802436,61.6790577 2.20077978,64.0128327 4.31,65.5 C5.3945859,66.2517309 6.68041131,66.6594317 8,66.67 C8.31857256,66.6656124 8.63627106,66.6355147 8.95,66.58 C10.87,90.9 17.1,96.33 27.87,97.58 C30.3985327,97.8310785 32.939315,97.9379182 35.48,97.9 C39.62,97.9 43.74,97.56 46.6,96.51 C53.6448162,94.0149793 59.2172833,88.5194496 61.81,81.51 L65.65,78.27 L83.09,70.52 C85.0511071,69.9366953 86.6315505,68.4781085 87.37,66.57 C88.51,63.44 87.17,59.83 86.19,58.19 L86.19,58.19 Z M17.63,34.85 C17.8614881,33.6590017 18.5887072,32.6227143 19.63,32 C20.0111401,31.7826141 20.44126,31.6656214 20.88,31.66 C21.1322786,31.6607788 21.3825614,31.7047474 21.62,31.79 L25.51,33.08 C27.1770316,33.7344327 28.1040042,35.5200296 27.68,37.26 C26.2211621,43.6678059 25.9096773,50.2834721 26.76,56.8 C27.2699732,59.7380631 25.5448299,62.6047828 22.71,63.53 L22.71,63.53 C21.5456987,63.8179333 20.3136914,63.5803058 19.34,62.88 C17.7308221,61.7418053 16.6946774,59.9613877 16.5,58 C15.5056214,50.2771911 15.8882077,42.4392507 17.63,34.85 L17.63,34.85 Z M8.76,63.56 C7.8023838,63.7864977 6.79360993,63.5818189 6,63 C4.62426665,61.9945794 3.74656308,60.4467619 3.59,58.75 C2.88555765,52.8284915 3.16260919,46.8313393 4.41,41 C4.60868322,39.880874 5.27409439,38.8991198 6.24,38.3 C6.58783293,38.103517 6.98050871,38.0001812 7.38,38 C7.60461608,37.9993447 7.82773785,38.0365317 8.04,38.11 L10.86,39 C12.387387,39.6284886 13.2342025,41.2713106 12.86,42.88 C11.8174827,47.7826203 11.5911084,52.8236703 12.19,57.8 C12.586962,60.2979315 11.1254764,62.718253 8.73,63.53 L8.73,63.53 L8.76,63.56 Z M82.04,67.73 L64.04,75.73 L59.19,79.83 L59,80.23 C56.7866437,86.5520296 51.8136668,91.5213255 45.49,93.73 C42.24,94.92 37.43,95.34 29.43,94.73 C17.03,93.73 13.14,83.89 11.79,65.37 C13.0195867,64.4847942 13.9758875,63.272094 14.55,61.87 C15.2521264,63.2830486 16.3058802,64.4917662 17.61,65.38 C18.8086033,66.2043394 20.2253834,66.6533926 21.68,66.67 C22.2747595,66.6690651 22.8667055,66.5883452 23.44,66.43 C27.7031919,65.093851 30.353463,60.8466216 29.68,56.43 C29.2482234,53.0849071 29.1377192,49.7061572 29.35,46.34 C29.5576405,46.4452877 29.7871909,46.5001057 30.02,46.5 C30.8484271,46.5 31.52,45.8284271 31.52,45 L31.44,7.64 C31.4422869,6.47059949 31.9185584,5.35208301 32.76,4.54 C33.779944,3.57032595 35.1431089,3.04520173 36.55,3.08 C39.3326482,3.02916864 41.6422367,5.21860516 41.74,8 L44.55,48.22 C44.582117,48.5842067 44.8570646,48.8802957 45.2178994,48.9392556 C45.5787342,48.9982155 45.9336268,48.8050416 46.08,48.47 L60,14.33 C61.52,10.87 63.64,9.77 67.3,10.55 C68.2865824,10.715742 69.1597064,11.2845407 69.71,12.12 C70.3729638,13.3222763 70.5415475,14.7355104 70.18,16.06 L58.74,49.59 L59.05,61.26 L71.3,58.75 C79.15,55.94 83.07,59.26 83.7,59.87 C84.44,61.2 85.22,63.67 84.54,65.52 C84.0948265,66.6399401 83.1692888,67.4465332 82.04,67.73 Z" id="Shape"></path>
            </g>
        </g>
    </g>
</svg>