<?xml version="1.0" encoding="UTF-8" standalone="no"?>
<svg width="131px" height="101px" viewBox="0 0 131 101" version="1.1" xmlns="http://www.w3.org/2000/svg" xmlns:xlink="http://www.w3.org/1999/xlink" xmlns:sketch="http://www.bohemiancoding.com/sketch/ns">
    <!-- Generator: Sketch 3.4.2 (15855) - http://www.bohemiancoding.com/sketch -->
    <title>aslconnect copy 3</title>
    <desc>Created with Sketch.</desc>
    <defs>
        <radialGradient cx="64.5440161%" cy="9.84285392%" fx="64.5440161%" fy="9.84285392%" r="24.2400216%" id="radialGradient-1">
            <stop stop-color="#FFFFFFE2FFFFFFE2FFFFFFE2" stop-opacity="0" offset="0%"></stop>
            <stop stop-color="#000000" stop-opacity="0" offset="40.2327977%"></stop>
            <stop stop-color="#5C5C5C" stop-opacity="0" offset="73.0260151%"></stop>
            <stop stop-color="#FFFFFF" offset="100%"></stop>
        </radialGradient>
        <radialGradient cx="45.5289096%" cy="69.0173902%" fx="45.5289096%" fy="69.0173902%" r="18.2053426%" id="radialGradient-2">
            <stop stop-color="#000000" stop-opacity="0" offset="0%"></stop>
            <stop stop-color="#5C5C5C" stop-opacity="0" offset="36.1168686%"></stop>
            <stop stop-color="#FFFFFF" offset="100%"></stop>
        </radialGradient>
    </defs>
    <g id="Page-1" stroke="none" stroke-width="1" fill="none" fill-rule="evenodd" sketch:type="MSPage">
        <g id="aslconnect" sketch:type="MSLayerGroup" transform="translate(-264.000000, -17.000000)">
            <g id="aslconnect-copy-3" transform="translate(253.000000, 0.000000)" sketch:type="MSShapeGroup">
                <g id="aslconnect" transform="translate(78.432036, 65.801013) rotate(-345.000000) translate(-78.432036, -65.801013) translate(10.432036, 16.801013)">
                    <path d="M67.6751819,75.0998838 C90.6547359,75.0998838 111.619313,71.8154845 123.702867,66.4344096 C130.873937,63.2409731 135.009622,59.2933477 135.009622,54.4419225 C135.009622,42.0024161 105.066772,33.7839613 67.6751819,33.7839613 C30.2835919,33.7839613 0.340741737,42.0024161 0.340741737,54.4419225 C0.340741737,66.881429 30.2835919,75.0998838 67.6751819,75.0998838 L67.6751819,75.0998838 Z M67.6751819,69.0998838 C50.6329745,69.0998838 34.6863725,67.2486173 22.9779105,64.0349798 C12.2395047,61.087595 6.34074174,57.259751 6.34074174,54.4419225 C6.34074174,51.6240941 12.2395047,47.7962501 22.9779105,44.8488653 C34.6863725,41.6352278 50.6329745,39.7839613 67.6751819,39.7839613 C84.7173894,39.7839613 100.663991,41.6352278 112.372453,44.8488653 C123.110859,47.7962501 129.009622,51.6240941 129.009622,54.4419225 C129.009622,56.2173942 126.484602,58.6275954 121.262019,60.9533273 C110.0683,65.9381391 89.8866369,69.0998838 67.6751819,69.0998838 L67.6751819,69.0998838 Z" id="Shape" fill="url(#radialGradient-1)"></path>
                    <path d="M79.5390651,61.6293926 C106.544525,38.1539042 123.562918,14.8546142 116.686818,6.94456627 C109.810719,-0.965481687 84.3696732,12.6446548 57.364213,36.1201433 C30.3587527,59.5956317 13.3403599,82.8949217 20.2164597,90.8049696 C27.0925595,98.7150176 52.5336049,85.1048811 79.5390651,61.6293926 L79.5390651,61.6293926 Z M75.602711,57.1011352 C63.4038031,67.705484 51.0291582,76.5279689 40.9783509,81.9048258 C36.1753894,84.4742548 32.0742558,86.1592799 28.9857462,86.8526006 C27.57422,87.1694655 26.4365701,87.2636627 25.62408,87.16222 C25.0907799,87.0956353 24.8406127,86.9789306 24.7447172,86.8686155 C24.6488217,86.7583003 24.5680693,86.4943255 24.5763537,85.9569487 C24.588975,85.1382477 24.8405857,84.024779 25.3508134,82.6710887 C26.4672242,79.7091279 28.7066182,75.8824164 31.9194848,71.4837924 C38.6428165,62.2791127 49.1016593,51.2527496 61.3005671,40.6484007 C73.499475,30.0440519 85.8741199,21.221567 95.9249272,15.8447101 C100.727889,13.2752811 104.829022,11.590256 107.917532,10.8969353 C109.329058,10.5800704 110.466708,10.4858732 111.279198,10.5873159 C111.812498,10.6539006 112.062665,10.7706053 112.158561,10.8809204 C112.254456,10.9912356 112.335209,11.2552104 112.326924,11.7925872 C112.314303,12.6112882 112.062692,13.7247569 111.552465,15.0784472 C110.436054,18.040408 108.19666,21.8671195 104.983793,26.2657435 C98.2604616,35.4704232 87.8016188,46.4967863 75.602711,57.1011352 L75.602711,57.1011352 Z" id="Shape" fill="url(#radialGradient-2)" transform="translate(68.451639, 48.874768) rotate(5.000000) translate(-68.451639, -48.874768) "></path>
                </g>
            </g>
        </g>
    </g>
</svg>