<?xml version="1.0" encoding="UTF-8" standalone="no"?>
<svg width="582px" height="127px" viewBox="0 0 582 127" version="1.1" xmlns="http://www.w3.org/2000/svg" xmlns:xlink="http://www.w3.org/1999/xlink" xmlns:sketch="http://www.bohemiancoding.com/sketch/ns">
    <!-- Generator: Sketch 3.4.2 (15855) - http://www.bohemiancoding.com/sketch -->
    <title>aslconnect</title>
    <desc>Created with Sketch.</desc>
    <defs>
        <linearGradient x1="86.9000345%" y1="50%" x2="35.8727555%" y2="50%" id="linearGradient-1">
            <stop stop-color="#FFA900" offset="0%"></stop>
            <stop stop-color="#F76B1C" offset="100%"></stop>
        </linearGradient>
        <radialGradient cx="64.5440161%" cy="9.84285392%" fx="64.5440161%" fy="9.84285392%" r="24.2400216%" id="radialGradient-2">
            <stop stop-color="#FFFFFFE2FFFFFFE2FFFFFFE2" stop-opacity="0" offset="0%"></stop>
            <stop stop-color="#000000" stop-opacity="0" offset="40.2327977%"></stop>
            <stop stop-color="#5C5C5C" stop-opacity="0" offset="73.0260151%"></stop>
            <stop stop-color="#FFFFFF" offset="100%"></stop>
        </radialGradient>
        <radialGradient cx="45.5289096%" cy="69.0173902%" fx="45.5289096%" fy="69.0173902%" r="18.2053426%" id="radialGradient-3">
            <stop stop-color="#000000" stop-opacity="0" offset="0%"></stop>
            <stop stop-color="#5C5C5C" stop-opacity="0" offset="36.1168686%"></stop>
            <stop stop-color="#FFFFFF" offset="100%"></stop>
        </radialGradient>
    </defs>
    <g id="Page-1" stroke="none" stroke-width="1" fill="none" fill-rule="evenodd" sketch:type="MSPage">
        <g id="aslconnect" sketch:type="MSLayerGroup" transform="translate(0.000000, -10.000000)">
            <g transform="translate(0.000000, 10.000000)" id="Shape" fill="url(#linearGradient-1)" sketch:type="MSShapeGroup">
                <path d="M269.464641,127 L538.929282,127 L582,63.5 L539.164641,0 L269.58232,0 L0,0 L0,127 L269.464641,127 Z"></path>
            </g>
            <g transform="translate(58.000000, 0.000000)" id="Shape" sketch:type="MSShapeGroup">
                <g transform="translate(78.432036, 65.801013) rotate(-345.000000) translate(-78.432036, -65.801013) translate(10.432036, 16.801013)">
                    <path d="M67.6751819,75.0998838 C90.6547359,75.0998838 111.619313,71.8154845 123.702867,66.4344096 C130.873937,63.2409731 135.009622,59.2933477 135.009622,54.4419225 C135.009622,42.0024161 105.066772,33.7839613 67.6751819,33.7839613 C30.2835919,33.7839613 0.340741737,42.0024161 0.340741737,54.4419225 C0.340741737,66.881429 30.2835919,75.0998838 67.6751819,75.0998838 L67.6751819,75.0998838 Z M67.6751819,69.0998838 C50.6329745,69.0998838 34.6863725,67.2486173 22.9779105,64.0349798 C12.2395047,61.087595 6.34074174,57.259751 6.34074174,54.4419225 C6.34074174,51.6240941 12.2395047,47.7962501 22.9779105,44.8488653 C34.6863725,41.6352278 50.6329745,39.7839613 67.6751819,39.7839613 C84.7173894,39.7839613 100.663991,41.6352278 112.372453,44.8488653 C123.110859,47.7962501 129.009622,51.6240941 129.009622,54.4419225 C129.009622,56.2173942 126.484602,58.6275954 121.262019,60.9533273 C110.0683,65.9381391 89.8866369,69.0998838 67.6751819,69.0998838 L67.6751819,69.0998838 Z" fill="url(#radialGradient-2)"></path>
                    <path d="M79.5390651,61.6293926 C106.544525,38.1539042 123.562918,14.8546142 116.686818,6.94456627 C109.810719,-0.965481687 84.3696732,12.6446548 57.364213,36.1201433 C30.3587527,59.5956317 13.3403599,82.8949217 20.2164597,90.8049696 C27.0925595,98.7150176 52.5336049,85.1048811 79.5390651,61.6293926 L79.5390651,61.6293926 Z M75.602711,57.1011352 C63.4038031,67.705484 51.0291582,76.5279689 40.9783509,81.9048258 C36.1753894,84.4742548 32.0742558,86.1592799 28.9857462,86.8526006 C27.57422,87.1694655 26.4365701,87.2636627 25.62408,87.16222 C25.0907799,87.0956353 24.8406127,86.9789306 24.7447172,86.8686155 C24.6488217,86.7583003 24.5680693,86.4943255 24.5763537,85.9569487 C24.588975,85.1382477 24.8405857,84.024779 25.3508134,82.6710887 C26.4672242,79.7091279 28.7066182,75.8824164 31.9194848,71.4837924 C38.6428165,62.2791127 49.1016593,51.2527496 61.3005671,40.6484007 C73.499475,30.0440519 85.8741199,21.221567 95.9249272,15.8447101 C100.727889,13.2752811 104.829022,11.590256 107.917532,10.8969353 C109.329058,10.5800704 110.466708,10.4858732 111.279198,10.5873159 C111.812498,10.6539006 112.062665,10.7706053 112.158561,10.8809204 C112.254456,10.9912356 112.335209,11.2552104 112.326924,11.7925872 C112.314303,12.6112882 112.062692,13.7247569 111.552465,15.0784472 C110.436054,18.040408 108.19666,21.8671195 104.983793,26.2657435 C98.2604616,35.4704232 87.8016188,46.4967863 75.602711,57.1011352 L75.602711,57.1011352 Z" fill="url(#radialGradient-3)" transform="translate(68.451639, 48.874768) rotate(5.000000) translate(-68.451639, -48.874768) "></path>
                </g>
            </g>
            <path d="M263.904297,80.8359375 L250.798828,80.8359375 L247.855469,89 L243.601562,89 L255.546875,57.71875 L259.15625,57.71875 L271.123047,89 L266.890625,89 L263.904297,80.8359375 Z M252.044922,77.4414062 L262.679688,77.4414062 L257.351562,62.8105469 L252.044922,77.4414062 Z M284.550781,75.0566406 C281.013003,74.0397085 278.438485,72.7900465 276.827148,71.3076172 C275.215812,69.8251879 274.410156,67.9954536 274.410156,65.8183594 C274.410156,63.3548054 275.394847,61.3173909 277.364258,59.7060547 C279.333669,58.0947185 281.893864,57.2890625 285.044922,57.2890625 C287.19337,57.2890625 289.109041,57.7044229 290.791992,58.5351562 C292.474943,59.3658896 293.778316,60.5117114 294.702148,61.9726562 C295.625981,63.4336011 296.087891,65.0305903 296.087891,66.7636719 L291.941406,66.7636719 C291.941406,64.8730374 291.33985,63.3870497 290.136719,62.3056641 C288.933588,61.2242784 287.236339,60.6835938 285.044922,60.6835938 C283.011058,60.6835938 281.42481,61.1311804 280.286133,62.0263672 C279.147455,62.921554 278.578125,64.1640546 278.578125,65.7539062 C278.578125,67.0286522 279.11881,68.1064409 280.200195,68.9873047 C281.281581,69.8681685 283.122057,70.6738245 285.72168,71.4042969 C288.321302,72.1347693 290.355136,72.9404253 291.823242,73.8212891 C293.291348,74.7021528 294.379879,75.7298118 295.088867,76.9042969 C295.797855,78.0787819 296.152344,79.4609296 296.152344,81.0507812 C296.152344,83.5859502 295.164072,85.6162033 293.1875,87.1416016 C291.210928,88.6669998 288.568376,89.4296875 285.259766,89.4296875 C283.111317,89.4296875 281.106129,89.0179078 279.244141,88.1943359 C277.382152,87.3707641 275.946294,86.2428457 274.936523,84.8105469 C273.926753,83.378248 273.421875,81.7526133 273.421875,79.9335938 L277.568359,79.9335938 C277.568359,81.8242282 278.266595,83.3173773 279.663086,84.4130859 C281.059577,85.5087945 282.925119,86.0566406 285.259766,86.0566406 C287.43686,86.0566406 289.105463,85.6126346 290.265625,84.7246094 C291.425787,83.8365841 292.005859,82.6263097 292.005859,81.09375 C292.005859,79.5611903 291.468755,78.3759808 290.394531,77.5380859 C289.320307,76.7001911 287.37241,75.873051 284.550781,75.0566406 L284.550781,75.0566406 Z M305.583984,85.6269531 L320.408203,85.6269531 L320.408203,89 L301.4375,89 L301.4375,57.71875 L305.583984,57.71875 L305.583984,85.6269531 Z M359.015625,79.0742188 C358.628904,82.382829 357.407888,84.9358634 355.352539,86.7333984 C353.29719,88.5309335 350.565121,89.4296875 347.15625,89.4296875 C343.460919,89.4296875 340.499686,88.104831 338.272461,85.4550781 C336.045236,82.8053253 334.931641,79.2604389 334.931641,74.8203125 L334.931641,71.8125 C334.931641,68.9049334 335.450841,66.3483183 336.489258,64.1425781 C337.527674,61.9368379 338.999339,60.24317 340.904297,59.0615234 C342.809254,57.8798769 345.014961,57.2890625 347.521484,57.2890625 C350.844418,57.2890625 353.508454,58.2164621 355.513672,60.0712891 C357.51889,61.926116 358.686196,64.4934732 359.015625,67.7734375 L354.869141,67.7734375 C354.511066,65.2812375 353.734055,63.4765681 352.538086,62.359375 C351.342116,61.2421819 349.669933,60.6835938 347.521484,60.6835938 C344.886055,60.6835938 342.819994,61.6575423 341.323242,63.6054688 C339.82649,65.5533952 339.078125,68.3248518 339.078125,71.9199219 L339.078125,74.9492188 C339.078125,78.343767 339.787102,81.0436098 341.205078,83.0488281 C342.623054,85.0540465 344.606758,86.0566406 347.15625,86.0566406 C349.447928,86.0566406 351.206049,85.5374401 352.430664,84.4990234 C353.65528,83.4606068 354.468097,81.6523566 354.869141,79.0742188 L359.015625,79.0742188 Z M362.96875,77.1621094 C362.96875,74.8847542 363.416337,72.8365976 364.311523,71.0175781 C365.20671,69.1985586 366.452791,67.7949268 368.049805,66.8066406 C369.646818,65.8183544 371.469391,65.3242188 373.517578,65.3242188 C376.682959,65.3242188 379.243154,66.4199109 381.198242,68.6113281 C383.15333,70.8027453 384.130859,73.7174297 384.130859,77.3554688 L384.130859,77.6347656 C384.130859,79.8977978 383.697595,81.9280509 382.831055,83.7255859 C381.964514,85.523121 380.725594,86.9231721 379.114258,87.9257812 C377.502922,88.9283904 375.651703,89.4296875 373.560547,89.4296875 C370.409489,89.4296875 367.856455,88.3339953 365.901367,86.1425781 C363.946279,83.9511609 362.96875,81.0507993 362.96875,77.4414062 L362.96875,77.1621094 Z M366.964844,77.6347656 C366.964844,80.2129035 367.56282,82.2825443 368.758789,83.84375 C369.954759,85.4049557 371.555329,86.1855469 373.560547,86.1855469 C375.580088,86.1855469 377.184239,85.3942136 378.373047,83.8115234 C379.561855,82.2288332 380.15625,80.012384 380.15625,77.1621094 C380.15625,74.6126175 379.551113,72.5465574 378.34082,70.9638672 C377.130528,69.381177 375.522796,68.5898438 373.517578,68.5898438 C371.555329,68.5898438 369.972662,69.3704349 368.769531,70.9316406 C367.5664,72.4928463 366.964844,74.727199 366.964844,77.6347656 L366.964844,77.6347656 Z M392.875,65.7539062 L393.003906,68.6757812 C394.779957,66.4413951 397.100246,65.3242188 399.964844,65.3242188 C404.877629,65.3242188 407.355469,68.0956754 407.398438,73.6386719 L407.398438,89 L403.423828,89 L403.423828,73.6171875 C403.409505,71.9413979 403.026371,70.702478 402.274414,69.9003906 C401.522457,69.0983033 400.35157,68.6972656 398.761719,68.6972656 C397.47265,68.6972656 396.341151,69.0410122 395.367188,69.7285156 C394.393224,70.4160191 393.634117,71.3183538 393.089844,72.4355469 L393.089844,89 L389.115234,89 L389.115234,65.7539062 L392.875,65.7539062 Z M417.152344,65.7539062 L417.28125,68.6757812 C419.057301,66.4413951 421.37759,65.3242188 424.242188,65.3242188 C429.154972,65.3242188 431.632812,68.0956754 431.675781,73.6386719 L431.675781,89 L427.701172,89 L427.701172,73.6171875 C427.686849,71.9413979 427.303715,70.702478 426.551758,69.9003906 C425.799801,69.0983033 424.628914,68.6972656 423.039062,68.6972656 C421.749994,68.6972656 420.618494,69.0410122 419.644531,69.7285156 C418.670568,70.4160191 417.911461,71.3183538 417.367188,72.4355469 L417.367188,89 L413.392578,89 L413.392578,65.7539062 L417.152344,65.7539062 Z M447.316406,89.4296875 C444.165349,89.4296875 441.601572,88.3948671 439.625,86.3251953 C437.648428,84.2555235 436.660156,81.4876475 436.660156,78.0214844 L436.660156,77.2910156 C436.660156,74.9850145 437.100582,72.9261158 437.981445,71.1142578 C438.862309,69.3023998 440.094068,67.8844452 441.676758,66.8603516 C443.259448,65.8362579 444.9746,65.3242188 446.822266,65.3242188 C449.844416,65.3242188 452.193351,66.3196515 453.869141,68.3105469 C455.54493,70.3014422 456.382812,73.1516742 456.382812,76.8613281 L456.382812,78.515625 L440.634766,78.515625 C440.692058,80.8073031 441.361647,82.6585216 442.643555,84.0693359 C443.925462,85.4801503 445.554678,86.1855469 447.53125,86.1855469 C448.934903,86.1855469 450.123693,85.8990914 451.097656,85.3261719 C452.071619,84.7532523 452.923824,83.9941454 453.654297,83.0488281 L456.082031,84.9394531 C454.134105,87.9329577 451.212259,89.4296875 447.316406,89.4296875 L447.316406,89.4296875 Z M446.822266,68.5898438 C445.218091,68.5898438 443.87175,69.1734968 442.783203,70.3408203 C441.694656,71.5081439 441.021486,73.1445207 440.763672,75.25 L452.408203,75.25 L452.408203,74.9492188 C452.293619,72.9296774 451.749354,71.3649144 450.775391,70.2548828 C449.801427,69.1448512 448.483732,68.5898438 446.822266,68.5898438 L446.822266,68.5898438 Z M470.304688,86.1855469 C471.722663,86.1855469 472.961583,85.7558637 474.021484,84.8964844 C475.081386,84.0371051 475.668619,82.9628971 475.783203,81.6738281 L479.542969,81.6738281 C479.471354,83.005866 479.013025,84.2734315 478.167969,85.4765625 C477.322912,86.6796935 476.194994,87.6393193 474.78418,88.3554688 C473.373365,89.0716182 471.880216,89.4296875 470.304688,89.4296875 C467.139307,89.4296875 464.62208,88.373383 462.75293,86.2607422 C460.88378,84.1481014 459.949219,81.2584819 459.949219,77.5917969 L459.949219,76.9257812 C459.949219,74.6627491 460.364579,72.6503994 461.195312,70.8886719 C462.026046,69.1269443 463.218417,67.7591195 464.772461,66.7851562 C466.326505,65.811193 468.163401,65.3242188 470.283203,65.3242188 C472.889987,65.3242188 475.056306,66.1048099 476.782227,67.6660156 C478.508147,69.2272213 479.428385,71.2538938 479.542969,73.7460938 L475.783203,73.7460938 C475.668619,72.24218 475.099289,71.0068408 474.075195,70.0400391 C473.051102,69.0732374 471.787117,68.5898438 470.283203,68.5898438 C468.263662,68.5898438 466.698899,69.3167245 465.588867,70.7705078 C464.478836,72.2242911 463.923828,74.3261581 463.923828,77.0761719 L463.923828,77.828125 C463.923828,80.5065238 464.475255,82.5690032 465.578125,84.015625 C466.680995,85.4622468 468.2565,86.1855469 470.304688,86.1855469 L470.304688,86.1855469 Z M489.404297,60.125 L489.404297,65.7539062 L493.744141,65.7539062 L493.744141,68.8261719 L489.404297,68.8261719 L489.404297,83.2421875 C489.404297,84.1731817 489.597654,84.8714169 489.984375,85.3369141 C490.371096,85.8024112 491.029943,86.0351562 491.960938,86.0351562 C492.419273,86.0351562 493.049475,85.9492196 493.851562,85.7773438 L493.851562,89 C492.805984,89.2864598 491.789067,89.4296875 490.800781,89.4296875 C489.024731,89.4296875 487.685551,88.8925835 486.783203,87.8183594 C485.880855,86.7441353 485.429688,85.2187599 485.429688,83.2421875 L485.429688,68.8261719 L481.197266,68.8261719 L481.197266,65.7539062 L485.429688,65.7539062 L485.429688,60.125 L489.404297,60.125 Z" id="ASL-Connect" fill="#FFFFFF" sketch:type="MSShapeGroup"></path>
        </g>
    </g>
</svg>