<?xml version="1.0" encoding="UTF-8" standalone="no"?>
<svg width="501px" height="126px" viewBox="0 0 501 126" version="1.1" xmlns="http://www.w3.org/2000/svg" xmlns:xlink="http://www.w3.org/1999/xlink" xmlns:sketch="http://www.bohemiancoding.com/sketch/ns">
    <!-- Generator: Sketch 3.4.2 (15855) - http://www.bohemiancoding.com/sketch -->
    <title>aslconnect</title>
    <desc>Created with Sketch.</desc>
    <defs>
        <radialGradient cx="64.5440161%" cy="9.84285392%" fx="64.5440161%" fy="9.84285392%" r="24.2400216%" id="radialGradient-1">
            <stop stop-color="#FFFFFFE2FFFFFFE2FFFFFFE2" stop-opacity="0" offset="0%"></stop>
            <stop stop-color="#000000" stop-opacity="0" offset="40.2327977%"></stop>
            <stop stop-color="#5C5C5C" stop-opacity="0" offset="73.0260151%"></stop>
            <stop stop-color="#FFFFFF" offset="100%"></stop>
        </radialGradient>
        <radialGradient cx="45.5289096%" cy="69.0173902%" fx="45.5289096%" fy="69.0173902%" r="18.2053426%" id="radialGradient-2">
            <stop stop-color="#000000" stop-opacity="0" offset="0%"></stop>
            <stop stop-color="#5C5C5C" stop-opacity="0" offset="36.1168686%"></stop>
            <stop stop-color="#FFFFFF" offset="100%"></stop>
        </radialGradient>
    </defs>
    <g id="Page-1" stroke="none" stroke-width="1" fill="none" fill-rule="evenodd" sketch:type="MSPage">
        <g id="Artboard-1" sketch:type="MSArtboardGroup" transform="translate(-27.000000, -11.000000)">
            <g id="aslconnect" sketch:type="MSLayerGroup" transform="translate(27.000000, 6.000000)">
                <g transform="translate(0.000000, 5.000000)" id="Shape" fill="#FFFFFF" sketch:type="MSShapeGroup">
                    <path d="M500.5,63.5 L457.664642,126 L0.5,126 L0.5,0 L457.664641,0 L500.5,63.5 Z"></path>
                </g>
                <g transform="translate(19.000000, 0.000000)" id="Shape" sketch:type="MSShapeGroup">
                    <g transform="translate(78.432036, 65.801013) rotate(-345.000000) translate(-78.432036, -65.801013) translate(10.432036, 16.801013)">
                        <path d="M67.6751819,75.0998838 C90.6547359,75.0998838 111.619313,71.8154845 123.702867,66.4344096 C130.873937,63.2409731 135.009622,59.2933477 135.009622,54.4419225 C135.009622,42.0024161 105.066772,33.7839613 67.6751819,33.7839613 C30.2835919,33.7839613 0.340741737,42.0024161 0.340741737,54.4419225 C0.340741737,66.881429 30.2835919,75.0998838 67.6751819,75.0998838 L67.6751819,75.0998838 Z M67.6751819,69.0998838 C50.6329745,69.0998838 34.6863725,67.2486173 22.9779105,64.0349798 C12.2395047,61.087595 6.34074174,57.259751 6.34074174,54.4419225 C6.34074174,51.6240941 12.2395047,47.7962501 22.9779105,44.8488653 C34.6863725,41.6352278 50.6329745,39.7839613 67.6751819,39.7839613 C84.7173894,39.7839613 100.663991,41.6352278 112.372453,44.8488653 C123.110859,47.7962501 129.009622,51.6240941 129.009622,54.4419225 C129.009622,56.2173942 126.484602,58.6275954 121.262019,60.9533273 C110.0683,65.9381391 89.8866369,69.0998838 67.6751819,69.0998838 L67.6751819,69.0998838 Z" stroke="#979797" fill="url(#radialGradient-1)"></path>
                        <path d="M79.5390651,61.6293926 C106.544525,38.1539042 123.562918,14.8546142 116.686818,6.94456627 C109.810719,-0.965481687 84.3696732,12.6446548 57.364213,36.1201433 C30.3587527,59.5956317 13.3403599,82.8949217 20.2164597,90.8049696 C27.0925595,98.7150176 52.5336049,85.1048811 79.5390651,61.6293926 L79.5390651,61.6293926 Z M75.602711,57.1011352 C63.4038031,67.705484 51.0291582,76.5279689 40.9783509,81.9048258 C36.1753894,84.4742548 32.0742558,86.1592799 28.9857462,86.8526006 C27.57422,87.1694655 26.4365701,87.2636627 25.62408,87.16222 C25.0907799,87.0956353 24.8406127,86.9789306 24.7447172,86.8686155 C24.6488217,86.7583003 24.5680693,86.4943255 24.5763537,85.9569487 C24.588975,85.1382477 24.8405857,84.024779 25.3508134,82.6710887 C26.4672242,79.7091279 28.7066182,75.8824164 31.9194848,71.4837924 C38.6428165,62.2791127 49.1016593,51.2527496 61.3005671,40.6484007 C73.499475,30.0440519 85.8741199,21.221567 95.9249272,15.8447101 C100.727889,13.2752811 104.829022,11.590256 107.917532,10.8969353 C109.329058,10.5800704 110.466708,10.4858732 111.279198,10.5873159 C111.812498,10.6539006 112.062665,10.7706053 112.158561,10.8809204 C112.254456,10.9912356 112.335209,11.2552104 112.326924,11.7925872 C112.314303,12.6112882 112.062692,13.7247569 111.552465,15.0784472 C110.436054,18.040408 108.19666,21.8671195 104.983793,26.2657435 C98.2604616,35.4704232 87.8016188,46.4967863 75.602711,57.1011352 L75.602711,57.1011352 Z" stroke="#000000" fill="url(#radialGradient-2)" transform="translate(68.451639, 48.874768) rotate(5.000000) translate(-68.451639, -48.874768) "></path>
                    </g>
                </g>
                <path d="M203.904297,74.8359375 L190.798828,74.8359375 L187.855469,83 L183.601562,83 L195.546875,51.71875 L199.15625,51.71875 L211.123047,83 L206.890625,83 L203.904297,74.8359375 Z M192.044922,71.4414062 L202.679688,71.4414062 L197.351562,56.8105469 L192.044922,71.4414062 Z M224.550781,69.0566406 C221.013003,68.0397085 218.438485,66.7900465 216.827148,65.3076172 C215.215812,63.8251879 214.410156,61.9954536 214.410156,59.8183594 C214.410156,57.3548054 215.394847,55.3173909 217.364258,53.7060547 C219.333669,52.0947185 221.893864,51.2890625 225.044922,51.2890625 C227.19337,51.2890625 229.109041,51.7044229 230.791992,52.5351562 C232.474943,53.3658896 233.778316,54.5117114 234.702148,55.9726562 C235.625981,57.4336011 236.087891,59.0305903 236.087891,60.7636719 L231.941406,60.7636719 C231.941406,58.8730374 231.33985,57.3870497 230.136719,56.3056641 C228.933588,55.2242784 227.236339,54.6835938 225.044922,54.6835938 C223.011058,54.6835938 221.42481,55.1311804 220.286133,56.0263672 C219.147455,56.921554 218.578125,58.1640546 218.578125,59.7539062 C218.578125,61.0286522 219.11881,62.1064409 220.200195,62.9873047 C221.281581,63.8681685 223.122057,64.6738245 225.72168,65.4042969 C228.321302,66.1347693 230.355136,66.9404253 231.823242,67.8212891 C233.291348,68.7021528 234.379879,69.7298118 235.088867,70.9042969 C235.797855,72.0787819 236.152344,73.4609296 236.152344,75.0507812 C236.152344,77.5859502 235.164072,79.6162033 233.1875,81.1416016 C231.210928,82.6669998 228.568376,83.4296875 225.259766,83.4296875 C223.111317,83.4296875 221.106129,83.0179078 219.244141,82.1943359 C217.382152,81.3707641 215.946294,80.2428457 214.936523,78.8105469 C213.926753,77.378248 213.421875,75.7526133 213.421875,73.9335938 L217.568359,73.9335938 C217.568359,75.8242282 218.266595,77.3173773 219.663086,78.4130859 C221.059577,79.5087945 222.925119,80.0566406 225.259766,80.0566406 C227.43686,80.0566406 229.105463,79.6126346 230.265625,78.7246094 C231.425787,77.8365841 232.005859,76.6263097 232.005859,75.09375 C232.005859,73.5611903 231.468755,72.3759808 230.394531,71.5380859 C229.320307,70.7001911 227.37241,69.873051 224.550781,69.0566406 L224.550781,69.0566406 Z M245.583984,79.6269531 L260.408203,79.6269531 L260.408203,83 L241.4375,83 L241.4375,51.71875 L245.583984,51.71875 L245.583984,79.6269531 Z M299.015625,73.0742188 C298.628904,76.382829 297.407888,78.9358634 295.352539,80.7333984 C293.29719,82.5309335 290.565121,83.4296875 287.15625,83.4296875 C283.460919,83.4296875 280.499686,82.104831 278.272461,79.4550781 C276.045236,76.8053253 274.931641,73.2604389 274.931641,68.8203125 L274.931641,65.8125 C274.931641,62.9049334 275.450841,60.3483183 276.489258,58.1425781 C277.527674,55.9368379 278.999339,54.24317 280.904297,53.0615234 C282.809254,51.8798769 285.014961,51.2890625 287.521484,51.2890625 C290.844418,51.2890625 293.508454,52.2164621 295.513672,54.0712891 C297.51889,55.926116 298.686196,58.4934732 299.015625,61.7734375 L294.869141,61.7734375 C294.511066,59.2812375 293.734055,57.4765681 292.538086,56.359375 C291.342116,55.2421819 289.669933,54.6835938 287.521484,54.6835938 C284.886055,54.6835938 282.819994,55.6575423 281.323242,57.6054688 C279.82649,59.5533952 279.078125,62.3248518 279.078125,65.9199219 L279.078125,68.9492188 C279.078125,72.343767 279.787102,75.0436098 281.205078,77.0488281 C282.623054,79.0540465 284.606758,80.0566406 287.15625,80.0566406 C289.447928,80.0566406 291.206049,79.5374401 292.430664,78.4990234 C293.65528,77.4606068 294.468097,75.6523566 294.869141,73.0742188 L299.015625,73.0742188 Z M302.96875,71.1621094 C302.96875,68.8847542 303.416337,66.8365976 304.311523,65.0175781 C305.20671,63.1985586 306.452791,61.7949268 308.049805,60.8066406 C309.646818,59.8183544 311.469391,59.3242188 313.517578,59.3242188 C316.682959,59.3242188 319.243154,60.4199109 321.198242,62.6113281 C323.15333,64.8027453 324.130859,67.7174297 324.130859,71.3554688 L324.130859,71.6347656 C324.130859,73.8977978 323.697595,75.9280509 322.831055,77.7255859 C321.964514,79.523121 320.725594,80.9231721 319.114258,81.9257812 C317.502922,82.9283904 315.651703,83.4296875 313.560547,83.4296875 C310.409489,83.4296875 307.856455,82.3339953 305.901367,80.1425781 C303.946279,77.9511609 302.96875,75.0507993 302.96875,71.4414062 L302.96875,71.1621094 Z M306.964844,71.6347656 C306.964844,74.2129035 307.56282,76.2825443 308.758789,77.84375 C309.954759,79.4049557 311.555329,80.1855469 313.560547,80.1855469 C315.580088,80.1855469 317.184239,79.3942136 318.373047,77.8115234 C319.561855,76.2288332 320.15625,74.012384 320.15625,71.1621094 C320.15625,68.6126175 319.551113,66.5465574 318.34082,64.9638672 C317.130528,63.381177 315.522796,62.5898438 313.517578,62.5898438 C311.555329,62.5898438 309.972662,63.3704349 308.769531,64.9316406 C307.5664,66.4928463 306.964844,68.727199 306.964844,71.6347656 L306.964844,71.6347656 Z M332.875,59.7539062 L333.003906,62.6757812 C334.779957,60.4413951 337.100246,59.3242188 339.964844,59.3242188 C344.877629,59.3242188 347.355469,62.0956754 347.398438,67.6386719 L347.398438,83 L343.423828,83 L343.423828,67.6171875 C343.409505,65.9413979 343.026371,64.702478 342.274414,63.9003906 C341.522457,63.0983033 340.35157,62.6972656 338.761719,62.6972656 C337.47265,62.6972656 336.341151,63.0410122 335.367188,63.7285156 C334.393224,64.4160191 333.634117,65.3183538 333.089844,66.4355469 L333.089844,83 L329.115234,83 L329.115234,59.7539062 L332.875,59.7539062 Z M357.152344,59.7539062 L357.28125,62.6757812 C359.057301,60.4413951 361.37759,59.3242188 364.242188,59.3242188 C369.154972,59.3242188 371.632812,62.0956754 371.675781,67.6386719 L371.675781,83 L367.701172,83 L367.701172,67.6171875 C367.686849,65.9413979 367.303715,64.702478 366.551758,63.9003906 C365.799801,63.0983033 364.628914,62.6972656 363.039062,62.6972656 C361.749994,62.6972656 360.618494,63.0410122 359.644531,63.7285156 C358.670568,64.4160191 357.911461,65.3183538 357.367188,66.4355469 L357.367188,83 L353.392578,83 L353.392578,59.7539062 L357.152344,59.7539062 Z M387.316406,83.4296875 C384.165349,83.4296875 381.601572,82.3948671 379.625,80.3251953 C377.648428,78.2555235 376.660156,75.4876475 376.660156,72.0214844 L376.660156,71.2910156 C376.660156,68.9850145 377.100582,66.9261158 377.981445,65.1142578 C378.862309,63.3023998 380.094068,61.8844452 381.676758,60.8603516 C383.259448,59.8362579 384.9746,59.3242188 386.822266,59.3242188 C389.844416,59.3242188 392.193351,60.3196515 393.869141,62.3105469 C395.54493,64.3014422 396.382812,67.1516742 396.382812,70.8613281 L396.382812,72.515625 L380.634766,72.515625 C380.692058,74.8073031 381.361647,76.6585216 382.643555,78.0693359 C383.925462,79.4801503 385.554678,80.1855469 387.53125,80.1855469 C388.934903,80.1855469 390.123693,79.8990914 391.097656,79.3261719 C392.071619,78.7532523 392.923824,77.9941454 393.654297,77.0488281 L396.082031,78.9394531 C394.134105,81.9329577 391.212259,83.4296875 387.316406,83.4296875 L387.316406,83.4296875 Z M386.822266,62.5898438 C385.218091,62.5898438 383.87175,63.1734968 382.783203,64.3408203 C381.694656,65.5081439 381.021486,67.1445207 380.763672,69.25 L392.408203,69.25 L392.408203,68.9492188 C392.293619,66.9296774 391.749354,65.3649144 390.775391,64.2548828 C389.801427,63.1448512 388.483732,62.5898438 386.822266,62.5898438 L386.822266,62.5898438 Z M410.304688,80.1855469 C411.722663,80.1855469 412.961583,79.7558637 414.021484,78.8964844 C415.081386,78.0371051 415.668619,76.9628971 415.783203,75.6738281 L419.542969,75.6738281 C419.471354,77.005866 419.013025,78.2734315 418.167969,79.4765625 C417.322912,80.6796935 416.194994,81.6393193 414.78418,82.3554688 C413.373365,83.0716182 411.880216,83.4296875 410.304688,83.4296875 C407.139307,83.4296875 404.62208,82.373383 402.75293,80.2607422 C400.88378,78.1481014 399.949219,75.2584819 399.949219,71.5917969 L399.949219,70.9257812 C399.949219,68.6627491 400.364579,66.6503994 401.195312,64.8886719 C402.026046,63.1269443 403.218417,61.7591195 404.772461,60.7851562 C406.326505,59.811193 408.163401,59.3242188 410.283203,59.3242188 C412.889987,59.3242188 415.056306,60.1048099 416.782227,61.6660156 C418.508147,63.2272213 419.428385,65.2538938 419.542969,67.7460938 L415.783203,67.7460938 C415.668619,66.24218 415.099289,65.0068408 414.075195,64.0400391 C413.051102,63.0732374 411.787117,62.5898438 410.283203,62.5898438 C408.263662,62.5898438 406.698899,63.3167245 405.588867,64.7705078 C404.478836,66.2242911 403.923828,68.3261581 403.923828,71.0761719 L403.923828,71.828125 C403.923828,74.5065238 404.475255,76.5690032 405.578125,78.015625 C406.680995,79.4622468 408.2565,80.1855469 410.304688,80.1855469 L410.304688,80.1855469 Z M429.404297,54.125 L429.404297,59.7539062 L433.744141,59.7539062 L433.744141,62.8261719 L429.404297,62.8261719 L429.404297,77.2421875 C429.404297,78.1731817 429.597654,78.8714169 429.984375,79.3369141 C430.371096,79.8024112 431.029943,80.0351562 431.960938,80.0351562 C432.419273,80.0351562 433.049475,79.9492196 433.851562,79.7773438 L433.851562,83 C432.805984,83.2864598 431.789067,83.4296875 430.800781,83.4296875 C429.024731,83.4296875 427.685551,82.8925835 426.783203,81.8183594 C425.880855,80.7441353 425.429688,79.2187599 425.429688,77.2421875 L425.429688,62.8261719 L421.197266,62.8261719 L421.197266,59.7539062 L425.429688,59.7539062 L425.429688,54.125 L429.404297,54.125 Z" id="ASL-Connect" fill="#383838" sketch:type="MSShapeGroup"></path>
            </g>
        </g>
    </g>
</svg>