<?xml version="1.0" encoding="UTF-8" standalone="no"?>
<svg width="278px" height="127px" viewBox="0 0 278 127" version="1.1" xmlns="http://www.w3.org/2000/svg" xmlns:xlink="http://www.w3.org/1999/xlink" xmlns:sketch="http://www.bohemiancoding.com/sketch/ns">
    <!-- Generator: Sketch 3.4.2 (15855) - http://www.bohemiancoding.com/sketch -->
    <title>logo</title>
    <desc>Created with Sketch.</desc>
    <defs></defs>
    <g id="Page-1" stroke="none" stroke-width="1" fill="none" fill-rule="evenodd" sketch:type="MSPage">
        <g id="logo" sketch:type="MSLayerGroup">
            <g id="Layer_1" sketch:type="MSShapeGroup">
                <path d="M278,63.5 L234.886441,127 L0.588983051,127 L0.588983051,0 L235.122034,0 L278,63.5 Z" id="Shape" fill="#00457C"></path>
                <g id="Group" transform="translate(28.271186, 23.518519)">
                    <path d="M12.8398305,69.4972222 C12.0152542,69.6148148 11.6618644,69.85 11.5440678,70.437963 C11.4262712,70.9083333 11.4262712,71.4962963 11.4262712,72.6722222 L11.4262712,74.0833333 C11.4262712,75.7296296 11.190678,77.0231481 10.3661017,77.9638889 C9.65932203,78.6694444 8.71694915,79.0222222 7.65677966,79.0222222 C6.71440678,79.0222222 5.88983051,78.787037 5.18305085,78.3166667 C4.35847458,77.6111111 3.88728814,76.5527778 3.88728814,74.7888889 L3.88728814,71.1435185 C3.88728814,69.7324074 3.76949153,69.6148148 2.59152542,69.6148148 L2.59152542,69.1444444 L6.83220339,69.1444444 L6.83220339,69.6148148 C5.7720339,69.7324074 5.65423729,69.85 5.65423729,71.1435185 L5.65423729,74.4361111 C5.65423729,76.787963 6.47881356,78.0814815 8.1279661,78.0814815 C10.0127119,78.0814815 10.7194915,76.5527778 10.7194915,74.0833333 L10.7194915,72.6722222 C10.7194915,71.4962963 10.7194915,70.9083333 10.6016949,70.437963 C10.4838983,69.85 10.2483051,69.6148148 9.18813559,69.6148148 L9.18813559,69.1444444 L12.8398305,69.1444444 L12.8398305,69.4972222 L12.8398305,69.4972222 Z" id="Shape" fill="#FFFFFF"></path>
                    <path d="M35.3389831,69.4972222 C34.5144068,69.4972222 34.2788136,69.7324074 34.1610169,70.437963 C34.0432203,70.9083333 34.0432203,71.6138889 34.0432203,72.9074074 L34.0432203,78.9046296 L33.4542373,78.9046296 L27.3288136,71.2611111 L27.3288136,71.2611111 L27.3288136,74.7888889 C27.3288136,76.0824074 27.4466102,76.787963 27.4466102,77.2583333 C27.5644068,77.9638889 27.8,78.1990741 28.8601695,78.3166667 L28.8601695,78.787037 L25.3262712,78.787037 L25.3262712,78.3166667 C26.1508475,78.3166667 26.5042373,78.0814815 26.5042373,77.3759259 C26.6220339,76.9055556 26.6220339,76.2 26.6220339,74.9064815 L26.6220339,71.7314815 C26.6220339,70.6731481 26.6220339,70.5555556 26.3864407,70.2027778 C26.1508475,69.85 25.7974576,69.7324074 25.090678,69.6148148 L25.090678,69.1444444 L27.5644068,69.1444444 L33.3364407,76.0824074 L33.3364407,76.0824074 L33.3364407,72.9074074 C33.3364407,71.6138889 33.2186441,70.9083333 33.2186441,70.437963 C33.1008475,69.7324074 32.8652542,69.4972222 31.8050847,69.4972222 L31.8050847,69.0268519 L35.3389831,69.0268519 L35.3389831,69.4972222 L35.3389831,69.4972222 Z" id="Shape" fill="#FFFFFF"></path>
                    <path d="M47.9432203,78.787037 L47.9432203,78.3166667 C49.1211864,78.1990741 49.2389831,78.0814815 49.2389831,76.787963 L49.2389831,70.9083333 C49.2389831,69.6148148 49.1211864,69.4972222 47.9432203,69.3796296 L47.9432203,68.9092593 L52.1838983,68.9092593 L52.1838983,69.3796296 C51.0059322,69.4972222 50.8881356,69.6148148 50.8881356,70.9083333 L50.8881356,76.787963 C50.8881356,78.0814815 51.0059322,78.1990741 52.1838983,78.3166667 L52.1838983,78.787037 L47.9432203,78.787037 L47.9432203,78.787037 Z" id="Shape" fill="#FFFFFF"></path>
                    <path d="M74.6830508,69.4972222 C73.740678,69.6148148 73.5050847,69.7324074 72.9161017,71.1435185 C72.4449153,72.2018519 71.0313559,75.8472222 69.9711864,78.9046296 L69.3822034,78.9046296 C68.4398305,76.2 67.0262712,72.6722222 66.3194915,70.9083333 C65.8483051,69.7324074 65.6127119,69.6148148 64.7881356,69.4972222 L64.7881356,69.0268519 L68.9110169,69.0268519 L68.9110169,69.4972222 C67.8508475,69.6148148 67.8508475,69.7324074 68.0864407,70.437963 C68.4398305,71.6138889 69.6177966,74.5537037 70.3245763,76.4351852 L70.3245763,76.4351852 C71.1491525,74.3185185 71.8559322,72.2018519 72.3271186,70.7907407 C72.6805085,69.85 72.5627119,69.6148148 71.3847458,69.4972222 L71.3847458,69.0268519 L74.8008475,69.0268519 L74.8008475,69.4972222 L74.6830508,69.4972222 Z" id="Shape" fill="#FFFFFF"></path>
                    <path d="M94.8262712,76.3175926 C94.7084746,76.9055556 94.4728814,78.3166667 94.3550847,78.787037 L87.0516949,78.787037 L87.0516949,78.3166667 C88.3474576,78.1990741 88.4652542,78.0814815 88.4652542,76.787963 L88.4652542,70.9083333 C88.4652542,69.6148148 88.3474576,69.4972222 87.2872881,69.3796296 L87.2872881,68.9092593 L94.1194915,68.9092593 C94.1194915,69.262037 94.2372881,70.2027778 94.2372881,71.1435185 L93.7661017,71.2611111 C93.6483051,70.6731481 93.4127119,70.2027778 93.1771186,69.9675926 C92.9415254,69.6148148 92.5881356,69.6148148 91.6457627,69.6148148 L90.7033898,69.6148148 C90.2322034,69.6148148 90.1144068,69.6148148 90.1144068,70.0851852 L90.1144068,73.3777778 L91.2923729,73.3777778 C92.5881356,73.3777778 92.7059322,73.2601852 92.9415254,72.2018519 L93.4127119,72.2018519 L93.4127119,75.2592593 L92.9415254,75.2592593 C92.7059322,74.2009259 92.5881356,74.0833333 91.2923729,74.0833333 L90.1144068,74.0833333 L90.1144068,76.787963 C90.1144068,77.4935185 90.2322034,77.8462963 90.4677966,78.0814815 C90.7033898,78.1990741 91.2923729,78.1990741 91.8813559,78.1990741 C92.8237288,78.1990741 93.2949153,78.0814815 93.5305085,77.7287037 C93.7661017,77.3759259 94.1194915,76.9055556 94.3550847,76.3175926 L94.8262712,76.3175926 L94.8262712,76.3175926 Z" id="Shape" fill="#FFFFFF"></path>
                    <path d="M116.265254,78.9046296 L115.794068,78.9046296 C114.262712,78.787037 113.673729,78.4342593 112.966949,77.4935185 C112.495763,76.787963 112.142373,75.9648148 111.671186,75.2592593 C111.435593,74.7888889 111.2,74.6712963 110.611017,74.6712963 L110.257627,74.6712963 L110.257627,76.9055556 C110.257627,78.1990741 110.375424,78.3166667 111.55339,78.4342593 L111.55339,78.787037 L107.312712,78.787037 L107.312712,78.3166667 C108.490678,78.1990741 108.608475,78.0814815 108.608475,76.787963 L108.608475,70.9083333 C108.608475,69.7324074 108.490678,69.6148148 107.430508,69.4972222 L107.430508,69.0268519 L111.317797,69.0268519 C112.495763,69.0268519 113.320339,69.1444444 113.791525,69.6148148 C114.380508,69.9675926 114.733898,70.6731481 114.733898,71.6138889 C114.733898,72.9074074 113.909322,73.612963 112.849153,74.0833333 C113.084746,74.5537037 113.673729,75.4944444 114.144915,76.2 C114.616102,77.0231481 114.969492,77.4935185 115.322881,77.8462963 C115.676271,78.1990741 115.911864,78.4342593 116.265254,78.5518519 L116.265254,78.9046296 L116.265254,78.9046296 Z M110.728814,73.9657407 C111.435593,73.9657407 111.90678,73.8481481 112.260169,73.612963 C112.731356,73.1425926 112.966949,72.5546296 112.966949,71.8490741 C112.966949,70.2027778 112.024576,69.6148148 111.082203,69.6148148 C110.728814,69.6148148 110.49322,69.7324074 110.375424,69.7324074 C110.257627,69.85 110.257627,69.9675926 110.257627,70.3203704 L110.257627,73.9657407 L110.728814,73.9657407 L110.728814,73.9657407 Z" id="Shape" fill="#FFFFFF"></path>
                    <path d="M133.816949,71.3787037 C133.581356,70.437963 132.992373,69.3796296 131.814407,69.3796296 C130.872034,69.3796296 130.283051,70.0851852 130.283051,70.9083333 C130.283051,71.8490741 130.872034,72.3194444 132.167797,73.025 C133.581356,73.7305556 134.759322,74.5537037 134.759322,76.0824074 C134.759322,77.7287037 133.345763,79.0222222 131.34322,79.0222222 C130.754237,79.0222222 130.283051,78.9046296 129.929661,78.787037 C129.576271,78.6694444 129.222881,78.5518519 129.105085,78.4342593 C128.987288,78.0814815 128.751695,76.787963 128.633898,75.9648148 L129.105085,75.8472222 C129.340678,76.787963 130.165254,78.4342593 131.578814,78.4342593 C132.521186,78.4342593 133.110169,77.7287037 133.110169,76.787963 C133.110169,75.8472222 132.40339,75.2592593 131.34322,74.6712963 C130.047458,73.9657407 128.869492,73.1425926 128.869492,71.6138889 C128.869492,70.0851852 130.047458,68.7916667 132.167797,68.7916667 C132.992373,68.7916667 133.816949,69.0268519 134.170339,69.1444444 C134.288136,69.7324074 134.288136,70.3203704 134.405932,71.2611111 L133.816949,71.3787037 L133.816949,71.3787037 Z" id="Shape" fill="#FFFFFF"></path>
                    <path d="M147.363559,78.787037 L147.363559,78.3166667 C148.541525,78.1990741 148.659322,78.0814815 148.659322,76.787963 L148.659322,70.9083333 C148.659322,69.6148148 148.541525,69.4972222 147.363559,69.3796296 L147.363559,68.9092593 L151.604237,68.9092593 L151.604237,69.3796296 C150.426271,69.4972222 150.308475,69.6148148 150.308475,70.9083333 L150.308475,76.787963 C150.308475,78.0814815 150.426271,78.1990741 151.604237,78.3166667 L151.604237,78.787037 L147.363559,78.787037 L147.363559,78.787037 Z" id="Shape" fill="#FFFFFF"></path>
                    <path d="M172.336441,71.4962963 C172.218644,70.7907407 171.983051,70.3203704 171.747458,69.9675926 C171.511864,69.6148148 171.158475,69.6148148 170.216102,69.6148148 L169.391525,69.6148148 L169.391525,76.787963 C169.391525,77.9638889 169.509322,78.0814815 170.805085,78.1990741 L170.805085,78.787037 L166.211017,78.787037 L166.211017,78.3166667 C167.50678,78.1990741 167.624576,78.0814815 167.624576,76.9055556 L167.624576,69.7324074 L167.035593,69.7324074 C165.857627,69.7324074 165.504237,69.85 165.386441,70.2027778 C165.150847,70.437963 165.033051,70.9083333 164.797458,71.6138889 L164.326271,71.6138889 C164.444068,70.5555556 164.444068,69.4972222 164.444068,68.7916667 L164.797458,68.7916667 C165.033051,69.1444444 165.150847,69.1444444 165.622034,69.1444444 L171.511864,69.1444444 C171.865254,69.1444444 172.100847,69.0268519 172.336441,68.7916667 L172.689831,68.7916667 C172.689831,69.3796296 172.807627,70.6731481 172.807627,71.6138889 L172.336441,71.4962963 L172.336441,71.4962963 Z" id="Shape" fill="#FFFFFF"></path>
                    <path d="M194.6,69.4972222 C193.657627,69.6148148 193.422034,69.85 192.833051,70.6731481 C192.244068,71.6138889 191.772881,72.3194444 191.066102,73.7305556 C190.830508,74.0833333 190.830508,74.3185185 190.830508,74.6712963 L190.830508,76.6703704 C190.830508,77.9638889 190.948305,78.0814815 192.244068,78.1990741 L192.244068,78.787037 L187.767797,78.787037 L187.767797,78.3166667 C189.063559,78.1990741 189.181356,78.0814815 189.181356,76.787963 L189.181356,75.0240741 C189.181356,74.6712963 189.063559,74.5537037 188.945763,74.2009259 C188.474576,73.3777778 188.00339,72.3194444 187.178814,70.7907407 C186.589831,69.7324074 186.354237,69.6148148 185.529661,69.4972222 L185.529661,69.0268519 L189.534746,69.0268519 L189.534746,69.4972222 C188.592373,69.6148148 188.592373,69.85 188.827966,70.3203704 C189.416949,71.3787037 190.005932,72.5546296 190.594915,73.7305556 C191.066102,72.7898148 191.772881,71.3787037 192.244068,70.437963 C192.479661,69.7324074 192.479661,69.6148148 191.419492,69.4972222 L191.419492,69.0268519 L194.717797,69.0268519 L194.717797,69.4972222 L194.6,69.4972222 Z" id="Shape" fill="#FFFFFF"></path>
                    <path d="M23.2059322,49.3888889 C21.4389831,49.7416667 21.2033898,49.8592593 21.2033898,52.2111111 L21.2033898,55.0333333 C21.2033898,56.3268519 21.2033898,57.3851852 21.4389831,58.3259259 C19.3186441,58.7962963 16.2559322,59.6194444 13.4288136,59.6194444 C5.30084746,59.6194444 0,55.0333333 0,47.9777778 C0,38.687963 6.47881356,34.925 13.9,34.925 C16.7271186,34.925 19.9076271,35.7481481 21.2033898,35.9833333 L21.2033898,43.862037 L19.9076271,43.862037 C19.0830508,39.9814815 16.3737288,37.2768519 13.0754237,37.2768519 C8.83474576,37.2768519 5.18305085,41.0398148 5.18305085,47.3898148 C5.18305085,52.6814815 7.77457627,58.2083333 13.5466102,58.2083333 C14.2533898,58.2083333 15.0779661,58.0907407 15.5491525,57.737963 C16.020339,57.3851852 16.3737288,56.9148148 16.3737288,55.7388889 L16.3737288,52.4462963 C16.3737288,49.9768519 16.2559322,49.7416667 12.4864407,49.3888889 L12.4864407,48.212963 L22.970339,48.212963 L22.970339,49.3888889 L23.2059322,49.3888889 Z" id="Shape" fill="#FFFFFF"></path>
                    <path d="M36.3991525,59.1490741 L36.3991525,57.9731481 C38.5194915,57.6203704 38.6372881,57.2675926 38.0483051,55.7388889 C37.6949153,54.6805556 37.2237288,53.1518519 36.6347458,51.7407407 L29.920339,51.7407407 C29.5669492,52.7990741 29.0957627,54.0925926 28.6245763,55.5037037 C28.1533898,57.15 28.1533898,57.6203704 30.7449153,57.9731481 L30.7449153,59.1490741 L22.8525424,59.1490741 L22.8525424,57.9731481 C25.2084746,57.737963 25.679661,57.2675926 26.7398305,54.3277778 L33.9254237,36.3361111 L35.6923729,35.8657407 C37.9305085,41.9805556 40.1686441,48.0953704 42.4067797,54.0925926 C43.5847458,57.15 44.0559322,57.6203704 46.2940678,57.8555556 L46.2940678,59.0314815 L36.3991525,59.0314815 L36.3991525,59.1490741 Z M33.4542373,42.2157407 L33.4542373,42.2157407 C32.3940678,44.8027778 31.4516949,47.3898148 30.6271186,49.8592593 L36.1635593,49.8592593 L33.4542373,42.2157407 L33.4542373,42.2157407 Z" id="Shape" fill="#FFFFFF"></path>
                    <path d="M66.3194915,53.1518519 C66.0838983,54.6805556 65.259322,58.0907407 65.0237288,59.0314815 L47.9432203,59.0314815 L47.9432203,57.8555556 C51.0059322,57.6203704 51.359322,57.3851852 51.359322,54.4453704 L51.359322,41.0398148 C51.359322,37.9824074 51.0059322,37.8648148 48.2966102,37.6296296 L48.2966102,36.4537037 L59.0161017,36.4537037 L59.0161017,37.6296296 C56.3067797,37.8648148 56.0711864,38.1 56.0711864,41.0398148 L56.0711864,54.6805556 C56.0711864,56.3268519 56.1889831,56.9148148 56.8957627,57.2675926 C57.4847458,57.5027778 58.4271186,57.6203704 59.4872881,57.6203704 C61.0186441,57.6203704 62.3144068,57.3851852 63.1389831,56.4444444 C63.7279661,55.7388889 64.4347458,54.562963 65.0237288,52.7990741 L66.3194915,53.1518519 L66.3194915,53.1518519 Z" id="Shape" fill="#FFFFFF"></path>
                    <path d="M84.6957627,53.1518519 C84.4601695,54.6805556 83.6355932,58.0907407 83.4,59.0314815 L66.3194915,59.0314815 L66.3194915,57.8555556 C69.3822034,57.6203704 69.7355932,57.3851852 69.7355932,54.4453704 L69.7355932,41.0398148 C69.7355932,37.9824074 69.3822034,37.8648148 66.6728814,37.6296296 L66.6728814,36.4537037 L77.3923729,36.4537037 L77.3923729,37.6296296 C74.6830508,37.8648148 74.4474576,38.1 74.4474576,41.0398148 L74.4474576,54.6805556 C74.4474576,56.3268519 74.5652542,56.9148148 75.2720339,57.2675926 C75.8610169,57.5027778 76.8033898,57.6203704 77.8635593,57.6203704 C79.3949153,57.6203704 80.690678,57.3851852 81.5152542,56.4444444 C82.1042373,55.7388889 82.8110169,54.562963 83.4,52.7990741 L84.6957627,53.1518519 L84.6957627,53.1518519 Z" id="Shape" fill="#FFFFFF"></path>
                    <path d="M97.8889831,59.1490741 L97.8889831,57.9731481 C100.009322,57.6203704 100.127119,57.2675926 99.5381356,55.7388889 C99.1847458,54.6805556 98.7135593,53.1518519 98.1245763,51.7407407 L91.4101695,51.7407407 C91.0567797,52.7990741 90.5855932,54.0925926 90.1144068,55.5037037 C89.6432203,57.15 89.6432203,57.6203704 92.2347458,57.9731481 L92.2347458,59.1490741 L84.3423729,59.1490741 L84.3423729,57.9731481 C86.6983051,57.737963 87.1694915,57.2675926 88.229661,54.3277778 L95.4152542,36.3361111 L97.1822034,35.8657407 C99.420339,41.9805556 101.658475,48.0953704 103.89661,54.0925926 C105.074576,57.15 105.545763,57.6203704 107.783898,57.8555556 L107.783898,59.0314815 L97.8889831,59.0314815 L97.8889831,59.1490741 Z M94.9440678,42.2157407 L94.9440678,42.2157407 C93.8838983,44.8027778 92.9415254,47.3898148 92.1169492,49.8592593 L97.5355932,49.8592593 L94.9440678,42.2157407 L94.9440678,42.2157407 Z" id="Shape" fill="#FFFFFF"></path>
                    <path d="M130.754237,37.512037 C128.869492,37.6296296 127.927119,38.3351852 127.809322,39.6287037 C127.691525,40.687037 127.455932,41.9805556 127.455932,44.45 L127.455932,48.3305556 C127.455932,52.0935185 126.866949,55.0333333 124.982203,57.0324074 C123.333051,58.6787037 120.977119,59.6194444 118.50339,59.6194444 C116.147458,59.6194444 114.027119,59.1490741 112.260169,57.8555556 C110.257627,56.3268519 109.315254,53.7398148 109.315254,49.6240741 L109.315254,41.3925926 C109.315254,38.1 108.961864,37.8648148 106.370339,37.6296296 L106.370339,36.4537037 L116.972034,36.4537037 L116.972034,37.6296296 C114.380508,37.8648148 114.027119,38.1 114.027119,41.3925926 L114.027119,49.0361111 C114.027119,54.3277778 115.911864,57.3851852 119.681356,57.3851852 C123.804237,57.3851852 125.688983,54.2101852 125.688983,48.3305556 L125.688983,44.5675926 C125.688983,42.0981481 125.571186,40.8046296 125.335593,39.7462963 C125.1,38.5703704 124.275424,37.8648148 121.919492,37.6296296 L121.919492,36.4537037 L130.636441,36.4537037 L130.636441,37.512037 L130.754237,37.512037 Z" id="Shape" fill="#FFFFFF"></path>
                    <path d="M143.240678,36.3361111 C147.716949,36.3361111 151.015254,37.1592593 153.371186,39.3935185 C155.138136,41.0398148 156.551695,43.5092593 156.551695,46.8018519 C156.551695,51.0351852 154.784746,54.2101852 152.19322,56.2092593 C149.601695,58.2083333 145.95,59.1490741 141.591525,59.1490741 L132.521186,59.1490741 L132.521186,57.9731481 C135.348305,57.737963 135.701695,57.5027778 135.701695,54.562963 L135.701695,41.0398148 C135.701695,37.9824074 135.348305,37.8648148 132.874576,37.6296296 L132.874576,36.4537037 L143.240678,36.4537037 L143.240678,36.3361111 Z M140.177966,54.2101852 C140.177966,56.6796296 140.649153,57.6203704 143.122881,57.6203704 C147.834746,57.6203704 151.015254,53.8574074 151.015254,47.5074074 C151.015254,44.2148148 149.955085,41.5101852 148.423729,39.9814815 C147.010169,38.4527778 145.125424,37.8648148 142.651695,37.8648148 C141.355932,37.8648148 140.649153,38.1 140.413559,38.3351852 C140.177966,38.687963 140.060169,39.2759259 140.060169,40.2166667 L140.060169,54.2101852 L140.177966,54.2101852 Z" id="Shape" fill="#FFFFFF"></path>
                    <path d="M176.694915,53.2694444 C176.459322,54.7981481 175.752542,57.9731481 175.516949,59.0314815 L157.611864,59.0314815 L157.611864,57.8555556 C160.55678,57.6203704 160.910169,57.3851852 160.910169,54.4453704 L160.910169,41.0398148 C160.910169,37.9824074 160.55678,37.8648148 158.083051,37.6296296 L158.083051,36.4537037 L174.574576,36.4537037 C174.574576,37.0416667 174.810169,39.5111111 174.927966,41.7453704 L173.632203,41.862963 C173.278814,40.687037 172.807627,39.5111111 172.218644,38.8055556 C171.629661,38.2175926 170.687288,37.9824074 168.684746,37.9824074 L167.035593,37.9824074 C165.739831,37.9824074 165.622034,38.1 165.622034,39.1583333 L165.622034,46.5666667 L167.977966,46.5666667 C170.922881,46.5666667 171.394068,46.3314815 171.865254,43.9796296 L173.161017,43.9796296 L173.161017,51.0351852 L171.865254,51.0351852 C171.394068,48.5657407 170.922881,48.3305556 167.977966,48.3305556 L165.622034,48.3305556 L165.622034,54.4453704 C165.622034,56.0916667 165.739831,56.9148148 166.44661,57.2675926 C167.035593,57.5027778 168.213559,57.6203704 169.627119,57.6203704 C171.394068,57.6203704 172.689831,57.3851852 173.514407,56.4444444 C174.221186,55.6212963 174.810169,54.562963 175.516949,53.0342593 L176.694915,53.2694444 L176.694915,53.2694444 Z" id="Shape" fill="#FFFFFF"></path>
                    <path d="M196.366949,42.3333333 C195.895763,40.5694444 195.424576,39.2759259 194.835593,38.687963 C194.24661,38.1 193.304237,37.8648148 191.301695,37.8648148 L189.652542,37.8648148 L189.652542,54.4453704 C189.652542,57.3851852 190.005932,57.6203704 193.068644,57.8555556 L193.068644,59.0314815 L181.642373,59.0314815 L181.642373,57.8555556 C184.587288,57.6203704 184.940678,57.3851852 184.940678,54.4453704 L184.940678,37.8648148 L183.762712,37.8648148 C180.817797,37.8648148 180.228814,38.2175926 179.757627,38.8055556 C179.168644,39.3935185 178.697458,40.5694444 178.226271,42.3333333 L176.930508,42.3333333 C177.048305,39.7462963 177.283898,37.2768519 177.401695,35.3953704 L178.226271,35.3953704 C178.697458,36.2185185 179.168644,36.2185185 180.228814,36.2185185 L194.364407,36.2185185 C195.30678,36.2185185 195.777966,35.9833333 196.366949,35.3953704 L197.191525,35.3953704 C197.191525,36.9240741 197.427119,39.9814815 197.544915,42.2157407 L196.366949,42.3333333 L196.366949,42.3333333 Z" id="Shape" fill="#FFFFFF"></path>
                    <path d="M185.647458,27.7518519 L185.647458,27.7518519 C169.509322,15.0518519 126.631356,0.587962963 91.9991525,0.587962963 C54.7754237,0.587962963 22.6169492,10.4657407 7.53898305,24.6944444 C28.9779661,13.9935185 58.8983051,7.40833333 91.9991525,7.40833333 C108.726271,7.40833333 124.628814,9.05462963 139,12.112037 C132.167797,11.2888889 125.1,10.8185185 117.678814,10.8185185 C85.7559322,10.8185185 58.0737288,19.2851852 45.1161017,31.5148148 C63.4923729,22.3425926 89.1720339,16.5805556 117.678814,16.5805556 C146.185593,16.5805556 171.865254,22.3425926 190.241525,31.5148148 C188.710169,30.2212963 187.29661,28.9277778 185.647458,27.7518519" id="Shape" fill="#D2B887"></path>
                </g>
            </g>
        </g>
    </g>
</svg>