<?xml version="1.0" encoding="UTF-8" standalone="no"?>
<svg width="171px" height="171px" viewBox="0 0 171 171" version="1.1" xmlns="http://www.w3.org/2000/svg" xmlns:xlink="http://www.w3.org/1999/xlink" xmlns:sketch="http://www.bohemiancoding.com/sketch/ns">
    <!-- Generator: Sketch 3.4.2 (15855) - http://www.bohemiancoding.com/sketch -->
    <title>Shape</title>
    <desc>Created with Sketch.</desc>
    <defs></defs>
    <g id="Page-1" stroke="none" stroke-width="1" fill="none" fill-rule="evenodd" sketch:type="MSPage">
        <g id="search" sketch:type="MSLayerGroup">
            <g id="Layer_1" sketch:type="MSShapeGroup">
                <g id="Group">
                    <path d="M157.453704,168.132407 L168.114815,157.471296 C169.522222,156.063889 169.522222,153.812037 168.114815,152.40463 L115.618519,99.9083333 L99.8907407,115.636111 L152.387037,168.132407 C153.794444,169.539815 156.046296,169.539815 157.453704,168.132407 L157.453704,168.132407 Z" id="Shape" fill="#F8D862"></path>
                    <path d="M57.4925926,23.5916667 C38.7740741,23.5916667 23.5388889,38.8268519 23.5388889,57.5453704 C23.5388889,59.3046296 24.9814815,60.7472222 26.7407407,60.7472222 C28.5,60.7472222 29.9425926,59.3046296 29.9425926,57.5453704 C29.9425926,42.3453704 42.2925926,29.9953704 57.4925926,29.9953704 C59.2518519,29.9953704 60.6944444,28.5527778 60.6944444,26.7935185 C60.6944444,24.9990741 59.2518519,23.5916667 57.4925926,23.5916667 L57.4925926,23.5916667 Z" id="Shape" fill="#F3C519"></path>
                    <path d="M117.87037,97.6564815 C116.638889,96.425 114.598148,96.425 113.366667,97.6564815 L107.772222,103.250926 L100.348148,95.8268519 C109.461111,85.6583333 115.02037,72.2175926 115.02037,57.5101852 C115.02037,25.8083333 89.2296296,0.0175925926 57.5277778,0.0175925926 C25.8259259,0.0175925926 0,25.8083333 0,57.5101852 C0,89.212037 25.7907407,115.002778 57.4925926,115.002778 C72.2,115.002778 85.6055556,109.443519 95.8092593,100.330556 L103.233333,107.75463 L97.6388889,113.349074 C97.0407407,113.947222 96.6888889,114.756481 96.6888889,115.600926 C96.6888889,116.44537 97.0407407,117.25463 97.6388889,117.852778 L147.566667,167.780556 C149.537037,169.750926 152.140741,170.841667 154.92037,170.841667 C157.7,170.841667 160.303704,169.750926 162.274074,167.780556 L167.798148,162.256481 C169.768519,160.286111 170.859259,157.682407 170.859259,154.902778 C170.859259,152.123148 169.768519,149.519444 167.798148,147.549074 L117.87037,97.6564815 L117.87037,97.6564815 Z M6.4037037,57.5101852 C6.4037037,29.3268519 29.3444444,6.38611111 57.5277778,6.38611111 C85.7111111,6.38611111 108.651852,29.3268519 108.651852,57.5101852 C108.651852,85.6935185 85.7111111,108.634259 57.5277778,108.634259 C29.3444444,108.634259 6.4037037,85.6935185 6.4037037,57.5101852 L6.4037037,57.5101852 Z M163.294444,157.787963 L157.77037,163.312037 C156.996296,164.086111 156.011111,164.508333 154.92037,164.508333 C153.82963,164.508333 152.844444,164.086111 152.07037,163.312037 L104.394444,115.636111 L115.618519,104.412037 L163.294444,152.087963 C164.068519,152.862037 164.490741,153.847222 164.490741,154.937963 C164.490741,156.028704 164.033333,157.049074 163.294444,157.787963 L163.294444,157.787963 Z" id="Shape" fill="#F3C519"></path>
                </g>
            </g>
        </g>
    </g>
</svg>