<?xml version="1.0" encoding="UTF-8" standalone="no"?>
<svg width="111px" height="102px" viewBox="0 0 111 102" version="1.1" xmlns="http://www.w3.org/2000/svg" xmlns:xlink="http://www.w3.org/1999/xlink" xmlns:sketch="http://www.bohemiancoding.com/sketch/ns">
    <!-- Generator: Sketch 3.4.2 (15855) - http://www.bohemiancoding.com/sketch -->
    <title>icon-faq</title>
    <desc>Created with Sketch.</desc>
    <defs></defs>
    <g id="Page-1" stroke="none" stroke-width="1" fill="none" fill-rule="evenodd" sketch:type="MSPage">
        <g id="icon-faq" sketch:type="MSLayerGroup" transform="translate(1.000000, 1.000000)">
            <g id="Layer_1" sketch:type="MSShapeGroup">
                <path d="M102.095936,75.3842936 L8.90406445,75.3842936 C5.20941211,75.3842936 2.21436328,72.3861447 2.21436328,68.6876681 L2.21436328,8.92782128 C2.21436328,5.22934468 5.20941211,2.23119574 8.90406445,2.23119574 L102.096152,2.23119574 C105.790371,2.23119574 108.78542,5.22934468 108.78542,8.92782128 L108.78542,68.6878851 C108.785637,72.3861447 105.790371,75.3842936 102.095936,75.3842936 L102.095936,75.3842936 Z" id="Shape" fill="#47B2F9"></path>
                <rect id="Rectangle-path" fill="#FFFFFF" x="37.6459102" y="75.3842936" width="35.7081797" height="13.8546383"></rect>
                <path d="M89.9626816,99.7685872 L21.0373184,99.7685872 L21.0373184,99.306766 C21.0373184,93.7466809 25.5401895,89.2391489 31.0945254,89.2391489 L79.9048242,89.2391489 C85.4591602,89.2391489 89.9620313,93.7466809 89.9620313,99.306766 L89.9620313,99.7685872 L89.9626816,99.7685872 L89.9626816,99.7685872 Z" id="Shape" fill="#FFFFFF"></path>
                <rect id="Rectangle-path" fill="#FFFFFF" x="12.5948145" y="13.3151234" width="85.8103711" height="50.9854596"></rect>
                <g id="Group" fill="#231F20">
                    <path d="M102.095936,0.0145404255 L8.90406445,0.0145404255 C3.99426562,0.0145404255 0,4.01315745 0,8.92782128 L0,68.6876681 C0,73.6025489 3.99426562,77.6009489 8.90406445,77.6009489 L35.4313301,77.6009489 L35.4313301,87.0220596 L31.0945254,87.0220596 C24.3278613,87.0220596 18.8227383,92.5328809 18.8227383,99.3065489 L18.8227383,99.7683702 C18.8227383,100.992587 19.8143672,101.985026 21.0371016,101.985026 L89.962248,101.985026 C91.1851992,101.985026 92.1766113,100.99237 92.1766113,99.7683702 L92.1766113,99.3065489 C92.1766113,92.5328809 86.6714883,87.0220596 79.9048242,87.0220596 L75.5680195,87.0220596 L75.5680195,77.6009489 L102.095285,77.6009489 C107.005084,77.6009489 110.99935,73.6025489 110.99935,68.6876681 L110.99935,8.92782128 C111,4.01315745 107.005734,0.0145404255 102.095936,0.0145404255 L102.095936,0.0145404255 Z M87.5508164,97.5519319 L23.4491836,97.5519319 C24.2474297,94.064617 27.3723398,91.4558043 31.0945254,91.4558043 L37.6456934,91.4558043 L73.353873,91.4558043 L79.905041,91.4558043 C83.6276602,91.4558043 86.7523535,94.064617 87.5508164,97.5519319 L87.5508164,97.5519319 Z M71.1397266,87.0222766 L39.8602734,87.0222766 L39.8602734,77.601166 L71.1397266,77.601166 L71.1397266,87.0222766 L71.1397266,87.0222766 Z M106.571057,68.6878851 C106.571057,71.1578043 104.563734,73.1676383 102.095936,73.1676383 L73.3540898,73.1676383 L37.6459102,73.1676383 L8.90406445,73.1676383 C6.43626562,73.1676383 4.42894336,71.1578043 4.42894336,68.6878851 L4.42894336,8.92782128 C4.42894336,6.45790213 6.43626562,4.44806809 8.90406445,4.44806809 L102.096152,4.44806809 C104.563518,4.44806809 106.571273,6.45790213 106.571273,8.92782128 L106.571273,68.6876681 L106.571057,68.6876681 L106.571057,68.6878851 Z" id="Shape"></path>
                    <path d="M98.4051855,11.0984681 L12.5948145,11.0984681 C11.3718633,11.0984681 10.3804512,12.0911234 10.3804512,13.3151234 L10.3804512,64.300583 C10.3804512,65.5248 11.3720801,66.5172383 12.5948145,66.5172383 L98.4051855,66.5172383 C99.6281367,66.5172383 100.619549,65.524583 100.619549,64.300583 L100.619549,13.3151234 C100.619766,12.0909064 99.6281367,11.0984681 98.4051855,11.0984681 L98.4051855,11.0984681 Z M96.1908223,62.0837106 L14.8091777,62.0837106 L14.8091777,15.5319957 L96.1908223,15.5319957 L96.1908223,62.0837106 L96.1908223,62.0837106 Z" id="Shape"></path>
                </g>
            </g>
            <path d="M53.5520581,44.1307506 C53.5520581,41.9677051 54.439862,39.8369758 56.2154964,37.7384988 C56.9580344,36.8668237 57.6844194,36.0435874 58.3946731,35.2687651 C60.1703075,33.3317094 61.0581114,31.943507 61.0581114,31.1041162 C61.0581114,29.2961976 59.8636116,28.3922518 57.4745763,28.3922518 C56.3446271,28.3922518 55.1662692,28.6424511 53.9394673,29.1428571 C52.7126654,29.6432632 52.0831317,29.8934625 52.0508475,29.8934625 C51.4374465,29.8934625 50.7756291,29.376922 50.0653753,28.3438257 C49.3551215,27.3107293 49,26.5036349 49,25.9225182 C49,24.6311477 49.9523714,23.6545634 51.8571429,22.9927361 C53.7619143,22.3309087 55.8442179,22 58.1041162,22 C61.3648266,22 63.9313869,22.7748107 65.8038741,24.3244552 C67.6763613,25.8740998 68.6125908,27.9725453 68.6125908,30.6198547 C68.6125908,33.2025956 67.6279356,35.4301763 65.6585956,37.3026634 C64.8514891,38.10977 64.0121109,38.8522969 63.1404358,39.5302663 C61.0742431,41.1767637 59.8958852,42.7425269 59.6053269,44.2276029 C59.4761898,44.7118668 59.2179196,45.0508465 58.8305085,45.2445521 C58.4430973,45.4382576 57.8458475,45.535109 57.0387409,45.535109 L55.9249395,45.535109 C54.3430107,45.535109 53.5520581,45.0669942 53.5520581,44.1307506 L53.5520581,44.1307506 Z M52.7772397,54.8329298 L52.7772397,50.377724 C52.7772397,49.3446276 53.745753,48.8280872 55.6828087,48.8280872 L57.2324455,48.8280872 C59.1695012,48.8280872 60.1380145,49.3446276 60.1380145,50.377724 L60.1380145,54.8329298 C60.1380145,55.8660262 59.1695012,56.3825666 57.2324455,56.3825666 L55.6828087,56.3825666 C53.745753,56.3825666 52.7772397,55.8660262 52.7772397,54.8329298 L52.7772397,54.8329298 Z" id="?" fill="#000000" sketch:type="MSShapeGroup"></path>
        </g>
        <rect id="Rectangle-path-Copy" fill="#FFFFFF" sketch:type="MSShapeGroup" x="27" y="48" width="6.10780047" height="5"></rect>
        <rect id="Rectangle-path-Copy-2" fill="#FFFFFF" sketch:type="MSShapeGroup" x="46" y="48" width="6.10780047" height="5"></rect>
        <rect id="Rectangle-path-Copy-3" fill="#FFFFFF" sketch:type="MSShapeGroup" x="67" y="48" width="6.10780047" height="5"></rect>
        <rect id="Rectangle-path-Copy-4" fill="#FFFFFF" sketch:type="MSShapeGroup" x="87" y="48" width="6.10780047" height="5"></rect>
    </g>
</svg>