<?xml version="1.0" encoding="UTF-8" standalone="no"?>
<svg width="164px" height="123px" viewBox="0 0 164 123" version="1.1" xmlns="http://www.w3.org/2000/svg" xmlns:xlink="http://www.w3.org/1999/xlink" xmlns:sketch="http://www.bohemiancoding.com/sketch/ns">
    <!-- Generator: Sketch 3.4.2 (15855) - http://www.bohemiancoding.com/sketch -->
    <title>eye</title>
    <desc>Created with Sketch.</desc>
    <defs></defs>
    <g id="Page-1" stroke="none" stroke-width="1" fill="none" fill-rule="evenodd" sketch:type="MSPage">
        <g id="eye" sketch:type="MSLayerGroup">
            <g id="Group" sketch:type="MSShapeGroup">
                <path id="Shape" fill="#FFDAAA" d="M82.19844,23.161492 C82.104632,23.161492 82.011152,23.167492 81.917672,23.168492 C81.937024,23.168492 81.956376,23.169492 81.975728,23.169492 C82.050184,23.169492 82.123984,23.161492 82.19844,23.161492 L82.19844,23.161492 Z"></path>
                <path id="Shape" fill="#FFDAAA" d="M81.917672,122.693842 C82.01148,122.694842 82.10496,122.700842 82.19844,122.700842 C82.123984,122.700842 82.049856,122.692842 81.975728,122.691842 C81.956376,122.692842 81.937024,122.693842 81.917672,122.693842 L81.917672,122.693842 Z"></path>
                <path d="M32.564496,72.9281471 C32.564496,45.6750963 54.52672,23.4719519 81.636904,23.1683984 C65.269048,23.2650882 49.219024,27.6907861 35.185872,35.9857219 C21.414792,44.1254278 9.904616,55.7610963 1.900432,69.6344439 L0,72.9281471 L1.900104,76.2218503 C9.904288,90.0955267 21.414464,101.730866 35.185544,109.870572 C49.218696,118.165179 65.269048,122.591206 81.636576,122.690198 C54.52672,122.384342 32.564496,100.181198 32.564496,72.9281471 L32.564496,72.9281471 Z" id="Shape" fill="#E1E1E1"></path>
                <path d="M161.93524,69.6347727 C153.931056,55.7610963 142.42088,44.1257567 128.6498,35.9860508 C115.068304,27.958492 99.597856,23.5548289 83.778744,23.1894465 C110.418576,24.0293984 131.832712,46.0174572 131.832712,72.9284759 C131.832712,99.8394947 110.418576,121.827553 83.778744,122.667505 C99.597856,122.302123 115.068632,117.898789 128.6498,109.870901 C142.42088,101.731195 153.931056,90.0955267 161.93524,76.2221791 L163.835344,72.9284759 L161.93524,69.6347727 L161.93524,69.6347727 Z" id="Shape" fill="#E1E1E1"></path>
                <path id="Shape" fill="#FFC477" d="M81.636904,122.687896 C81.730712,122.708896 81.824192,122.702896 81.917672,122.701896 C81.937024,122.701896 81.956376,122.700896 81.975728,122.700896 C81.862568,122.698896 81.749736,122.690896 81.636904,122.687896 L81.636904,122.687896 Z"></path>
                <path id="Shape" fill="#FFC477" d="M81.975728,23.1698209 C81.956376,23.1698209 81.937024,23.1688209 81.917672,23.1688209 C81.823864,23.1678209 81.730384,23.1618209 81.636904,23.1618209 C81.749736,23.1788209 81.862568,23.1708209 81.975728,23.1698209 L81.975728,23.1698209 Z"></path>
                <path d="M82.19844,92.6607674 C71.329504,92.6607674 62.51844,83.8261444 62.51844,72.9281471 C62.51844,62.0301497 71.329504,53.1955267 82.19844,53.1955267 L82.19844,23.161492 C82.123984,23.161492 82.049856,23.164123 81.975728,23.1644519 C81.862568,23.1647807 81.749736,23.1674118 81.636904,23.1687273 C54.52672,23.4719519 32.564496,45.6750963 32.564496,72.9281471 C32.564496,100.181198 54.52672,122.384342 81.636904,122.687896 C81.750064,122.688882 81.862568,122.691513 81.975728,122.692171 C82.050184,122.6925 82.123984,122.695131 82.19844,122.695131 L82.19844,92.6607674 L82.19844,92.6607674 Z" id="Shape" fill="#BD9100"></path>
                <path d="M131.832712,72.9281471 C131.832712,46.0171283 110.418576,24.0290695 83.778744,23.1891176 C83.253944,23.1726738 82.727504,23.161492 82.198768,23.161492 L82.198768,53.1955267 C82.425744,53.1955267 82.650424,53.2044064 82.875104,53.2126283 C85.116656,48.2554652 90.091432,44.8052166 95.873088,44.8052166 C103.75296,44.8052166 110.141088,51.2104251 110.141088,59.1113663 C110.141088,64.9604439 106.638704,69.9863422 101.623256,72.2042888 C101.719032,72.2181016 101.799392,72.2131684 101.860072,72.1855428 C101.869256,72.4322005 101.878768,72.6788583 101.878768,72.9281471 C101.878768,83.8261444 93.067704,92.6607674 82.198768,92.6607674 L82.198768,122.694802 C82.727504,122.694802 83.253944,122.68362 83.778744,122.667176 C110.418248,121.827225 131.832712,99.8391658 131.832712,72.9281471 L131.832712,72.9281471 Z" id="Shape" fill="#9B6700"></path>
                <path d="M62.51844,72.9281471 C62.51844,83.8261444 71.329504,92.6607674 82.19844,92.6607674 C93.067376,92.6607674 101.87844,83.8261444 101.87844,72.9281471 C101.87844,72.6791872 101.868928,72.4325294 101.859744,72.1855428 C101.799064,72.2131684 101.718704,72.2181016 101.622928,72.2042888 C99.863536,72.9824118 97.919152,73.417516 95.87276,73.417516 C87.992888,73.417516 81.60476,67.0123075 81.60476,59.1113663 C81.60476,57.0075401 82.061336,55.0115856 82.874776,53.2126283 C82.649768,53.2044064 82.425088,53.1955267 82.19844,53.1955267 C71.329504,53.1955267 62.51844,62.0301497 62.51844,72.9281471 L62.51844,72.9281471 Z" id="Shape" fill="#002645"></path>
                <path d="M82.198768,13.2951818 C100.517568,13.2951818 118.502136,18.2023556 134.208744,27.4862246 C140.709376,31.3288235 146.807224,35.9120535 152.332384,41.1092968 L161.30876,31.514639 C155.079712,25.6560241 148.20352,20.4877219 140.871408,16.1534519 C123.1476,5.67740374 102.858832,0.140101604 82.198768,0.140101604 C61.538704,0.140101604 41.249936,5.67740374 23.526128,16.1537807 C16.194016,20.4877219 9.318152,25.6560241 3.088776,31.514639 L12.065152,41.1092968 C17.590312,35.9120535 23.687832,31.3288235 30.188792,27.4862246 C45.8954,18.2023556 63.879968,13.2951818 82.198768,13.2951818 Z" id="Shape" fill="#4D371B"></path>
                <path d="M81.60476,59.1113663 C81.60476,67.0123075 87.992888,73.417516 95.87276,73.417516 C97.91948,73.417516 99.863536,72.9824118 101.622928,72.2042888 C106.638048,69.9863422 110.14076,64.9604439 110.14076,59.1113663 C110.14076,51.2104251 103.752632,44.8052166 95.87276,44.8052166 C90.091104,44.8052166 85.116328,48.2554652 82.874776,53.2126283 C82.061664,55.0119144 81.60476,57.0075401 81.60476,59.1113663 L81.60476,59.1113663 Z" id="Shape" fill="#FFFFFF"></path>
            </g>
        </g>
    </g>
</svg>