<?xml version="1.0" encoding="UTF-8" standalone="no"?>
<svg width="79px" height="87px" viewBox="0 0 79 87" version="1.1" xmlns="http://www.w3.org/2000/svg" xmlns:xlink="http://www.w3.org/1999/xlink" xmlns:sketch="http://www.bohemiancoding.com/sketch/ns">
    <!-- Generator: Sketch 3.4.2 (15855) - http://www.bohemiancoding.com/sketch -->
    <title>icon-contact</title>
    <desc>Created with Sketch.</desc>
    <defs></defs>
    <g id="Page-1" stroke="none" stroke-width="1" fill="none" fill-rule="evenodd" sketch:type="MSPage">
        <path d="M78.4550781,40.4873047 C78.1458318,48.5586341 76.1357607,54.9908615 72.4248047,59.7841797 C68.7138486,64.5774979 63.7659814,66.9741211 57.5810547,66.9741211 C55.0452347,66.9741211 52.8032324,66.4252171 50.8549805,65.3273926 C48.9067285,64.2295681 47.3914442,62.6756285 46.309082,60.6655273 C43.2784679,64.747579 39.2119396,66.7885742 34.109375,66.7885742 C31.1406102,66.7885742 28.5429799,65.9149664 26.3164062,64.1677246 C24.0898326,62.4204828 22.4585827,59.9388182 21.4226074,56.7226562 C20.3866322,53.5064943 20.0696594,49.8574423 20.4716797,45.7753906 C21.3994187,38.0442322 23.8888144,31.828474 27.9399414,27.1279297 C31.9910684,22.4273854 36.9543977,20.0771484 42.8300781,20.0771484 C47.3759993,20.0771484 51.2879068,21.1285702 54.565918,23.2314453 L57.4882812,25.1796875 L55.1225586,52.4086914 C54.5968398,56.7072155 56.0812,58.8564453 59.5756836,58.8564453 C62.2042775,58.8564453 64.4076246,57.1788091 66.185791,53.8234863 C67.9639575,50.4681636 68.9457999,46.177435 69.1313477,40.9511719 C69.6570664,30.6223442 67.5155677,22.6439083 62.7067871,17.015625 C57.8980066,11.3873417 50.8550269,8.57324219 41.5776367,8.57324219 C35.6710317,8.57324219 30.4216538,10.0807955 25.8293457,13.0959473 C21.2370376,16.1110991 17.6034476,20.3786345 14.9284668,25.8986816 C12.253486,31.4187288 10.7459327,37.7040663 10.4057617,44.7548828 C9.91096758,55.5785046 12.0756595,63.8584511 16.8999023,69.5949707 C21.7241452,75.3314903 28.960401,78.199707 38.6088867,78.199707 C41.206556,78.199707 43.9588071,77.8981964 46.8657227,77.295166 C49.7726382,76.6921357 52.1383372,75.9886108 53.9628906,75.1845703 L55.6791992,82.8847656 C53.7927966,84.121751 51.2492836,85.1190555 48.048584,85.876709 C44.8478844,86.6343625 41.6395018,87.0131836 38.4233398,87.0131836 C29.9809148,87.0131836 22.8451626,85.3973957 17.0158691,82.1657715 C11.1865757,78.9341473 6.84946084,74.148632 4.00439453,67.809082 C1.15932822,61.4695321 -0.108562744,53.7848759 0.200683594,44.7548828 C0.571779199,36.2196839 2.54319503,28.5736829 6.11499023,21.8166504 C9.68678544,15.0596179 14.5728043,9.83343319 20.7731934,6.13793945 C26.9735824,2.44244572 33.9701759,0.594726562 41.7631836,0.594726562 C49.5561913,0.594726562 56.2821983,2.21051444 61.9414062,5.44213867 C67.6006142,8.6737629 71.8526876,13.3201194 74.6977539,19.3813477 C77.5428202,25.4425759 78.7952491,32.4778245 78.4550781,40.4873047 L78.4550781,40.4873047 Z M32.0683594,45.7753906 C31.7281884,49.795593 32.0451611,52.8338927 33.0192871,54.8903809 C33.9934131,56.946869 35.5628147,57.9750977 37.7275391,57.9750977 C39.1809969,57.9750977 40.5184672,57.3256901 41.7399902,56.0268555 C42.9615133,54.7280208 43.9742798,52.8725707 44.7783203,50.4604492 L46.6337891,29.3081055 C45.70605,29.0607084 44.7474008,28.9370117 43.7578125,28.9370117 C40.2942535,28.9370117 37.6270439,30.2899442 35.7561035,32.9958496 C33.8851632,35.7017551 32.6559274,39.9615595 32.0683594,45.7753906 L32.0683594,45.7753906 Z" id="@" opacity="0.578183302" fill="#000000" sketch:type="MSShapeGroup"></path>
    </g>
</svg>