<?xml version="1.0" encoding="UTF-8" standalone="no"?>
<svg width="111px" height="79px" viewBox="0 0 111 79" version="1.1" xmlns="http://www.w3.org/2000/svg" xmlns:xlink="http://www.w3.org/1999/xlink" xmlns:sketch="http://www.bohemiancoding.com/sketch/ns">
    <!-- Generator: Sketch 3.4.2 (15855) - http://www.bohemiancoding.com/sketch -->
    <title>icon-asl</title>
    <desc>Created with Sketch.</desc>
    <defs></defs>
    <g id="Page-1" stroke="none" stroke-width="1" fill="none" fill-rule="evenodd" sketch:type="MSPage">
        <g id="hold" sketch:type="MSLayerGroup" transform="translate(5.000000, 3.000000)" fill="#FAE69B">
            <path d="M31.8859232,12.7922055 L31.8859232,32.6201241 C31.8859232,33.6793187 31.0291723,34.5389549 29.9735328,34.5389549 L29.9735328,34.5389549 C28.9178933,34.5389549 28.0611424,33.6793187 28.0611424,32.6201241 L28.0611424,3.83766165 C28.0611424,1.7179932 26.3489155,0 24.2363615,0 L24.2363615,0 C22.1238075,0 20.4115806,1.7179932 20.4115806,3.83766165 L20.4115806,32.6201241 C20.4115806,33.6793187 19.5548297,34.5389549 18.4991902,34.5389549 L18.4991902,34.5389549 C17.4435506,34.5389549 16.5867997,33.6793187 16.5867997,32.6201241 L16.5867997,9.59415414 C16.5867997,7.82755056 15.1601565,6.39610276 13.3994823,6.39610276 L13.3994823,6.39610276 C11.6388082,6.39610276 10.2121649,7.82755056 10.2121649,9.59415414 L10.2121649,35.1785652 C10.2121649,36.2377598 9.35541402,37.097396 8.2997745,37.097396 L8.2997745,37.097396 C7.24413498,37.097396 6.38738406,36.2377598 6.38738406,35.1785652 L6.38738406,19.1883083 C6.38738406,17.4217047 4.9607408,15.9902569 3.20006667,15.9902569 L3.1873174,15.9902569 C1.42664327,15.9902569 -3.55271368e-15,17.4217047 -3.55271368e-15,19.1883083 L-3.55271368e-15,53.8910034 C1.06583894,69.3439877 9.51095511,73 21.4315222,73 C29.9314602,73 37.2610153,68.6391371 40.7810886,62.3172292 C42.2612788,59.9199699 51.2278401,45.9112256 51.997896,44.4477973 C52.8954446,42.7413171 54.2098943,40.6868889 55.8672993,39.3283566 C56.7508237,38.6043178 57.338565,37.642344 57.8829588,36.6355974 C58.0219259,36.3771948 58.4260777,33.2507798 56.1095354,33.2597343 C54.1002506,33.2674097 51.806657,34.1168121 50.1428773,35.2450846 C48.2776591,36.5102338 45.8565728,38.6938632 43.7886413,42.3204535 C43.1167548,43.4998949 41.9132238,44.3211545 40.5605263,44.3518557 C39.2843244,44.3812778 39.6145305,43.7531805 39.535485,41.1077524 L39.535485,41.1077524 L39.535485,37.2854414 L39.535485,12.7922055 C39.535485,10.6725371 37.8232581,8.95454386 35.7107041,8.95454386 L35.7107041,8.95454386 C33.5981501,8.95454386 31.8859232,10.6725371 31.8859232,12.7922055 L31.8859232,12.7922055 Z" id="Shape" sketch:type="MSShapeGroup"></path>
        </g>
        <g id="hold" sketch:type="MSLayerGroup" transform="translate(77.225983, 37.391026) rotate(-45.000000) translate(-77.225983, -37.391026) translate(46.064512, -1.063555)" fill="#F4C519">
            <path d="M34.2073392,33.8135113 C34.2073392,34.9114559 33.3162538,35.8025414 32.2183092,35.8025414 C31.1203646,35.8025414 30.2292791,34.9114559 30.2292791,33.8135113 L30.2292791,3.97806015 C30.2292791,1.78084493 28.4484342,-7.10542736e-15 26.2512189,-7.10542736e-15 C24.0540037,-7.10542736e-15 22.2731588,1.78084493 22.2731588,3.97806015 L22.2731588,33.8135113 C22.2731588,34.9114559 21.3820733,35.8025414 20.2841287,35.8025414 C19.1861841,35.8025414 18.2950986,34.9114559 18.2950986,33.8135113 L18.2950986,9.94515038 C18.2950986,8.11391669 16.8112822,6.63010025 14.9800485,6.63010025 C13.1488148,6.63010025 11.6649984,8.11391669 11.6649984,9.94515038 L11.6649984,36.4655514 C11.6649984,37.563496 10.7739129,38.4545815 9.67596831,38.4545815 C8.57802371,38.4545815 7.68693823,37.563496 7.68693823,36.4655514 L7.68693823,19.8903008 C7.68693823,18.0590671 6.2031218,16.5752506 4.37188811,16.5752506 C2.52739422,16.5752506 1.04357778,18.0590671 1.04357778,19.8903008 L1.04357778,55.8625727 C2.15213054,71.8808949 10.9356874,75.6706602 23.3339748,75.6706602 C32.1745505,75.6706602 39.7978398,71.1502578 43.4589811,64.5970668 C44.9984904,62.1121052 54.3243894,47.5908596 55.1253055,46.0738927 C56.0588237,44.3049819 57.4259503,42.1753937 59.1497764,40.7671604 C60.0687083,40.0166331 60.6800035,39.019466 61.2462141,37.9758882 C61.3907503,37.7080322 61.8110986,34.4672392 59.4017202,34.4765213 C57.3119126,34.4844774 54.9264025,35.3649547 53.1959464,36.5345044 C51.255979,37.8459383 48.737867,40.1094545 46.5870624,43.8687213 C45.8882499,45.0913118 44.6364869,45.9426167 43.2295797,45.9744412 C41.9022336,46.0049396 42.2456728,45.3538638 42.1634595,42.6116543 L42.1634595,38.6495064 L42.1634595,13.2602005 C42.1634595,11.0629853 40.3826146,9.28214035 38.1853994,9.28214035 C35.9881842,9.28214035 34.2073392,11.0629853 34.2073392,13.2602005 L34.2073392,33.8135113 Z" id="Shape" sketch:type="MSShapeGroup"></path>
        </g>
    </g>
</svg>