<?xml version="1.0" encoding="UTF-8" standalone="no"?>
<svg width="111px" height="102px" viewBox="0 0 111 102" version="1.1" xmlns="http://www.w3.org/2000/svg" xmlns:xlink="http://www.w3.org/1999/xlink" xmlns:sketch="http://www.bohemiancoding.com/sketch/ns">
    <!-- Generator: Sketch 3.4.2 (15855) - http://www.bohemiancoding.com/sketch -->
    <title>joyful</title>
    <desc>Created with Sketch.</desc>
    <defs></defs>
    <g id="Page-1" stroke="none" stroke-width="1" fill="none" fill-rule="evenodd" sketch:type="MSPage">
        <g id="joyful" sketch:type="MSLayerGroup">
            <g id="Group" sketch:type="MSShapeGroup">
                <path d="M103.914894,41.895907 L103.914894,41.895907 C99.8055319,18.5473953 79.9247234,1.57032558 55.5,1.57032558 C31.0752766,1.57032558 11.1944681,18.5473953 7.08510638,41.895907 L7.08510638,41.895907 C3.15759574,43.4638605 0,48.068093 0,52.5703256 C0,57.2623256 3.03242553,61.2023721 7.22208511,62.6327442 C12.3044681,84.7193023 31.968,101.198233 55.5,101.198233 C79.0343617,101.198233 98.6955319,84.7169302 103.777915,62.6327442 L103.777915,62.6351163 C107.967574,61.2023721 111,57.2623256 111,52.5703256 C111,48.068093 107.842404,43.4638605 103.914894,41.895907 L103.914894,41.895907 Z" id="Shape" fill="#FDCB0E"></path>
                <path d="M56.6808511,91.7098605 C46.263383,91.7098605 37.787234,83.1964186 37.787234,72.7331163 C37.787234,71.4213488 38.8429149,70.3610233 40.1489362,70.3610233 C41.4549574,70.3610233 42.5106383,71.4213488 42.5106383,72.7331163 C42.5106383,80.5823721 48.8659787,86.9656744 56.6808511,86.9656744 C64.4957234,86.9656744 70.8510638,80.5823721 70.8510638,72.7331163 C70.8510638,71.4213488 71.9067447,70.3610233 73.212766,70.3610233 C74.5187872,70.3610233 75.5744681,71.4213488 75.5744681,72.7331163 C75.5744681,83.1964186 67.0983191,91.7098605 56.6808511,91.7098605 L56.6808511,91.7098605 Z" id="Shape" fill="#373737"></path>
                <ellipse id="Oval" fill="#373737" cx="40.1489362" cy="56.1284651" rx="4.72340426" ry="4.74418605"></ellipse>
                <ellipse id="Oval" fill="#373737" cx="73.212766" cy="56.1284651" rx="4.72340426" ry="4.74418605"></ellipse>
                <path d="M103.914894,41.895907 L103.914894,41.8982791 C99.8055319,18.5521395 79.5515745,0.801767442 55.1268511,0.801767442 C30.7021277,0.801767442 11.1944681,18.5473953 7.08510638,41.895907 C7.08510638,41.895907 47.0120426,52.1670698 73.7842979,30.6853953 C75.0950426,29.632186 77.0009362,29.8788837 77.9361702,31.2784186 C82.7752979,38.5180465 91.7001702,47.3042791 103.914894,41.895907 L103.914894,41.895907 Z" id="Shape" fill="#242424"></path>
            </g>
        </g>
    </g>
</svg>