<?xml version="1.0" encoding="UTF-8" standalone="no"?>
<svg width="164px" height="123px" viewBox="0 0 164 123" version="1.1" xmlns="http://www.w3.org/2000/svg" xmlns:xlink="http://www.w3.org/1999/xlink" xmlns:sketch="http://www.bohemiancoding.com/sketch/ns">
    <!-- Generator: Sketch 3.4.2 (15855) - http://www.bohemiancoding.com/sketch -->
    <title>icon-free</title>
    <desc>Created with Sketch.</desc>
    <defs></defs>
    <g id="Page-1" stroke="none" stroke-width="1" fill="none" fill-rule="evenodd" sketch:type="MSPage">
        <g id="eye" sketch:type="MSLayerGroup" transform="translate(4.000000, 3.000000)">
            <g id="Group" sketch:type="MSShapeGroup">
                <path id="Shape" fill="#FFDAAA" d="M78.18876,22.0316631 C78.099528,22.0316631 78.010608,22.0376631 77.921688,22.0386631 C77.940096,22.0386631 77.958504,22.0396631 77.976912,22.0396631 C78.047736,22.0396631 78.117936,22.0316631 78.18876,22.0316631 L78.18876,22.0316631 Z"></path>
                <path id="Shape" fill="#FFDAAA" d="M77.921688,116.708874 C78.01092,116.709874 78.09984,116.715874 78.18876,116.715874 C78.117936,116.715874 78.047424,116.707874 77.976912,116.706874 C77.958504,116.707874 77.940096,116.708874 77.921688,116.708874 L77.921688,116.708874 Z"></path>
                <path d="M30.975984,69.3706765 C30.975984,43.4470428 51.86688,22.3269786 77.654616,22.0382326 C62.085192,22.1302059 46.818096,26.340016 33.469488,34.2303209 C20.370168,41.9729679 9.421464,53.0410428 1.807728,66.2376417 L0,69.3706765 L1.807416,72.5037112 C9.421152,85.700623 20.369856,96.768385 33.469176,104.511032 C46.817784,112.401024 62.085192,116.611147 77.654304,116.70531 C51.86688,116.414374 30.975984,95.2943102 30.975984,69.3706765 L30.975984,69.3706765 Z" id="Shape" fill="#F8D862"></path>
                <path d="M154.03596,66.2379545 C146.422224,53.0410428 135.47352,41.9732807 122.3742,34.2306337 C109.455216,26.5946631 94.739424,22.4058128 79.691976,22.058254 C105.032304,22.8572326 125.401848,43.7727032 125.401848,69.3709893 C125.401848,94.9692754 105.032304,115.884746 79.691976,116.683725 C94.739424,116.336166 109.455528,112.147628 122.3742,104.511345 C135.47352,96.7686979 146.422224,85.700623 154.03596,72.5040241 L155.843376,69.3709893 L154.03596,66.2379545 L154.03596,66.2379545 Z" id="Shape" fill="#F8D862"></path>
                <path id="Shape" fill="#FFC477" d="M77.654616,116.70312 C77.743848,116.72412 77.832768,116.71812 77.921688,116.71712 C77.940096,116.71712 77.958504,116.71612 77.976912,116.71612 C77.869272,116.71412 77.761944,116.70612 77.654616,116.70312 L77.654616,116.70312 Z"></path>
                <path id="Shape" fill="#FFC477" d="M77.976912,22.0399759 C77.958504,22.0399759 77.940096,22.0389759 77.921688,22.0389759 C77.832456,22.0379759 77.743536,22.0319759 77.654616,22.0319759 C77.761944,22.0489759 77.869272,22.0409759 77.976912,22.0399759 L77.976912,22.0399759 Z"></path>
                <path d="M79.1399795,88.1407299 C68.8012355,88.1407299 60.4199795,79.7370642 60.4199795,69.3706765 C60.4199795,59.0042888 68.8012355,50.600623 79.1399795,50.600623 L79.1399795,22.0316631 C79.0691555,22.0316631 78.9986435,22.0341658 78.9281315,22.0344786 C78.8204915,22.0347914 78.7131635,22.0372941 78.6058355,22.0385455 C52.8180995,22.3269786 31.9272035,43.4470428 31.9272035,69.3706765 C31.9272035,95.2943102 52.8180995,116.414374 78.6058355,116.70312 C78.7134755,116.704059 78.8204915,116.706561 78.9281315,116.707187 C78.9989555,116.7075 79.0691555,116.710003 79.1399795,116.710003 L79.1399795,88.1407299 L79.1399795,88.1407299 Z" id="Shape" fill="#F3C519"></path>
                <path d="M124.450628,69.3706765 C124.450628,43.7723904 104.081084,22.8569198 78.7407565,22.0579412 C78.2415565,22.0422995 77.7407965,22.0316631 77.2378525,22.0316631 L77.2378525,50.600623 C77.4537565,50.600623 77.6674765,50.6090695 77.8811965,50.6168904 C80.0134045,45.9015401 84.7455085,42.6195963 90.2451325,42.6195963 C97.7406205,42.6195963 103.817132,48.7123556 103.817132,56.227885 C103.817132,61.7916417 100.485596,66.5723743 95.7148045,68.6821283 C95.8059085,68.6952674 95.8823485,68.6905749 95.9400685,68.6642968 C95.9488045,68.8989225 95.9578525,69.1335481 95.9578525,69.3706765 C95.9578525,79.7370642 87.5765965,88.1407299 77.2378525,88.1407299 L77.2378525,116.70969 C77.7407965,116.70969 78.2415565,116.699053 78.7407565,116.683412 C104.080772,115.884433 124.450628,94.9689626 124.450628,69.3706765 L124.450628,69.3706765 Z" id="Shape" fill="#F3C519"></path>
                <path d="M59.46876,69.3706765 C59.46876,79.7370642 67.850016,88.1407299 78.18876,88.1407299 C88.527504,88.1407299 96.90876,79.7370642 96.90876,69.3706765 C96.90876,69.133861 96.899712,68.8992353 96.890976,68.6642968 C96.833256,68.6905749 96.756816,68.6952674 96.665712,68.6821283 C94.992144,69.4222941 93.142608,69.8361738 91.19604,69.8361738 C83.700552,69.8361738 77.62404,63.7434144 77.62404,56.227885 C77.62404,54.2266845 78.058344,52.3280936 78.832104,50.6168904 C78.618072,50.6090695 78.404352,50.600623 78.18876,50.600623 C67.850016,50.600623 59.46876,59.0042888 59.46876,69.3706765 L59.46876,69.3706765 Z" id="Shape" fill="#F8D862"></path>
                <path d="M78.189072,12.6466364 C95.614272,12.6466364 112.721544,17.3144358 127.661976,26.1454332 C133.845504,29.8005882 139.645896,34.160246 144.901536,39.1039652 L153.44004,29.9773396 C147.514848,24.4045107 140.97408,19.4883209 133.999632,15.3654786 C117.1404,5.40045722 97.841328,0.13326738 78.189072,0.13326738 C58.536816,0.13326738 39.237744,5.40045722 22.378512,15.3657914 C15.404064,19.4883209 8.863608,24.4045107 2.938104,29.9773396 L11.476608,39.1039652 C16.732248,34.160246 22.532328,29.8005882 28.716168,26.1454332 C43.6566,17.3144358 60.763872,12.6466364 78.189072,12.6466364 Z" id="Shape" fill="#F3C519"></path>
                <path d="M77.62404,56.227885 C77.62404,63.7434144 83.700552,69.8361738 91.19604,69.8361738 C93.14292,69.8361738 94.992144,69.4222941 96.665712,68.6821283 C101.436192,66.5723743 104.76804,61.7916417 104.76804,56.227885 C104.76804,48.7123556 98.691528,42.6195963 91.19604,42.6195963 C85.696416,42.6195963 80.964312,45.9015401 78.832104,50.6168904 C78.058656,52.3284064 77.62404,54.2266845 77.62404,56.227885 L77.62404,56.227885 Z" id="Shape" fill="#FFFFFF"></path>
            </g>
        </g>
    </g>
</svg>