<?xml version="1.0" encoding="UTF-8" standalone="no"?>
<svg width="54px" height="54px" viewBox="0 0 54 54" version="1.1" xmlns="http://www.w3.org/2000/svg" xmlns:xlink="http://www.w3.org/1999/xlink" xmlns:sketch="http://www.bohemiancoding.com/sketch/ns">
    <!-- Generator: Sketch 3.4.2 (15855) - http://www.bohemiancoding.com/sketch -->
    <title>icon-video-subtitles</title>
    <desc>Created with Sketch.</desc>
    <defs></defs>
    <g id="Page-1" stroke="none" stroke-width="1" fill="none" fill-rule="evenodd" sketch:type="MSPage">
        <g id="menu-copy-2" sketch:type="MSLayerGroup">
            <g id="Oval" sketch:type="MSShapeGroup">
                <g id="Page-1">
                    <g id="menu" fill="#F9F3BD">
                        <path d="M27,54 C41.9116882,54 54,41.9116882 54,27 C54,12.0883118 41.9116882,0 27,0 C12.0883118,0 0,12.0883118 0,27 C0,41.9116882 12.0883118,54 27,54 L27,54 Z" id="Oval"></path>
                    </g>
                    <path d="M19.5013661,20.7707927 C18.1006336,20.7707927 17.00788,21.3444884 16.2230725,22.4918969 C15.4382649,23.6393054 15.045867,25.2213146 15.045867,27.237972 C15.045867,31.430235 16.6402939,33.5263352 19.8291954,33.5263352 C20.7928199,33.5263352 21.7266275,33.3922245 22.6306463,33.1239991 C23.5346652,32.8557738 24.4436375,32.5329147 25.3575906,32.1554124 L25.3575906,37.1324581 C23.5396187,37.9371342 21.483255,38.3394662 19.188438,38.3394662 C15.9001938,38.3394662 13.3794099,37.3857903 11.6260107,35.47841 C9.87261161,33.5710296 8.99592519,30.8143103 8.99592519,27.2081693 C8.99592519,24.9530894 9.42060898,22.9712317 10.2699893,21.2625368 C11.1193696,19.5538419 12.3412668,18.240054 13.9357176,17.3211338 C15.5301684,16.4022136 17.4052342,15.9427603 19.5609714,15.9427603 C21.915394,15.9427603 24.1654731,16.4543677 26.311276,17.4775978 L24.5082145,22.1119129 C23.7035384,21.7344105 22.8988744,21.4165185 22.0941983,21.1582274 C21.2895222,20.8999364 20.4252534,20.7707927 19.5013661,20.7707927 L19.5013661,20.7707927 Z M37.9742064,20.7707927 C36.5734739,20.7707927 35.4807203,21.3444884 34.6959128,22.4918969 C33.9111052,23.6393054 33.5187074,25.2213146 33.5187074,27.237972 C33.5187074,31.430235 35.1131342,33.5263352 38.3020358,33.5263352 C39.2656602,33.5263352 40.1994678,33.3922245 41.1034867,33.1239991 C42.0075055,32.8557738 42.9164778,32.5329147 43.8304309,32.1554124 L43.8304309,37.1324581 C42.012459,37.9371342 39.9560954,38.3394662 37.6612784,38.3394662 C34.3730341,38.3394662 31.8522502,37.3857903 30.0988511,35.47841 C28.3454519,33.5710296 27.4687655,30.8143103 27.4687655,27.2081693 C27.4687655,24.9530894 27.8934493,22.9712317 28.7428296,21.2625368 C29.5922099,19.5538419 30.8141072,18.240054 32.4085579,17.3211338 C34.0030087,16.4022136 35.8780746,15.9427603 38.0338117,15.9427603 C40.3882344,15.9427603 42.6383134,16.4543677 44.7841163,17.4775978 L42.9810548,22.1119129 C42.1763787,21.7344105 41.3717147,21.4165185 40.5670386,21.1582274 C39.7623625,20.8999364 38.8980938,20.7707927 37.9742064,20.7707927 L37.9742064,20.7707927 Z" id="CC" fill="#00457C"></path>
                </g>
            </g>
        </g>
    </g>
</svg>