<?xml version="1.0" encoding="UTF-8" standalone="no"?>
<svg width="208px" height="208px" viewBox="0 0 208 208" version="1.1" xmlns="http://www.w3.org/2000/svg" xmlns:xlink="http://www.w3.org/1999/xlink" xmlns:sketch="http://www.bohemiancoding.com/sketch/ns">
    <!-- Generator: Sketch 3.4.2 (15855) - http://www.bohemiancoding.com/sketch -->
    <title>Oval 1</title>
    <desc>Created with Sketch.</desc>
    <defs>
        <radialGradient cx="19.0314798%" cy="82.837181%" fx="19.0314798%" fy="82.837181%" r="93.8740711%" id="radialGradient-1">
            <stop stop-color="#FAA74F" offset="0%"></stop>
            <stop stop-color="#ED2046" offset="31.2732177%"></stop>
            <stop stop-color="#613DC8" offset="100%"></stop>
        </radialGradient>
    </defs>
    <g id="Page-1" stroke="none" stroke-width="1" fill="none" fill-rule="evenodd" sketch:type="MSPage">
        <circle id="Oval-1" fill="url(#radialGradient-1)" sketch:type="MSShapeGroup" cx="104" cy="104" r="104"></circle>
        <path d="M64.316,53.99 C56.967,53.99 50.99,59.969 50.99,67.317 L50.99,145.658 C50.99,153.007 56.967,158.984 64.316,158.984 L142.659,158.984 C150.007,158.984 155.985,153.007 155.985,145.658 L155.985,67.317 C155.985,59.969 150.007,53.99 142.659,53.99 L64.316,53.99 L64.316,53.99 Z M142.659,174.975 L64.316,174.975 C48.151,174.975 35,161.823 35,145.658 L35,67.317 C35,51.151 48.151,38 64.316,38 L142.659,38 C158.824,38 171.975,51.151 171.975,67.317 L171.975,145.658 C171.975,161.823 158.824,174.975 142.659,174.975 L142.659,174.975 Z" id="Fill-227" fill="#F1F2F2" sketch:type="MSShapeGroup"></path>
        <path d="M103.838,84.991 C91.791,84.991 81.99,94.791 81.99,106.838 C81.99,118.885 91.791,128.685 103.838,128.685 C115.886,128.685 125.687,118.885 125.687,106.838 C125.687,94.791 115.886,84.991 103.838,84.991 L103.838,84.991 Z M103.838,144.676 C82.974,144.676 66,127.701 66,106.838 C66,85.975 82.974,69 103.838,69 C124.702,69 141.678,85.975 141.678,106.838 C141.678,127.701 124.702,144.676 103.838,144.676 L103.838,144.676 Z" id="Fill-228" fill="#F1F2F2" sketch:type="MSShapeGroup"></path>
        <path d="M148.624,69.811 C148.624,73.573 145.573,76.623 141.812,76.623 C138.05,76.623 135,73.573 135,69.811 C135,66.049 138.05,63 141.812,63 C145.573,63 148.624,66.049 148.624,69.811" id="Fill-229" fill="#F1F2F2" sketch:type="MSShapeGroup"></path>
    </g>
</svg>