<?xml version="1.0" encoding="UTF-8" standalone="no"?>
<svg width="512px" height="314px" viewBox="0 0 512 314" version="1.1" xmlns="http://www.w3.org/2000/svg" xmlns:xlink="http://www.w3.org/1999/xlink" xmlns:sketch="http://www.bohemiancoding.com/sketch/ns">
    <!-- Generator: Sketch 3.4.2 (15855) - http://www.bohemiancoding.com/sketch -->
    <title>icon-free</title>
    <desc>Created with Sketch.</desc>
    <defs></defs>
    <g id="Page-1" stroke="none" stroke-width="1" fill="none" fill-rule="evenodd" sketch:type="MSPage">
        <g id="eye-(1)" sketch:type="MSLayerGroup">
            <g id="Layer_1" sketch:type="MSShapeGroup">
                <path d="M499.512,156.875 C499.512,156.875 390.488,301.207 256,301.207 C121.512,301.207 12.487,156.875 12.487,156.875 C12.487,156.875 121.511,12.545 255.999,12.545 C390.487,12.545 499.512,156.875 499.512,156.875 L499.512,156.875 Z" id="Shape" fill-opacity="0" fill="#EFEFEF"></path>
                <path d="M255.999,241.168 C209.519,241.168 171.706,203.355 171.706,156.875 C171.706,110.395 209.519,72.582 255.999,72.582 C302.479,72.582 340.292,110.395 340.292,156.875 C340.292,203.355 302.479,241.168 255.999,241.168 L255.999,241.168 Z" id="Shape" fill="#F3C519"></path>
                <g id="Group">
                    <path d="M509.476,149.348 C508.326,147.826 480.807,111.654 436.1,75.047 C376.185,25.987 313.907,0.055 256,0.055 C198.093,0.055 135.815,25.987 75.9,75.047 C31.194,111.654 3.674,147.826 2.524,149.348 C-0.84,153.801 -0.84,159.948 2.524,164.402 C3.674,165.924 31.194,202.096 75.9,238.702 C135.815,287.762 198.093,313.694 256,313.694 C313.907,313.694 376.185,287.762 436.1,238.702 C480.808,202.097 508.326,165.924 509.476,164.402 C512.84,159.948 512.84,153.803 509.476,149.348 L509.476,149.348 Z M255.999,288.719 C190.397,288.719 130.696,251.209 92.164,219.743 C61.368,194.591 38.757,169.141 28.525,156.877 C38.759,144.613 61.368,119.161 92.164,94.011 C130.695,62.544 190.397,25.033 255.999,25.033 C321.601,25.033 381.303,62.544 419.834,94.011 C450.625,119.158 473.231,144.604 483.468,156.871 C459.215,185.874 365.475,288.719 255.999,288.719 L255.999,288.719 Z" id="Shape" fill="#F3C519"></path>
                    <path d="M255.999,60.094 C202.635,60.094 159.219,103.51 159.219,156.874 C159.219,210.238 202.635,253.654 255.999,253.654 C309.363,253.654 352.78,210.238 352.78,156.874 C352.78,103.51 309.363,60.094 255.999,60.094 L255.999,60.094 Z M255.999,228.68 C216.405,228.68 184.194,196.469 184.194,156.875 C184.194,117.281 216.405,85.07 255.999,85.07 C295.593,85.07 327.804,117.281 327.804,156.875 C327.804,196.469 295.592,228.68 255.999,228.68 L255.999,228.68 Z" id="Shape" fill="#F3C519"></path>
                    <path d="M255.999,128.777 C240.505,128.777 227.901,141.382 227.901,156.875 C227.901,172.369 240.505,184.973 255.999,184.973 C271.493,184.973 284.097,172.369 284.097,156.875 C284.097,141.381 271.493,128.777 255.999,128.777 L255.999,128.777 Z" id="Shape" fill="#8E761E"></path>
                </g>
            </g>
        </g>
    </g>
</svg>