<?xml version="1.0" encoding="UTF-8" standalone="no"?>
<svg width="370px" height="370px" viewBox="0 0 370 370" version="1.1" xmlns="http://www.w3.org/2000/svg" xmlns:xlink="http://www.w3.org/1999/xlink" xmlns:sketch="http://www.bohemiancoding.com/sketch/ns">
    <!-- Generator: Sketch 3.4.2 (15855) - http://www.bohemiancoding.com/sketch -->
    <title>Rectangle 1</title>
    <desc>Created with Sketch.</desc>
    <defs></defs>
    <g id="Page-1" stroke="none" stroke-width="1" fill="none" fill-rule="evenodd" sketch:type="MSPage">
        <g id="Artboard-2" sketch:type="MSArtboardGroup" transform="translate(-75.000000, -16.000000)">
            <rect id="Rectangle-1" stroke="#979797" fill="#669999" sketch:type="MSShapeGroup" x="75" y="16" width="370" height="370"></rect>
            <path d="M231.148993,134.750492 C231.148993,157.272901 225.228705,174.302156 213.387952,185.83877 C201.547199,197.375384 184.154436,203.143605 161.209142,203.143605 L129,203.143605 L129,68.9278595 L165.350317,68.9278595 C186.823186,68.9278595 203.157659,74.5277765 214.354226,85.7277784 C225.550793,96.9277803 231.148993,113.268522 231.148993,134.750492 L231.148993,134.750492 Z M220.934094,135.117704 C220.934094,115.900214 216.041421,101.441412 206.255928,91.7408641 C196.470435,82.040316 182.099166,77.1901147 163.14169,77.1901147 L138.386664,77.1901147 L138.386664,194.88135 L160.656985,194.88135 C200.841925,194.88135 220.934094,174.960333 220.934094,135.117704 L220.934094,135.117704 Z M375.622487,195.156758 C367.37077,201.705393 356.404434,204.979661 342.723149,204.979661 C326.281067,204.979661 313.673614,203.174224 304.900414,199.563294 L304.900414,190.199405 C314.59388,194.299952 326.955932,196.350195 341.98694,196.350195 C353.03013,196.350195 361.787861,193.825642 368.260397,188.776461 C374.732933,183.72728 377.969153,177.102241 377.969153,168.901147 C377.969153,163.821365 376.895526,159.613777 374.748239,156.278257 C372.600952,152.942738 369.103994,149.897974 364.257261,147.143875 C359.410528,144.389776 352.293912,141.421514 342.907201,138.239 C329.164565,133.526431 319.670632,128.431425 314.425117,122.953828 C309.179602,117.476232 306.556884,110.177979 306.556884,101.058852 C306.556884,91.0216917 310.49863,82.8360208 318.38224,76.5015934 C326.265851,70.1671661 336.40396,67 348.796873,67 C361.43519,67 373.306441,69.3868498 384.410981,74.1606212 L381.006015,82.2392707 C369.840123,77.5879037 359.1652,75.2622552 348.980925,75.2622552 C339.042055,75.2622552 331.127887,77.5573031 325.238186,82.1474678 C319.348485,86.7376325 316.403679,92.9801629 316.403679,100.875246 C316.403679,105.832624 317.308593,109.902509 319.118449,113.085023 C320.928305,116.267538 323.888449,119.128697 327.99897,121.668588 C332.10949,124.20848 339.164756,127.253243 349.164977,130.802971 C359.656008,134.4139 367.5395,137.917673 372.81569,141.314395 C378.091881,144.711117 381.941602,148.566798 384.364968,152.881552 C386.788335,157.196307 388,162.413716 388,168.533936 C388,179.733938 383.874204,188.608123 375.622487,195.156758 Z M231.148993,286.606888 C231.148993,309.129296 225.228705,326.158552 213.387952,337.695166 C201.547199,349.23178 184.154436,355 161.209142,355 L129,355 L129,220.784255 L165.350317,220.784255 C186.823186,220.784255 203.157659,226.384172 214.354226,237.584174 C225.550793,248.784176 231.148993,265.124917 231.148993,286.606888 L231.148993,286.606888 Z M220.934094,286.974099 C220.934094,267.756609 216.041421,253.297808 206.255928,243.597259 C196.470435,233.896711 182.099166,229.04651 163.14169,229.04651 L138.386664,229.04651 L138.386664,346.737745 L160.656985,346.737745 C200.841925,346.737745 220.934094,326.816729 220.934094,286.974099 L220.934094,286.974099 Z M346.783931,230.846948 L346.783931,328.036662 C346.783931,340.143667 339.360565,346.197078 324.51361,346.197078 C320.157686,346.197078 315.587101,345.738486 310.801719,344.821289 L310.801719,350.874761 C314.421431,352.112977 319.053366,352.732076 324.697663,352.732076 C345.679723,352.732076 356.170596,344.271058 356.170596,327.348768 L356.170596,230.846948 L356.33713,230.846948 L356.33713,224.852616 L329.297031,224.852616 L329.297031,230.846948 L346.783931,230.846948 Z" id="DS" fill="#302D1E" sketch:type="MSShapeGroup"></path>
        </g>
    </g>
</svg>