<?xml version="1.0" encoding="UTF-8" standalone="no"?>
<svg width="258px" height="410px" viewBox="0 0 258 410" version="1.1" xmlns="http://www.w3.org/2000/svg" xmlns:xlink="http://www.w3.org/1999/xlink" xmlns:sketch="http://www.bohemiancoding.com/sketch/ns">
    <!-- Generator: Sketch 3.4.2 (15855) - http://www.bohemiancoding.com/sketch -->
    <title>faq</title>
    <desc>Created with Sketch.</desc>
    <defs></defs>
    <g id="Page-1" stroke="none" stroke-width="1" fill="none" fill-rule="evenodd" sketch:type="MSPage">
        <g id="faq" sketch:type="MSLayerGroup" transform="translate(-122.000000, -41.000000)">
            <g id="Group" sketch:type="MSShapeGroup">
                <g fill-opacity="0">
                    <circle id="Oval" fill="#F0F700" cx="251" cy="251" r="241"></circle>
                    <path d="M251,502 C183.956,502 120.924,475.892 73.516,428.484 C26.108,381.076 0,318.044 0,251 C0,183.956 26.108,120.924 73.516,73.516 C120.924,26.108 183.956,0 251,0 C318.045,0 381.076,26.108 428.483,73.516 C475.892,120.924 502,183.956 502,251 C502,318.044 475.892,381.076 428.483,428.484 C381.076,475.892 318.045,502 251,502 L251,502 Z M251,20 C123.626,20 20,123.626 20,251 C20,378.374 123.626,482 251,482 C378.374,482 482,378.374 482,251 C482,123.626 378.374,20 251,20 L251,20 Z" id="Shape" fill="#FFFFFF"></path>
                </g>
                <g transform="translate(122.000000, 41.000000)" id="Shape">
                    <g fill="#FFFFFF">
                        <path d="M248,129.359 C248,63.742 194.617,10.359 129,10.359 C63.383,10.359 10,63.742 10,129.359 C10,143.166 21.193,154.359 35,154.359 C48.807,154.359 60,143.166 60,129.359 C60,91.312 90.953,60.359 129,60.359 C167.047,60.359 198,91.312 198,129.359 C198,167.681 167.047,198.859 129,198.859 C115.193,198.859 104,210.052 104,223.859 L104,292.64 C104,306.447 115.193,317.64 129,317.64 C142.808,317.64 154,306.447 154,292.64 L154,246.197 C207.653,234.632 248,186.642 248,129.359 L248,129.359 Z" fill-opacity="0"></path>
                        <path d="M129,327.641 C109.701,327.641 94,311.94 94,292.641 L94,223.86 C94,204.561 109.701,188.86 129,188.86 C161.532,188.86 188,162.169 188,129.36 C188,96.827 161.532,70.36 129,70.36 C96.467,70.36 70,96.827 70,129.36 C70,148.659 54.299,164.36 35,164.36 C15.701,164.36 0,148.659 0,129.36 C0,58.229 57.869,0.36 129,0.36 C200.131,0.36 258,58.229 258,129.36 C258,159.116 247.655,188.195 228.871,211.241 C212.08,231.842 189.275,246.823 164,254.004 L164,292.642 C164,311.939 148.299,327.641 129,327.641 L129,327.641 Z M129,50.359 C172.561,50.359 208,85.798 208,129.359 C208,173.195 172.561,208.859 129,208.859 C120.729,208.859 114,215.588 114,223.859 L114,292.64 C114,300.911 120.729,307.64 129,307.64 C137.271,307.64 144,300.911 144,292.64 L144,246.197 C144,241.486 147.288,237.414 151.893,236.422 C201.787,225.667 238,180.641 238,129.359 C238,69.256 189.103,20.359 129,20.359 C68.897,20.359 20,69.256 20,129.359 C20,137.63 26.729,144.359 35,144.359 C43.271,144.359 50,137.63 50,129.359 C50,85.799 85.439,50.359 129,50.359 L129,50.359 Z"></path>
                    </g>
                    <g transform="translate(94.000000, 345.000000)">
                        <path d="M35,10.641 C21.193,10.641 10,21.834 10,35.641 L10,39.641 C10,53.448 21.193,64.641 35,64.641 C48.807,64.641 60,53.448 60,39.641 L60,35.641 C60,21.833 48.807,10.641 35,10.641 L35,10.641 Z" fill="#FFF9E6"></path>
                        <path d="M35,74.641 C15.701,74.641 0,58.94 0,39.641 L0,35.641 C0,16.342 15.701,0.641 35,0.641 C54.299,0.641 70,16.342 70,35.641 L70,39.641 C70,58.939 54.299,74.641 35,74.641 L35,74.641 Z M35,20.641 C26.729,20.641 20,27.37 20,35.641 L20,39.641 C20,47.912 26.729,54.641 35,54.641 C43.271,54.641 50,47.912 50,39.641 L50,35.641 C50,27.37 43.271,20.641 35,20.641 L35,20.641 Z" fill-opacity="0" fill="#FFFFFF"></path>
                    </g>
                </g>
                <path d="M168.992,450.034 C167.662,450.034 166.31,449.767 165.013,449.203 C116.532,428.143 77.517,390.152 55.157,342.227 C52.822,337.222 54.986,331.272 59.991,328.937 C64.994,326.602 70.946,328.766 73.281,333.771 C93.575,377.266 128.983,411.746 172.982,430.859 C178.047,433.059 180.37,438.949 178.17,444.015 C176.532,447.784 172.854,450.034 168.992,450.034 L168.992,450.034 Z" id="Shape" fill-opacity="0" fill="#FFFFFF"></path>
            </g>
        </g>
    </g>
</svg>