<?xml version="1.0" encoding="UTF-8" standalone="no"?>
<svg width="79px" height="79px" viewBox="0 0 79 79" version="1.1" xmlns="http://www.w3.org/2000/svg" xmlns:xlink="http://www.w3.org/1999/xlink" xmlns:sketch="http://www.bohemiancoding.com/sketch/ns">
    <!-- Generator: Sketch 3.4.2 (15855) - http://www.bohemiancoding.com/sketch -->
    <title>icon-dst</title>
    <desc>Created with Sketch.</desc>
    <defs></defs>
    <g id="Page-1" stroke="none" stroke-width="1" fill="none" fill-rule="evenodd" sketch:type="MSPage">
        <g id="books" sketch:type="MSLayerGroup" transform="translate(1.000000, 6.000000)">
            <g id="Layer_1" sketch:type="MSShapeGroup">
                <g id="Group">
                    <path d="M73.299875,70.5666667 L16.0082083,70.5666667 C9.84866667,70.5666667 4.85543056,65.5961271 4.85543056,59.4645833 L4.85543056,57.3354167 C4.85543056,51.2038729 9.84866667,46.2333333 16.0082083,46.2333333 L73.299875,46.2333333 L73.299875,70.5666667 L73.299875,70.5666667 Z" id="Shape" fill="#FFFFFF"></path>
                    <rect id="Rectangle-path" fill="#FFFFFF" x="7.299875" y="48.6666667" width="6.11111111" height="19.4666667"></rect>
                    <path d="M67.4943194,42.5833333 L2.41098611,42.5833333 L2.41098611,25.55 L67.4943194,25.55 C69.3505694,25.55 70.8554306,27.0480208 70.8554306,28.8958333 L70.8554306,39.2375 C70.8554306,41.0853125 69.3505694,42.5833333 67.4943194,42.5833333 L67.4943194,42.5833333 Z" id="Shape" fill="#FFFFFF"></path>
                    <rect id="Rectangle-path" fill="#FFFFFF" x="10.9665417" y="3.65" width="62.3333333" height="18.25"></rect>
                    <path d="M73.3333333,73 L17.1111111,73 C9.02397222,73 2.44444444,66.4509875 2.44444444,58.4 C2.44444444,50.3490125 9.02397222,43.8 17.1111111,43.8 L73.3333333,43.8 C74.6832778,43.8 75.7777778,44.889525 75.7777778,46.2333333 C75.7777778,47.5771417 74.6832778,48.6666667 73.3333333,48.6666667 L17.1111111,48.6666667 C11.7197361,48.6666667 7.33333333,53.0331312 7.33333333,58.4 C7.33333333,63.7668688 11.7197361,68.1333333 17.1111111,68.1333333 L73.3333333,68.1333333 C74.6832778,68.1333333 75.7777778,69.2228583 75.7777778,70.5666667 C75.7777778,71.910475 74.6832778,73 73.3333333,73 L73.3333333,73 Z" id="Shape" fill="#F3C519"></path>
                    <path d="M66,43.8 L1.22222222,43.8 C0.546638889,43.8 0,43.2558458 0,42.5833333 C0,41.9108208 0.546638889,41.3666667 1.22222222,41.3666667 L66,41.3666667 C68.0218611,41.3666667 69.6666667,39.7293375 69.6666667,37.7166667 L69.6666667,30.4166667 C69.6666667,28.4039958 68.0218611,26.7666667 66,26.7666667 L1.22222222,26.7666667 C0.546638889,26.7666667 0,26.2225125 0,25.55 C0,24.8774875 0.546638889,24.3333333 1.22222222,24.3333333 L66,24.3333333 C69.3695139,24.3333333 72.1111111,27.0624687 72.1111111,30.4166667 L72.1111111,37.7166667 C72.1111111,41.0708646 69.3695139,43.8 66,43.8 L66,43.8 Z" id="Shape" fill="#F3C519"></path>
                    <path d="M73.299875,9.73333333 L17.0776528,9.73333333 C16.4026806,9.73333333 15.8554306,9.18857083 15.8554306,8.51666667 L15.8554306,8.51666667 C15.8554306,7.8447625 16.4026806,7.3 17.0776528,7.3 L73.299875,7.3 L73.299875,9.73333333 L73.299875,9.73333333 Z" id="Shape" fill="#F8D862"></path>
                    <path d="M73.299875,14.6 L17.0776528,14.6 C16.4026806,14.6 15.8554306,14.0552375 15.8554306,13.3833333 L15.8554306,13.3833333 C15.8554306,12.7114292 16.4026806,12.1666667 17.0776528,12.1666667 L73.299875,12.1666667 L73.299875,14.6 L73.299875,14.6 Z" id="Shape" fill="#F8D862"></path>
                    <path d="M73.299875,19.4666667 L17.0776528,19.4666667 C16.4026806,19.4666667 15.8554306,18.9219042 15.8554306,18.25 L15.8554306,18.25 C15.8554306,17.5780958 16.4026806,17.0333333 17.0776528,17.0333333 L73.299875,17.0333333 L73.299875,19.4666667 L73.299875,19.4666667 Z" id="Shape" fill="#F8D862"></path>
                    <path d="M2.41098611,29.2 L65.9665417,29.2 C66.6415139,29.2 67.1887639,29.7447625 67.1887639,30.4166667 L67.1887639,30.4166667 C67.1887639,31.0885708 66.6415139,31.6333333 65.9665417,31.6333333 L2.41098611,31.6333333 C2.41098611,31.6333333 2.41098611,29.2 2.41098611,29.2 L2.41098611,29.2 Z" id="Shape" fill="#F8D862"></path>
                    <path d="M2.41098611,34.0666667 L65.9665417,34.0666667 C66.6415139,34.0666667 67.1887639,34.6114292 67.1887639,35.2833333 L67.1887639,35.2833333 C67.1887639,35.9552375 66.6415139,36.5 65.9665417,36.5 L2.41098611,36.5 C2.41098611,36.5 2.41098611,34.0666667 2.41098611,34.0666667 L2.41098611,34.0666667 Z" id="Shape" fill="#F8D862"></path>
                    <path d="M2.41098611,38.9333333 L65.9665417,38.9333333 C66.6415139,38.9333333 67.1887639,39.4780958 67.1887639,40.15 L67.1887639,40.15 C67.1887639,40.8219042 66.6415139,41.3666667 65.9665417,41.3666667 L2.41098611,41.3666667 C2.41098611,41.3666667 2.41098611,38.9333333 2.41098611,38.9333333 L2.41098611,38.9333333 Z" id="Shape" fill="#F8D862"></path>
                    <path d="M74.5555556,24.3333333 L15.8888889,24.3333333 C11.8450139,24.3333333 8.55555556,21.0588271 8.55555556,17.0333333 L8.55555556,7.3 C8.55555556,3.27450625 11.8450139,0 15.8888889,0 L74.5555556,0 C75.9055,0 77,1.089525 77,2.43333333 C77,3.77714167 75.9055,4.86666667 74.5555556,4.86666667 L15.8888889,4.86666667 C14.5407778,4.86666667 13.4444444,5.95801667 13.4444444,7.3 L13.4444444,17.0333333 C13.4444444,18.3747083 14.5407778,19.4666667 15.8888889,19.4666667 L74.5555556,19.4666667 C75.9055,19.4666667 77,20.5561917 77,21.9 C77,23.2438083 75.9055,24.3333333 74.5555556,24.3333333 L74.5555556,24.3333333 Z" id="Shape" fill="#F3C519"></path>
                    <path d="M17.0776528,65.7 C16.4020694,65.7 15.8554306,66.2441542 15.8554306,66.9166667 C15.8554306,67.5891792 16.4020694,68.1333333 17.0776528,68.1333333 L73.299875,68.1333333 L73.299875,65.7 L17.0776528,65.7 L17.0776528,65.7 Z" id="Shape" fill="#F8D862"></path>
                    <path d="M17.0776528,60.8333333 C16.4020694,60.8333333 15.8554306,61.3774875 15.8554306,62.05 C15.8554306,62.7225125 16.4020694,63.2666667 17.0776528,63.2666667 L73.299875,63.2666667 L73.299875,60.8333333 L17.0776528,60.8333333 L17.0776528,60.8333333 Z" id="Shape" fill="#F8D862"></path>
                    <path d="M17.0776528,55.9666667 C16.4020694,55.9666667 15.8554306,56.5108208 15.8554306,57.1833333 C15.8554306,57.8558458 16.4020694,58.4 17.0776528,58.4 L73.299875,58.4 L73.299875,55.9666667 L17.0776528,55.9666667 L17.0776528,55.9666667 Z" id="Shape" fill="#F8D862"></path>
                    <path d="M17.0776528,51.1 C16.4020694,51.1 15.8554306,51.6441542 15.8554306,52.3166667 C15.8554306,52.9891792 16.4020694,53.5333333 17.0776528,53.5333333 L73.299875,53.5333333 L73.299875,51.1 L17.0776528,51.1 L17.0776528,51.1 Z" id="Shape" fill="#F8D862"></path>
                </g>
            </g>
        </g>
    </g>
</svg>