<?xml version="1.0" encoding="UTF-8" standalone="no"?>
<svg width="334px" height="294px" viewBox="0 0 334 294" version="1.1" xmlns="http://www.w3.org/2000/svg" xmlns:xlink="http://www.w3.org/1999/xlink" xmlns:sketch="http://www.bohemiancoding.com/sketch/ns">
    <!-- Generator: Sketch 3.4.2 (15855) - http://www.bohemiancoding.com/sketch -->
    <title>Slice 15</title>
    <desc>Created with Sketch.</desc>
    <defs></defs>
    <g id="Page-1" stroke="none" stroke-width="1" fill="none" fill-rule="evenodd" sketch:type="MSPage">
        <path d="M170.870526,28.7196921 C202.916659,46.8856942 224.484478,81.0554481 224.484478,120.271515 L224.484478,134.376849 L224.484478,137.775725 L246.181215,178.845473 C251.662497,189.212044 246.466699,197.709234 234.704783,197.709234 L224.484478,197.709234 L224.484478,215.836571 L224.484478,236.739657 C224.484478,248.918962 214.435463,258.945645 202.10258,258.945645 L171.400586,262.505993 L171.400586,261.947992 L140.62548,258.379166 C128.292597,258.379166 118.243582,248.352482 118.243582,236.173178 L118.243582,215.270092 L118.243582,197.142754 L108.023277,197.142754 C96.2613611,197.142754 91.0655634,188.645565 96.5468445,178.278994 L118.243582,137.209246 L118.243582,133.81037 L118.243582,119.705036 C118.243582,80.8929451 139.369336,47.0237359 170.870532,28.7196957 L170.870526,28.7196921 Z M172.966994,27.533002 C175.194537,26.3051298 177.471354,25.15404 179.793801,24.0833314 C193.5541,17.6254675 208.970203,14 225.242756,14 C283.995237,14 331.670963,61.2443728 331.72806,119.59174 C331.72806,150.408213 318.424534,178.10905 297.241667,197.425994 L297.241667,253.280852 L297.241667,257.132911 L297.241667,261.947985 C297.241667,266.139932 293.815866,270.161935 289.647808,270.898358 L185,289.274049 L185,276.006024 C185,271.588092 181.420025,268 177.003902,268 L171.43053,268 L171.43053,263.631566 L202.41737,260.009721 C214.835103,260.009721 224.953256,249.834078 224.953256,237.473835 L224.953256,216.260208 L224.953256,197.863567 L235.243877,197.863567 C247.086715,197.863567 252.31826,189.240141 246.799267,178.719562 L224.953256,137.039671 L224.953256,133.590301 L224.953256,119.275415 C224.953256,80.3032702 204.129674,46.2419024 172.966994,27.533002 Z" id="Shape" fill="#F3C519" sketch:type="MSShapeGroup"></path>
        <path d="M172.138289,268 L172.138289,261.335631 L202.842399,257.746831 C215.14683,257.746831 225.172663,247.664034 225.172663,235.416568 L225.172663,214.396498 L225.172663,196.167711 L235.369391,196.167711 C247.104172,196.167711 252.287983,187.622967 246.819347,177.19838 L225.172663,135.898785 L225.172663,132.480887 L225.172663,118.296613 C225.172663,75.6868237 200.051116,39.0013904 163.764438,22.1397626 C150.035883,15.6457574 134.655344,12 118.420331,12 C59.8033881,12 12.2376476,59.5087755 12.1806827,118.182683 C12.1806827,149.17162 25.453518,177.027485 46.5875177,196.452536 L46.5875177,252.619985 L46.5875177,256.493602 L46.5875177,261.335624 C46.5875177,265.551031 50.0054152,269.595543 54.1638572,270.336087 L160,289.067665 L160,276.006024 C160,271.584419 163.58189,268 167.996098,268 L172.138289,268 Z" id="Path" fill="#8E761E" sketch:type="MSShapeGroup"></path>
        <path d="M232.638652,121.801632 L232.638652,136.200894 L232.638652,139.670596 L256.588091,181.596158 C262.638476,192.178748 256.903216,200.853003 243.920099,200.853003 L232.638652,200.853003 L232.638652,219.358078 L232.638652,240.696744 C232.638652,253.129841 221.54628,263.365461 207.932915,263.365461 L174.043232,267 L140.072846,262.787178 C126.459481,262.787178 115.367109,252.551558 115.367109,240.11846 L115.367109,218.779795 L115.367109,200.274719 L104.085663,200.274719 C91.1025454,200.274719 85.3672849,191.600465 91.4176696,181.017875 L115.367109,139.092312 L115.367109,135.622611 L115.367109,121.223349 C115.367109,81.60249 138.686282,47.0275125 173.458144,28.3420517 C208.831517,46.8865943 232.638652,81.7683792 232.638652,121.801632 Z" id="Path" fill="#CEA923" sketch:type="MSShapeGroup"></path>
        <ellipse id="Oval-1" fill="#FFFFFF" sketch:type="MSShapeGroup" cx="171.744427" cy="127.612825" rx="12.5990214" ry="12.5"></ellipse>
    </g>
</svg>