<?xml version="1.0" encoding="UTF-8" standalone="no"?>
<svg width="54px" height="54px" viewBox="0 0 54 54" version="1.1" xmlns="http://www.w3.org/2000/svg" xmlns:xlink="http://www.w3.org/1999/xlink" xmlns:sketch="http://www.bohemiancoding.com/sketch/ns">
    <!-- Generator: Sketch 3.4.2 (15855) - http://www.bohemiancoding.com/sketch -->
    <title>icon-video-pause</title>
    <desc>Created with Sketch.</desc>
    <defs></defs>
    <g id="Page-1" stroke="none" stroke-width="1" fill="none" fill-rule="evenodd" sketch:type="MSPage">
        <g id="menu-copy" sketch:type="MSLayerGroup">
            <g id="Oval" sketch:type="MSShapeGroup">
                <g id="Page-1">
                    <g id="menu">
                        <path d="M27,54 C41.9116882,54 54,41.9116882 54,27 C54,12.0883118 41.9116882,0 27,0 C12.0883118,0 0,12.0883118 0,27 C0,41.9116882 12.0883118,54 27,54 L27,54 Z" id="Oval" fill="#F9F3BD"></path>
                        <g id="Shape-+-Shape" transform="translate(27.000000, 27.000000) rotate(-270.000000) translate(-27.000000, -27.000000) translate(15.000000, 17.000000)" fill="#00457C">
                            <path d="M-1.77635684e-15,6 L24,6 L24,0 L-1.77635684e-15,0 L-1.77635684e-15,6 L-1.77635684e-15,6 Z" id="Shape"></path>
                            <path d="M1.77635684e-15,20 L24,20 L24,14 L1.77635684e-15,14 L1.77635684e-15,20 L1.77635684e-15,20 Z" id="Shape"></path>
                        </g>
                    </g>
                </g>
            </g>
        </g>
    </g>
</svg>