<?xml version="1.0" encoding="UTF-8" standalone="no"?>
<svg width="111px" height="92px" viewBox="0 0 111 92" version="1.1" xmlns="http://www.w3.org/2000/svg" xmlns:xlink="http://www.w3.org/1999/xlink" xmlns:sketch="http://www.bohemiancoding.com/sketch/ns">
    <!-- Generator: Sketch 3.4.2 (15855) - http://www.bohemiancoding.com/sketch -->
    <title>icon-asl</title>
    <desc>Created with Sketch.</desc>
    <defs></defs>
    <g id="Page-1" stroke="none" stroke-width="1" fill="none" fill-rule="evenodd" sketch:type="MSPage">
        <g id="hold" sketch:type="MSLayerGroup" transform="translate(56.518290, 43.689863) rotate(-45.000000) translate(-56.518290, -43.689863) translate(26.018290, -19.810137)" fill="#F4C519">
            <path d="M28.6926226,78.211596 C27.1880886,78.735269 25.5817643,79.0304871 23.870636,79.0304871 C11.4723485,79.0304871 3.41243178,72.067837 2.30387902,56.0495148 C2.30387902,56.0495148 1.16036901,44.0347306 0.889665365,39.7860565 C0.392409337,31.9816593 6.57252031e-14,19.8903008 6.57252031e-14,19.8903008 C6.57252031e-14,18.0590671 1.48381644,16.5752506 3.32831033,16.5752506 C5.15954402,16.5752506 6.64336045,18.0590671 6.64336045,19.8903008 L6.64336045,36.4655514 C6.64336045,37.563496 7.65497211,42.4380966 8.75291671,42.4380966 C9.85086131,42.4380966 10.6214206,37.563496 10.6214206,36.4655514 L10.6214206,9.94515038 C10.6214206,8.11391669 12.105237,6.63010025 13.9364707,6.63010025 C15.7677044,6.63010025 17.2515209,8.11391669 17.2515209,9.94515038 L17.2515209,33.8135113 C17.2515209,34.9114559 18.2631325,39.7860565 19.3610771,39.7860565 C20.4590217,39.7860565 21.229581,34.9114559 21.229581,33.8135113 L21.229581,3.97806015 C21.229581,1.78084493 23.0104259,6.21724894e-14 25.2076412,6.21724894e-14 C27.4048564,6.21724894e-14 29.1857013,1.78084493 29.1857013,3.97806015 L29.1857013,33.8135113 C29.1857013,34.9114559 30.197313,39.7860565 31.2952576,39.7860565 C32.3932022,39.7860565 33.1637615,34.9114559 33.1637615,33.8135113 L33.1637615,13.2602005 C33.1637615,11.0629853 34.9446064,9.28214035 37.1418216,9.28214035 C39.3390368,9.28214035 41.1198818,11.0629853 41.1198818,13.2602005 L41.1198818,38.6495064 L41.1198818,42.6116543 C41.202095,45.3538638 40.8586558,46.0049396 42.1860019,45.9744412 C43.5929092,45.9426167 44.8446721,45.0913118 45.5434847,43.8687213 C47.6942892,40.1094545 50.2124013,37.8459383 52.1523686,36.5345044 C53.8828248,35.3649547 56.2683348,34.4844774 58.3581424,34.4765213 C60.7675209,34.4672392 60.3471725,37.7080322 60.2026363,37.9758882 C59.6364258,39.019466 59.0251305,40.0166331 58.1061986,40.7671604 C56.3823725,42.1753937 55.0152459,44.3049819 54.0817278,46.0738927 C53.2808116,47.5908596 43.9549126,62.1121052 42.4154034,64.5970668 C40.6517238,67.7539318 38.3352908,71.2187535 35.4196417,73.9622361 L38.8843577,79.2974308 L41.0422981,82.6203676 C42.6047623,84.8754015 42.6713312,85.60849 43.7679267,84.8599874 C44.9305255,84.0670405 45.5166884,82.6713172 45.4368914,81.2653659 C45.1932644,76.9411674 46.0723316,73.6713608 46.9850671,71.5149179 C47.7993673,69.591577 49.3204821,67.5539047 51.068809,66.4090414 C53.0844283,65.0890152 54.4969569,68.035911 54.5216235,68.339274 C54.6151326,69.5228724 54.6455534,70.6921023 54.2836387,71.8220337 C53.6048954,73.9419405 53.6181833,76.472554 53.798687,78.4645177 C53.9531817,80.1729634 54.0406618,97.4307534 54.1029278,100.353294 C54.6015599,107.843263 53.8253119,117.743461 46.4109813,122.558383 C36.0129025,129.310975 25.4611565,127.86135 15.8072424,115.031016 C15.8072424,115.031016 5.19641874,103.884995 5.76346882,102.161568 C6.33051889,100.438141 12.881737,100.701106 13.8025508,100.103123 C14.7233647,99.505139 11.0424406,95.8020358 12.1167288,94.0764644 C13.191017,92.3508931 17.6028837,93.1177818 18.5236976,92.5197983 C19.4445114,91.9218148 17.3524471,87.2783673 19.5690762,86.0746582 C21.7857052,84.8709491 30.3429303,86.1994792 31.2637441,85.6014958 C32.1845579,85.0035123 30.1759055,80.4956515 29.5779221,79.5748377 L28.6926226,78.211596 Z M28.6926226,78.211596 C31.2167104,77.3330538 33.4543067,75.8115198 35.4196417,73.9622361 L25.0563506,58.0041672 C23.8596615,56.1614274 21.3962016,55.6378029 19.5534618,56.8344921 C17.7107221,58.0311812 17.1870975,60.4946411 18.3837867,62.3373809 L28.6926226,78.211596 Z" id="Shape" sketch:type="MSShapeGroup"></path>
        </g>
    </g>
</svg>