<?xml version="1.0" encoding="UTF-8" standalone="no"?>
<svg width="415px" height="204px" viewBox="0 0 415 204" version="1.1" xmlns="http://www.w3.org/2000/svg" xmlns:xlink="http://www.w3.org/1999/xlink" xmlns:sketch="http://www.bohemiancoding.com/sketch/ns">
    <!-- Generator: Sketch 3.4.2 (15855) - http://www.bohemiancoding.com/sketch -->
    <title>icon-clerccenter</title>
    <desc>Created with Sketch.</desc>
    <defs></defs>
    <g id="Page-1" stroke="none" stroke-width="1" fill="none" fill-rule="evenodd" sketch:type="MSPage">
        <path d="M81.3999023,68.0825195 C80.6306928,78.7157107 76.7055204,87.0863952 69.6242676,93.1948242 C62.5430147,99.3032532 53.2108327,102.357422 41.6274414,102.357422 C28.9581072,102.357422 18.992468,98.0928975 11.7302246,89.5637207 C4.46798127,81.0345439 0.836914062,69.3268973 0.836914062,54.4404297 L0.836914062,48.3999023 C0.836914062,38.8979017 2.51105097,30.5272172 5.859375,23.2875977 C9.20769903,16.0479781 13.9925633,10.4939158 20.2141113,6.62524414 C26.4356594,2.75657245 33.6638586,0.822265625 41.8989258,0.822265625 C53.3013265,0.822265625 62.486456,3.8764343 69.4545898,9.98486328 C76.4227236,16.0932923 80.4497016,24.667588 81.5356445,35.7080078 L61.1743164,35.7080078 C60.6765926,29.3280931 58.90065,24.7015931 55.8464355,21.8283691 C52.7922211,18.9551451 48.1430976,17.5185547 41.8989258,17.5185547 C35.1117825,17.5185547 30.0328131,19.9505779 26.6618652,24.8146973 C23.2909174,29.6788166 21.5602218,37.2237444 21.4697266,47.449707 L21.4697266,54.9155273 C21.4697266,65.5939662 23.0873048,73.3990639 26.3225098,78.3310547 C29.5577147,83.2630455 34.6593076,85.7290039 41.6274414,85.7290039 C47.9168609,85.7290039 52.6112312,84.2924135 55.7106934,81.4191895 C58.8101555,78.5459655 60.586098,74.1004533 61.0385742,68.0825195 L81.3999023,68.0825195 Z M115.131836,84.6430664 L158.365723,84.6430664 L158.365723,101 L94.7705078,101 L94.7705078,2.1796875 L115.131836,2.1796875 L115.131836,84.6430664 Z M229.494629,58.1733398 L190.400879,58.1733398 L190.400879,84.6430664 L236.281738,84.6430664 L236.281738,101 L170.039551,101 L170.039551,2.1796875 L236.145996,2.1796875 L236.145996,18.6723633 L190.400879,18.6723633 L190.400879,42.2236328 L229.494629,42.2236328 L229.494629,58.1733398 Z M284.80957,64.824707 L268.588379,64.824707 L268.588379,101 L248.227051,101 L248.227051,2.1796875 L284.945312,2.1796875 C296.619199,2.1796875 305.623341,4.78138674 311.958008,9.98486328 C318.292675,15.1883398 321.459961,22.5409681 321.459961,32.0429688 C321.459961,38.7848644 320.000747,44.4067972 317.082275,48.9089355 C314.163804,53.4110739 309.740915,56.9968942 303.813477,59.6665039 L325.192871,100.049805 L325.192871,101 L303.338379,101 L284.80957,64.824707 Z M268.588379,48.3320312 L285.013184,48.3320312 C290.126165,48.3320312 294.085272,47.0311816 296.890625,44.4294434 C299.695978,41.8277051 301.098633,38.2418848 301.098633,33.671875 C301.098633,29.0113699 299.77516,25.3463675 297.128174,22.6767578 C294.481188,20.0071481 290.420275,18.6723633 284.945312,18.6723633 L268.588379,18.6723633 L268.588379,48.3320312 Z M414.51123,68.0825195 C413.742021,78.7157107 409.816849,87.0863952 402.735596,93.1948242 C395.654343,99.3032532 386.322161,102.357422 374.73877,102.357422 C362.069435,102.357422 352.103796,98.0928975 344.841553,89.5637207 C337.579309,81.0345439 333.948242,69.3268973 333.948242,54.4404297 L333.948242,48.3999023 C333.948242,38.8979017 335.622379,30.5272172 338.970703,23.2875977 C342.319027,16.0479781 347.103891,10.4939158 353.325439,6.62524414 C359.546987,2.75657245 366.775187,0.822265625 375.010254,0.822265625 C386.412655,0.822265625 395.597784,3.8764343 402.565918,9.98486328 C409.534052,16.0932923 413.56103,24.667588 414.646973,35.7080078 L394.285645,35.7080078 C393.787921,29.3280931 392.011978,24.7015931 388.957764,21.8283691 C385.903549,18.9551451 381.254426,17.5185547 375.010254,17.5185547 C368.223111,17.5185547 363.144141,19.9505779 359.773193,24.8146973 C356.402246,29.6788166 354.67155,37.2237444 354.581055,47.449707 L354.581055,54.9155273 C354.581055,65.5939662 356.198633,73.3990639 359.433838,78.3310547 C362.669043,83.2630455 367.770636,85.7290039 374.73877,85.7290039 C381.028189,85.7290039 385.722559,84.2924135 388.822021,81.4191895 C391.921484,78.5459655 393.697426,74.1004533 394.149902,68.0825195 L414.51123,68.0825195 Z M65.2387695,170.239746 C64.6134409,178.883995 61.4224734,185.68894 55.6657715,190.654785 C49.9090695,195.62063 42.3224755,198.103516 32.9057617,198.103516 C22.6062311,198.103516 14.5046682,194.636672 8.60083008,187.702881 C2.69699197,180.76909 -0.254882812,171.251363 -0.254882812,159.149414 L-0.254882812,154.23877 C-0.254882812,146.514122 1.10610618,139.709177 3.828125,133.82373 C6.55014382,127.938284 10.4399975,123.423111 15.4978027,120.278076 C20.555608,117.133041 26.4317699,115.560547 33.1264648,115.560547 C42.3960424,115.560547 49.8630902,118.043432 55.527832,123.009277 C61.1925739,127.975122 64.4663042,134.945593 65.3491211,143.920898 L48.7963867,143.920898 C48.3917623,138.734349 46.9480105,134.973238 44.4650879,132.637451 C41.9821653,130.301665 38.2026621,129.133789 33.1264648,129.133789 C27.6088591,129.133789 23.4799128,131.110901 20.739502,135.065186 C17.9990911,139.01947 16.5921228,145.153116 16.5185547,153.466309 L16.5185547,159.535645 C16.5185547,168.216678 17.8335643,174.561829 20.463623,178.571289 C23.0936818,182.580749 27.2410199,184.585449 32.9057617,184.585449 C38.018743,184.585449 41.8350297,183.417574 44.3547363,181.081787 C46.8744429,178.746001 48.3181948,175.132023 48.6860352,170.239746 L65.2387695,170.239746 Z M124.442383,162.184082 L92.6611328,162.184082 L92.6611328,183.702637 L129.959961,183.702637 L129.959961,197 L76.1083984,197 L76.1083984,116.664062 L129.849609,116.664062 L129.849609,130.071777 L92.6611328,130.071777 L92.6611328,149.217773 L124.442383,149.217773 L124.442383,162.184082 Z M204.999023,197 L188.446289,197 L156.223633,144.141602 L156.223633,197 L139.670898,197 L139.670898,116.664062 L156.223633,116.664062 L188.501465,169.632812 L188.501465,116.664062 L204.999023,116.664062 L204.999023,197 Z M278.327637,130.071777 L253.719238,130.071777 L253.719238,197 L237.166504,197 L237.166504,130.071777 L212.88916,130.071777 L212.88916,116.664062 L278.327637,116.664062 L278.327637,130.071777 Z M336.09668,162.184082 L304.31543,162.184082 L304.31543,183.702637 L341.614258,183.702637 L341.614258,197 L287.762695,197 L287.762695,116.664062 L341.503906,116.664062 L341.503906,130.071777 L304.31543,130.071777 L304.31543,149.217773 L336.09668,149.217773 L336.09668,162.184082 Z M381.064941,167.591309 L367.87793,167.591309 L367.87793,197 L351.325195,197 L351.325195,116.664062 L381.175293,116.664062 C390.665575,116.664062 397.985489,118.779113 403.135254,123.009277 C408.285019,127.239442 410.859863,133.216758 410.859863,140.941406 C410.859863,146.422228 409.673596,150.992576 407.301025,154.652588 C404.928455,158.3126 401.332869,161.227691 396.51416,163.397949 L413.894531,196.227539 L413.894531,197 L396.12793,197 L381.064941,167.591309 Z M367.87793,154.183594 L381.230469,154.183594 C385.387065,154.183594 388.60562,153.126069 390.88623,151.010986 C393.166841,148.895904 394.307129,145.980813 394.307129,142.265625 C394.307129,138.476869 393.231212,135.497407 391.079346,133.327148 C388.927479,131.15689 385.626162,130.071777 381.175293,130.071777 L367.87793,130.071777 L367.87793,154.183594 Z" id="CLERC" fill="#68AEFF" sketch:type="MSShapeGroup"></path>
    </g>
</svg>