<?xml version="1.0" encoding="UTF-8" standalone="no"?>
<svg width="79px" height="79px" viewBox="0 0 79 79" version="1.1" xmlns="http://www.w3.org/2000/svg" xmlns:xlink="http://www.w3.org/1999/xlink" xmlns:sketch="http://www.bohemiancoding.com/sketch/ns">
    <!-- Generator: Sketch 3.4.2 (15855) - http://www.bohemiancoding.com/sketch -->
    <title>Slice 1</title>
    <desc>Created with Sketch.</desc>
    <defs></defs>
    <g id="Page-1" stroke="none" stroke-width="1" fill="none" fill-rule="evenodd" sketch:type="MSPage">
        <g id="hold" sketch:type="MSLayerGroup" transform="translate(5.000000, 7.000000)" fill="#F7B563">
            <path d="M25.01,10 L25.01,25.5 C25.01,26.328 24.338,27 23.51,27 L23.51,27 C22.682,27 22.01,26.328 22.01,25.5 L22.01,3 C22.01,1.343 20.667,0 19.01,0 L19.01,0 C17.353,0 16.01,1.343 16.01,3 L16.01,25.5 C16.01,26.328 15.338,27 14.51,27 L14.51,27 C13.682,27 13.01,26.328 13.01,25.5 L13.01,7.5 C13.01,6.119 11.891,5 10.51,5 L10.51,5 C9.129,5 8.01,6.119 8.01,7.5 L8.01,27.5 C8.01,28.328 7.338,29 6.51,29 L6.51,29 C5.682,29 5.01,28.328 5.01,27.5 L5.01,15 C5.01,13.619 3.891,12.5 2.51,12.5 L2.5,12.5 C1.119,12.5 0,13.619 0,15 L0,42.128 C0.836,54.208 7.46,57.066 16.81,57.066 C23.477,57.066 29.226,53.657 31.987,48.715 C33.148,46.841 40.181,35.89 40.785,34.746 C41.489,33.412 42.52,31.806 43.82,30.744 C44.513,30.178 44.974,29.426 45.401,28.639 C45.51,28.437 45.827,25.993 44.01,26 C42.434,26.006 40.635,26.67 39.33,27.552 C37.867,28.541 35.968,30.248 34.346,33.083 C33.819,34.005 32.875,34.647 31.814,34.671 C30.813,34.694 31.072,34.203 31.01,32.135 L31.01,32.135 L31.01,29.147 L31.01,10 C31.01,8.343 29.667,7 28.01,7 L28.01,7 C26.353,7 25.01,8.343 25.01,10 L25.01,10 Z" id="Shape" sketch:type="MSShapeGroup"></path>
        </g>
        <g id="hold" sketch:type="MSLayerGroup" transform="translate(55.123106, 34.123106) rotate(-45.000000) translate(-55.123106, -34.123106) translate(31.623106, 5.123106)" fill="#A15E0B">
            <path d="M25.797,10 L25.797,25.5 C25.797,26.328 25.125,27 24.297,27 L24.297,27 C23.469,27 22.797,26.328 22.797,25.5 L22.797,3 C22.797,1.343 21.454,-7.10542736e-15 19.797,-7.10542736e-15 L19.797,-7.10542736e-15 C18.14,-7.10542736e-15 16.797,1.343 16.797,3 L16.797,25.5 C16.797,26.328 16.125,27 15.297,27 L15.297,27 C14.469,27 13.797,26.328 13.797,25.5 L13.797,7.5 C13.797,6.119 12.678,5 11.297,5 L11.297,5 C9.916,5 8.797,6.119 8.797,7.5 L8.797,27.5 C8.797,28.328 8.125,29 7.297,29 L7.297,29 C6.469,29 5.797,28.328 5.797,27.5 L5.797,15 C5.797,13.619 4.678,12.5 3.297,12.5 L3.287,12.5 C1.906,12.5 0.787,13.619 0.787,15 L0.787,42.128 C1.623,54.208 8.247,57.066 17.597,57.066 C24.264,57.066 30.013,53.657 32.774,48.715 C33.935,46.841 40.968,35.89 41.572,34.746 C42.276,33.412 43.307,31.806 44.607,30.744 C45.3,30.178 45.761,29.426 46.188,28.639 C46.297,28.437 46.614,25.993 44.797,26 C43.221,26.006 41.422,26.67 40.117,27.552 C38.654,28.541 36.755,30.248 35.133,33.083 C34.606,34.005 33.662,34.647 32.601,34.671 C31.6,34.694 31.859,34.203 31.797,32.135 L31.797,32.135 L31.797,29.147 L31.797,10 C31.797,8.343 30.454,7 28.797,7 L28.797,7 C27.14,7 25.797,8.343 25.797,10 L25.797,10 Z" id="Shape" sketch:type="MSShapeGroup"></path>
        </g>
    </g>
</svg>