<?xml version="1.0" encoding="UTF-8" standalone="no"?>
<svg width="463px" height="343px" viewBox="0 0 463 343" version="1.1" xmlns="http://www.w3.org/2000/svg" xmlns:xlink="http://www.w3.org/1999/xlink" xmlns:sketch="http://www.bohemiancoding.com/sketch/ns">
    <!-- Generator: Sketch 3.4.2 (15855) - http://www.bohemiancoding.com/sketch -->
    <title>icon-dst@2x</title>
    <desc>Created with Sketch.</desc>
    <defs></defs>
    <g id="Page-1" stroke="none" stroke-width="1" fill="none" fill-rule="evenodd" sketch:type="MSPage">
        <g id="science-book" sketch:type="MSLayerGroup" fill="#F3C519">
            <g id="Capa_1" sketch:type="MSShapeGroup">
                <g id="Group">
                    <path d="M439.5,32 L430.878,32 C430.863,16.758 430.852,7.491 430.852,7.491 C430.847,3.352 427.491,0 423.352,0 C312.509,0 246.419,25.047 231.572,31.337 C216.711,25.05 150.522,0 39.5,0 C35.361,0 32.005,3.353 32,7.491 C32,7.491 31.99,16.758 31.974,32 L23.5,32 C10.542,32 0,42.542 0,55.5 L0,319.5 C0,332.458 10.542,343 23.5,343 L439.5,343 C452.458,343 463,332.458 463,319.5 L463,55.5 C463,42.542 452.458,32 439.5,32 L439.5,32 Z M415.932,296.038 C322.462,296.989 262.112,315.69 239,324.384 L239,44.526 C255.004,38.081 316.69,16.106 415.86,15.04 C415.96,106.015 416.079,261.073 415.932,296.038 L415.932,296.038 Z M224,44.469 L224,324.333 C200.755,315.617 140.363,296.983 46.92,296.037 C46.786,264.113 46.873,132.094 46.966,40.127 C46.983,39.92 46.998,39.712 46.998,39.5 C46.998,39.297 46.983,39.097 46.968,38.898 C46.976,30.577 46.985,22.585 46.993,15.04 C146.035,16.1 207.749,37.951 224,44.469 L224,44.469 Z M15,319.5 L15,55.5 C15,50.813 18.813,47 23.5,47 L31.959,47 C31.932,75.295 31.897,115.323 31.875,155.371 C31.854,192.352 31.844,229.346 31.859,257.113 C31.867,271.003 31.881,282.586 31.903,290.706 C31.915,294.779 31.928,297.983 31.944,300.175 C31.978,304.848 31.99,306.596 34.193,308.8 C35.6,310.208 37.509,311 39.5,311 C103.593,311 152.709,319.753 184.76,328 L23.5,328 C18.813,328 15,324.187 15,319.5 L15,319.5 Z M448,319.5 C448,324.187 444.187,328 439.5,328 L278.319,328 C310.321,319.753 359.36,311 423.352,311 C425.343,311 427.252,310.208 428.659,308.8 C430.861,306.596 430.874,304.848 430.908,300.175 C430.924,297.984 430.937,294.779 430.949,290.706 C430.972,282.586 430.986,271.003 430.994,257.113 C431.01,229.345 430.999,192.353 430.978,155.371 C430.955,115.323 430.921,75.295 430.893,47 L439.501,47 C444.188,47 448.001,50.813 448.001,55.5 L448.001,319.5 L448,319.5 Z" id="Shape"></path>
                    <path d="M71.158,62.992 C79.099,63.356 87.082,63.868 94.885,64.513 C95.095,64.531 95.304,64.538 95.511,64.538 C99.373,64.538 102.654,61.573 102.977,57.655 C103.318,53.527 100.248,49.904 96.12,49.563 C88.136,48.904 79.969,48.38 71.846,48.007 C67.723,47.845 64.2,51.018 64.01,55.155 C63.82,59.294 67.021,62.803 71.158,62.992 L71.158,62.992 Z" id="Shape"></path>
                    <path d="M201.594,132.271 C186.465,127.848 170.059,124.03 152.831,120.922 C148.752,120.187 144.853,122.896 144.119,126.972 C143.384,131.048 146.092,134.949 150.168,135.684 C166.877,138.698 182.763,142.393 197.385,146.667 C198.088,146.873 198.796,146.971 199.493,146.971 C202.739,146.971 205.731,144.846 206.688,141.574 C207.85,137.599 205.569,133.434 201.594,132.271 L201.594,132.271 Z" id="Shape"></path>
                    <path d="M197.385,114.669 C198.087,114.874 198.796,114.972 199.492,114.972 C202.738,114.972 205.731,112.848 206.687,109.575 C207.849,105.599 205.568,101.434 201.592,100.271 C196.359,98.742 190.884,97.261 185.321,95.871 C181.307,94.871 177.231,97.31 176.226,101.329 C175.222,105.348 177.665,109.42 181.684,110.424 C187.058,111.766 192.34,113.194 197.385,114.669 L197.385,114.669 Z" id="Shape"></path>
                    <path d="M201.594,164.271 C176.956,157.07 149.639,151.609 120.403,148.042 C116.294,147.537 112.551,150.466 112.05,154.578 C111.549,158.689 114.475,162.43 118.587,162.931 C147.016,166.4 173.528,171.695 197.386,178.669 C198.089,178.874 198.797,178.972 199.494,178.972 C202.74,178.972 205.733,176.847 206.689,173.575 C207.85,169.599 205.569,165.434 201.594,164.271 L201.594,164.271 Z" id="Shape"></path>
                    <path d="M71.158,158.992 C76.457,159.235 81.777,159.544 86.97,159.907 C87.149,159.92 87.326,159.926 87.502,159.926 C91.405,159.926 94.699,156.904 94.976,152.95 C95.266,148.818 92.151,145.233 88.019,144.944 C82.706,144.572 77.265,144.256 71.847,144.007 C67.696,143.833 64.201,147.018 64.011,151.155 C63.821,155.292 67.02,158.802 71.158,158.992 L71.158,158.992 Z" id="Shape"></path>
                    <path d="M201.594,228.271 C186.465,223.848 170.059,220.03 152.831,216.922 C148.752,216.188 144.853,218.896 144.119,222.972 C143.384,227.048 146.092,230.949 150.168,231.684 C166.877,234.698 182.763,238.393 197.385,242.667 C198.088,242.873 198.796,242.971 199.493,242.971 C202.739,242.971 205.731,240.846 206.688,237.574 C207.85,233.599 205.569,229.434 201.594,228.271 L201.594,228.271 Z" id="Shape"></path>
                    <path d="M71.158,222.992 C87.264,223.731 103.223,225.057 118.592,226.931 C118.9,226.969 119.207,226.988 119.509,226.988 C123.246,226.988 126.481,224.199 126.945,220.395 C127.446,216.284 124.52,212.543 120.408,212.042 C104.667,210.121 88.328,208.764 71.845,208.007 C67.722,207.852 64.199,211.018 64.009,215.155 C63.82,219.294 67.02,222.802 71.158,222.992 L71.158,222.992 Z" id="Shape"></path>
                    <path d="M201.593,260.271 C176.953,253.07 149.639,247.61 120.409,244.043 C116.296,243.534 112.558,246.468 112.056,250.579 C111.555,254.69 114.481,258.431 118.593,258.932 C147.016,262.401 173.526,267.695 197.385,274.669 C198.088,274.874 198.796,274.972 199.492,274.972 C202.738,274.972 205.731,272.847 206.687,269.575 C207.85,265.598 205.569,261.433 201.593,260.271 L201.593,260.271 Z" id="Shape"></path>
                    <path d="M71.158,254.992 C76.433,255.234 81.757,255.543 86.981,255.908 C87.159,255.921 87.336,255.927 87.513,255.927 C91.416,255.927 94.71,252.905 94.987,248.95 C95.277,244.818 92.161,241.234 88.029,240.945 C82.686,240.571 77.241,240.256 71.847,240.007 C67.723,239.86 64.201,243.018 64.011,247.155 C63.82,251.294 67.02,254.802 71.158,254.992 L71.158,254.992 Z" id="Shape"></path>
                    <path d="M197.385,210.669 C198.087,210.874 198.796,210.972 199.492,210.972 C202.738,210.972 205.731,208.848 206.687,205.575 C207.849,201.599 205.568,197.434 201.592,196.271 C196.359,194.742 190.884,193.261 185.321,191.871 C181.307,190.868 177.231,193.31 176.226,197.329 C175.222,201.348 177.665,205.42 181.684,206.424 C187.058,207.766 192.34,209.194 197.385,210.669 L197.385,210.669 Z" id="Shape"></path>
                    <path d="M71.158,190.992 C98.579,192.25 125.162,195.175 150.169,199.684 C150.619,199.765 151.067,199.804 151.509,199.804 C155.068,199.804 158.227,197.26 158.881,193.634 C159.616,189.558 156.908,185.657 152.831,184.922 C127.175,180.295 99.927,177.295 71.846,176.007 C67.723,175.843 64.2,179.018 64.01,183.155 C63.82,187.294 67.021,190.803 71.158,190.992 L71.158,190.992 Z" id="Shape"></path>
                    <path d="M263.497,82.972 C264.193,82.972 264.902,82.874 265.604,82.669 C287.177,76.363 311.03,71.411 336.5,67.95 C340.604,67.392 343.479,63.613 342.922,59.509 C342.364,55.405 338.588,52.53 334.481,53.087 C308.273,56.649 283.684,61.757 261.397,68.271 C257.421,69.433 255.14,73.598 256.302,77.575 C257.258,80.848 260.25,82.972 263.497,82.972 L263.497,82.972 Z" id="Shape"></path>
                    <path d="M367.479,64.538 C367.686,64.538 367.895,64.53 368.105,64.513 C375.907,63.868 383.89,63.357 391.832,62.992 C395.97,62.803 399.17,59.294 398.98,55.156 C398.79,51.018 395.285,47.834 391.144,48.008 C383.02,48.381 374.853,48.904 366.869,49.564 C362.741,49.905 359.671,53.528 360.012,57.656 C360.336,61.574 363.616,64.538 367.479,64.538 L367.479,64.538 Z" id="Shape"></path>
                    <path d="M263.497,114.972 C264.194,114.972 264.902,114.874 265.604,114.669 C270.646,113.194 275.928,111.767 281.304,110.423 C285.323,109.418 287.766,105.347 286.762,101.328 C285.758,97.309 281.682,94.864 277.667,95.87 C272.101,97.262 266.626,98.742 261.396,100.27 C257.42,101.433 255.139,105.598 256.301,109.574 C257.258,112.848 260.25,114.972 263.497,114.972 L263.497,114.972 Z" id="Shape"></path>
                    <path d="M391.144,80.008 C363.063,81.296 335.815,84.296 310.158,88.923 C306.081,89.658 303.373,93.559 304.108,97.635 C304.762,101.262 307.921,103.805 311.48,103.805 C311.922,103.805 312.37,103.766 312.82,103.685 C337.827,99.175 364.41,96.25 391.831,94.993 C395.969,94.804 399.169,91.295 398.979,87.157 C398.79,83.019 395.285,79.822 391.144,80.008 L391.144,80.008 Z" id="Shape"></path>
                    <path d="M256.301,237.574 C257.258,240.847 260.25,242.971 263.496,242.971 C264.193,242.971 264.901,242.873 265.604,242.668 C280.227,238.393 296.113,234.697 312.821,231.684 C316.897,230.949 319.606,227.048 318.87,222.972 C318.135,218.895 314.234,216.19 310.158,216.922 C292.931,220.029 276.525,223.848 261.395,228.27 C257.42,229.434 255.139,233.599 256.301,237.574 L256.301,237.574 Z" id="Shape"></path>
                    <path d="M391.144,208.008 C374.661,208.765 358.322,210.122 342.581,212.043 C338.469,212.544 335.543,216.284 336.044,220.396 C336.508,224.2 339.742,226.989 343.48,226.989 C343.783,226.989 344.089,226.97 344.397,226.932 C359.765,225.058 375.724,223.732 391.831,222.993 C395.969,222.803 399.169,219.295 398.979,215.157 C398.79,211.019 395.267,207.842 391.144,208.008 L391.144,208.008 Z" id="Shape"></path>
                    <path d="M342.58,244.043 C313.35,247.609 286.036,253.069 261.396,260.271 C257.42,261.433 255.139,265.598 256.301,269.575 C257.258,272.848 260.25,274.972 263.496,274.972 C264.193,274.972 264.901,274.874 265.603,274.669 C289.463,267.694 315.972,262.4 344.395,258.932 C348.507,258.431 351.433,254.691 350.932,250.579 C350.431,246.467 346.688,243.532 342.58,244.043 L342.58,244.043 Z" id="Shape"></path>
                    <path d="M391.144,240.008 C385.75,240.256 380.306,240.571 374.961,240.946 C370.829,241.235 367.714,244.819 368.003,248.951 C368.28,252.905 371.573,255.928 375.477,255.928 C375.653,255.928 375.831,255.922 376.009,255.909 C381.235,255.544 386.558,255.235 391.832,254.993 C395.97,254.803 399.17,251.295 398.98,247.157 C398.79,243.019 395.267,239.847 391.144,240.008 L391.144,240.008 Z" id="Shape"></path>
                    <path d="M391.144,176.008 C363.063,177.296 335.815,180.296 310.158,184.923 C306.081,185.658 303.373,189.559 304.108,193.635 C304.762,197.262 307.921,199.805 311.48,199.805 C311.922,199.805 312.37,199.766 312.82,199.685 C337.827,195.175 364.41,192.25 391.831,190.993 C395.969,190.804 399.169,187.295 398.979,183.157 C398.79,179.019 395.285,175.837 391.144,176.008 L391.144,176.008 Z" id="Shape"></path>
                </g>
            </g>
        </g>
    </g>
</svg>