<?xml version="1.0" encoding="utf-8"?>
<!-- Generator: Adobe Illustrator 19.2.0, SVG Export Plug-In . SVG Version: 6.00 Build 0)  -->
<svg version="1.0" id="Layer_1" xmlns="http://www.w3.org/2000/svg" xmlns:xlink="http://www.w3.org/1999/xlink" x="0px" y="0px"
	 width="356px" height="108px" viewBox="0 0 356 108" style="enable-background:new 0 0 356 108;" xml:space="preserve">
<style type="text/css">
	.st0{fill:#00457C;}
	.st1{fill:#FFFFFF;}
	.st2{fill:#D2B887;}
</style>
<polygon class="st0" points="356,54 319.4,108 -6,108 -6,0 319.6,0 "/>
<g>
	<path class="st1" d="M91.9,71.1c-0.7,0.1-1,0.3-1.1,0.8c-0.1,0.4-0.1,0.9-0.1,1.9V75c0,1.4-0.2,2.5-0.9,3.3
		c-0.6,0.6-1.4,0.9-2.3,0.9c-0.8,0-1.5-0.2-2.1-0.6c-0.7-0.6-1.1-1.5-1.1-3v-3.1c0-1.2-0.1-1.3-1.1-1.3v-0.4h3.6v0.4
		c-0.9,0.1-1,0.2-1,1.3v2.8c0,2,0.7,3.1,2.1,3.1c1.6,0,2.2-1.3,2.2-3.4v-1.2c0-1,0-1.5-0.1-1.9c-0.1-0.5-0.3-0.7-1.2-0.7v-0.4h3.1
		V71.1z"/>
	<path class="st1" d="M111,71.1c-0.7,0-0.9,0.2-1,0.8c-0.1,0.4-0.1,1-0.1,2.1v5.1h-0.5l-5.2-6.5h0v3c0,1.1,0.1,1.7,0.1,2.1
		c0.1,0.6,0.3,0.8,1.2,0.9V79h-3v-0.4c0.7,0,1-0.2,1-0.8c0.1-0.4,0.1-1,0.1-2.1v-2.7c0-0.9,0-1-0.2-1.3c-0.2-0.3-0.5-0.4-1.1-0.5
		v-0.4h2.1l4.9,5.9h0V74c0-1.1-0.1-1.7-0.1-2.1c-0.1-0.6-0.3-0.8-1.2-0.8v-0.4h3V71.1z"/>
	<path class="st1" d="M121.7,79v-0.4c1-0.1,1.1-0.2,1.1-1.3v-5c0-1.1-0.1-1.2-1.1-1.3v-0.4h3.6v0.4c-1,0.1-1.1,0.2-1.1,1.3v5
		c0,1.1,0.1,1.2,1.1,1.3V79H121.7z"/>
	<path class="st1" d="M144.4,71.1c-0.8,0.1-1,0.2-1.5,1.4c-0.4,0.9-1.6,4-2.5,6.6h-0.5c-0.8-2.3-2-5.3-2.6-6.8
		c-0.4-1-0.6-1.1-1.3-1.2v-0.4h3.5v0.4c-0.9,0.1-0.9,0.2-0.7,0.8c0.3,1,1.3,3.5,1.9,5.1h0c0.7-1.8,1.3-3.6,1.7-4.8
		c0.3-0.8,0.2-1-0.8-1.1v-0.4h2.9V71.1z"/>
	<path class="st1" d="M161.5,76.9c-0.1,0.5-0.3,1.7-0.4,2.1h-6.2v-0.4c1.1-0.1,1.2-0.2,1.2-1.3v-5c0-1.1-0.1-1.2-1-1.3v-0.4h5.8
		c0,0.3,0.1,1.1,0.1,1.9l-0.4,0.1c-0.1-0.5-0.3-0.9-0.5-1.1c-0.2-0.3-0.5-0.3-1.3-0.3H158c-0.4,0-0.5,0-0.5,0.4v2.8h1
		c1.1,0,1.2-0.1,1.4-1h0.4V76h-0.4c-0.2-0.9-0.3-1-1.4-1h-1v2.3c0,0.6,0.1,0.9,0.3,1.1c0.2,0.1,0.7,0.1,1.2,0.1
		c0.8,0,1.2-0.1,1.4-0.4c0.2-0.3,0.5-0.7,0.7-1.2L161.5,76.9z"/>
	<path class="st1" d="M179.7,79.1c-0.1,0-0.2,0-0.4,0c-1.3-0.1-1.8-0.4-2.4-1.2c-0.4-0.6-0.7-1.3-1.1-1.9c-0.2-0.4-0.4-0.5-0.9-0.5
		h-0.3v1.9c0,1.1,0.1,1.2,1.1,1.3V79h-3.6v-0.4c1-0.1,1.1-0.2,1.1-1.3v-5c0-1-0.1-1.1-1-1.2v-0.4h3.3c1,0,1.7,0.1,2.1,0.5
		c0.5,0.3,0.8,0.9,0.8,1.7c0,1.1-0.7,1.7-1.6,2.1c0.2,0.4,0.7,1.2,1.1,1.8c0.4,0.7,0.7,1.1,1,1.4c0.3,0.3,0.5,0.5,0.8,0.6
		L179.7,79.1z M175,74.9c0.6,0,1-0.1,1.3-0.3c0.4-0.4,0.6-0.9,0.6-1.5c0-1.4-0.8-1.9-1.6-1.9c-0.3,0-0.5,0.1-0.6,0.1
		c-0.1,0.1-0.1,0.2-0.1,0.5v3.1H175z"/>
	<path class="st1" d="M194.6,72.7c-0.2-0.8-0.7-1.7-1.7-1.7c-0.8,0-1.3,0.6-1.3,1.3c0,0.8,0.5,1.2,1.6,1.8c1.2,0.6,2.2,1.3,2.2,2.6
		c0,1.4-1.2,2.5-2.9,2.5c-0.5,0-0.9-0.1-1.2-0.2c-0.3-0.1-0.6-0.2-0.7-0.3c-0.1-0.3-0.3-1.4-0.4-2.1l0.4-0.1
		c0.2,0.8,0.9,2.2,2.1,2.2c0.8,0,1.3-0.6,1.3-1.4c0-0.8-0.6-1.3-1.5-1.8c-1.1-0.6-2.1-1.3-2.1-2.6c0-1.3,1-2.4,2.8-2.4
		c0.7,0,1.4,0.2,1.7,0.3c0.1,0.5,0.1,1,0.2,1.8L194.6,72.7z"/>
	<path class="st1" d="M206.1,79v-0.4c1-0.1,1.1-0.2,1.1-1.3v-5c0-1.1-0.1-1.2-1.1-1.3v-0.4h3.6v0.4c-1,0.1-1.1,0.2-1.1,1.3v5
		c0,1.1,0.1,1.2,1.1,1.3V79H206.1z"/>
	<path class="st1" d="M227.3,72.8c-0.1-0.6-0.3-1-0.5-1.3c-0.2-0.3-0.5-0.3-1.3-0.3h-0.7v6.1c0,1,0.1,1.1,1.2,1.2V79h-3.9v-0.4
		c1.1-0.1,1.2-0.2,1.2-1.2v-6.1h-0.5c-1,0-1.3,0.1-1.4,0.4c-0.2,0.2-0.3,0.6-0.5,1.2h-0.4c0.1-0.9,0.1-1.8,0.1-2.4h0.3
		c0.2,0.3,0.3,0.3,0.7,0.3h5c0.3,0,0.5-0.1,0.7-0.3h0.3c0,0.5,0.1,1.6,0.1,2.4L227.3,72.8z"/>
	<path class="st1" d="M246.2,71.1c-0.8,0.1-1,0.3-1.5,1c-0.5,0.8-0.9,1.4-1.5,2.6c-0.2,0.3-0.2,0.5-0.2,0.8v1.7
		c0,1.1,0.1,1.2,1.2,1.3V79h-3.8v-0.4c1.1-0.1,1.2-0.2,1.2-1.3v-1.5c0-0.3-0.1-0.4-0.2-0.7c-0.4-0.7-0.8-1.6-1.5-2.9
		c-0.5-0.9-0.7-1-1.4-1.1v-0.4h3.4v0.4c-0.8,0.1-0.8,0.3-0.6,0.7c0.5,0.9,1,1.9,1.5,2.9c0.4-0.8,1-2,1.4-2.8
		c0.2-0.6,0.2-0.7-0.7-0.8v-0.4h2.8V71.1z"/>
	<path class="st1" d="M100.7,54c-1.5,0.3-1.7,0.4-1.7,2.4v2.4c0,1.1,0,2,0.2,2.8c-1.8,0.4-4.4,1.1-6.8,1.1c-6.9,0-11.4-3.9-11.4-9.9
		c0-7.9,5.5-11.1,11.8-11.1c2.4,0,5.1,0.7,6.2,0.9l0,6.7l-1.1,0c-0.7-3.3-3-5.6-5.8-5.6c-3.6,0-6.7,3.2-6.7,8.6
		c0,4.5,2.2,9.2,7.1,9.2c0.6,0,1.3-0.1,1.7-0.4c0.4-0.3,0.7-0.7,0.7-1.7v-2.8c0-2.1-0.1-2.3-3.3-2.6v-1h8.9V54z"/>
	<path class="st1" d="M111.9,62.3v-1c1.8-0.3,1.9-0.6,1.4-1.9c-0.3-0.9-0.7-2.2-1.2-3.4h-5.7c-0.3,0.9-0.7,2-1.1,3.2
		c-0.4,1.4-0.4,1.8,1.8,2.1v1h-6.7v-1c2-0.2,2.4-0.6,3.3-3.1l6.1-15.3l1.5-0.4c1.9,5.2,3.8,10.4,5.7,15.5c1,2.6,1.4,3,3.3,3.2v1
		H111.9z M109.4,47.9L109.4,47.9c-0.9,2.2-1.7,4.4-2.4,6.5h4.7L109.4,47.9z"/>
	<path class="st1" d="M137.3,57.2c-0.2,1.3-0.9,4.2-1.1,5h-14.5v-1c2.6-0.2,2.9-0.4,2.9-2.9V46.9c0-2.6-0.3-2.7-2.6-2.9v-1h9.1v1
		c-2.3,0.2-2.5,0.4-2.5,2.9v11.6c0,1.4,0.1,1.9,0.7,2.2c0.5,0.2,1.3,0.3,2.2,0.3c1.3,0,2.4-0.2,3.1-1c0.5-0.6,1.1-1.6,1.6-3.1
		L137.3,57.2z"/>
	<path class="st1" d="M152.9,57.2c-0.2,1.3-0.9,4.2-1.1,5h-14.5v-1c2.6-0.2,2.9-0.4,2.9-2.9V46.9c0-2.6-0.3-2.7-2.6-2.9v-1h9.1v1
		c-2.3,0.2-2.5,0.4-2.5,2.9v11.6c0,1.4,0.1,1.9,0.7,2.2c0.5,0.2,1.3,0.3,2.2,0.3c1.3,0,2.4-0.2,3.1-1c0.5-0.6,1.1-1.6,1.6-3.1
		L152.9,57.2z"/>
	<path class="st1" d="M164.1,62.3v-1c1.8-0.3,1.9-0.6,1.4-1.9c-0.3-0.9-0.7-2.2-1.2-3.4h-5.7c-0.3,0.9-0.7,2-1.1,3.2
		c-0.4,1.4-0.4,1.8,1.8,2.1v1h-6.7v-1c2-0.2,2.4-0.6,3.3-3.1l6.1-15.3l1.5-0.4c1.9,5.2,3.8,10.4,5.7,15.5c1,2.6,1.4,3,3.3,3.2v1
		H164.1z M161.6,47.9L161.6,47.9c-0.9,2.2-1.7,4.4-2.4,6.5h4.6L161.6,47.9z"/>
	<path class="st1" d="M192,43.9c-1.6,0.1-2.4,0.7-2.5,1.8c-0.1,0.9-0.3,2-0.3,4.1v3.3c0,3.2-0.5,5.7-2.1,7.4
		c-1.4,1.4-3.4,2.2-5.5,2.2c-2,0-3.8-0.4-5.3-1.5c-1.7-1.3-2.5-3.5-2.5-7v-7c0-2.8-0.3-3-2.5-3.2v-1h9v1c-2.2,0.2-2.5,0.4-2.5,3.2
		v6.5c0,4.5,1.6,7.1,4.8,7.1c3.5,0,5.1-2.7,5.1-7.7v-3.2c0-2.1-0.1-3.2-0.3-4.1c-0.2-1-0.9-1.6-2.9-1.8v-1h7.4V43.9z"/>
	<path class="st1" d="M202.6,42.9c3.8,0,6.6,0.7,8.6,2.6c1.5,1.4,2.7,3.5,2.7,6.3c0,3.6-1.5,6.3-3.7,8c-2.2,1.7-5.3,2.5-9,2.5h-7.7
		v-1c2.4-0.2,2.7-0.4,2.7-2.9V46.9c0-2.6-0.3-2.7-2.4-2.9v-1H202.6z M200,58.1c0,2.1,0.4,2.9,2.5,2.9c4,0,6.7-3.2,6.7-8.6
		c0-2.8-0.9-5.1-2.2-6.4c-1.2-1.3-2.8-1.8-4.9-1.8c-1.1,0-1.7,0.2-1.9,0.4c-0.2,0.3-0.3,0.8-0.3,1.6V58.1z"/>
	<path class="st1" d="M231,57.3c-0.2,1.3-0.8,4-1,4.9h-15.2v-1c2.5-0.2,2.8-0.4,2.8-2.9V46.9c0-2.6-0.3-2.7-2.4-2.9v-1h14
		c0,0.5,0.2,2.6,0.3,4.5l-1.1,0.1c-0.3-1-0.7-2-1.2-2.6c-0.5-0.5-1.3-0.7-3-0.7h-1.4c-1.1,0-1.2,0.1-1.2,1v6.3h2
		c2.5,0,2.9-0.2,3.3-2.2h1.1v6h-1.1c-0.4-2.1-0.8-2.3-3.3-2.3h-2v5.2c0,1.4,0.1,2.1,0.7,2.4c0.5,0.2,1.5,0.3,2.7,0.3
		c1.5,0,2.6-0.2,3.3-1c0.6-0.7,1.1-1.6,1.7-2.9L231,57.3z"/>
	<path class="st1" d="M247.7,48c-0.4-1.5-0.8-2.6-1.3-3.1c-0.5-0.5-1.3-0.7-3-0.7H242v14.1c0,2.5,0.3,2.7,2.9,2.9v1h-9.7v-1
		c2.5-0.2,2.8-0.4,2.8-2.9V44.2h-1c-2.5,0-3,0.3-3.4,0.8c-0.5,0.5-0.9,1.5-1.3,3h-1.1c0.1-2.2,0.3-4.3,0.4-5.9h0.7
		c0.4,0.7,0.8,0.7,1.7,0.7h12c0.8,0,1.2-0.2,1.7-0.7h0.7c0,1.3,0.2,3.9,0.3,5.8L247.7,48z"/>
	<path class="st2" d="M238.6,35.6C238.6,35.6,238.6,35.6,238.6,35.6c-13.7-10.8-50.1-23.1-79.5-23.1c-31.6,0-58.9,8.4-71.7,20.5
		c18.2-9.1,43.6-14.7,71.7-14.7c14.2,0,27.7,1.4,39.9,4c-5.8-0.7-11.8-1.1-18.1-1.1c-27.1,0-50.6,7.2-61.6,17.6
		c15.6-7.8,37.4-12.7,61.6-12.7c24.2,0,46,4.9,61.6,12.7C241.2,37.7,240,36.6,238.6,35.6"/>
	<path class="st1" d="M98.8,91.7c-0.1,0.4-0.3,1-0.5,1.2c-0.2,0.1-0.9,0.2-1.5,0.2c-2,0-2.9-1.4-2.9-2.7c0-1.7,1.3-2.8,3.1-2.8
		c0.7,0,1.2,0.2,1.4,0.2c0.1,0.4,0.1,0.8,0.2,1.2l-0.2,0.1c-0.2-0.9-0.7-1.2-1.6-1.2c-1.3,0-2,1.1-2,2.3c0,1.5,0.9,2.5,2.1,2.5
		c0.8,0,1.2-0.4,1.6-1.2L98.8,91.7z"/>
	<path class="st1" d="M105.1,90.4c0,1.7-1.2,2.8-2.7,2.8c-1.5,0-2.6-1.1-2.6-2.7c0-1.4,1-2.8,2.7-2.8
		C103.9,87.7,105.1,88.8,105.1,90.4z M100.7,90.3c0,1.5,0.8,2.6,1.9,2.6c0.9,0,1.6-0.7,1.6-2.3c0-1.7-0.8-2.6-1.9-2.6
		C101.5,88,100.7,88.8,100.7,90.3z"/>
	<path class="st1" d="M111.6,88.1c-0.4,0-0.6,0.1-0.7,0.5c0,0.2,0,0.6,0,1.3v3.2h-0.3l-3.4-4.2h0v2c0,0.7,0,1.1,0,1.3
		c0,0.4,0.2,0.5,0.8,0.5v0.2H106v-0.2c0.5,0,0.7-0.1,0.7-0.5c0-0.2,0.1-0.6,0.1-1.4v-1.8c0-0.6,0-0.6-0.2-0.8
		c-0.2-0.2-0.3-0.3-0.7-0.3v-0.2h1.2l3.3,3.9h0v-1.9c0-0.7,0-1.1-0.1-1.3c0-0.4-0.2-0.5-0.8-0.5v-0.2h1.9V88.1z"/>
	<path class="st1" d="M117.9,88.1c-0.4,0-0.6,0.1-0.7,0.5c0,0.2,0,0.6,0,1.3v3.2h-0.3l-3.4-4.2h0v2c0,0.7,0,1.1,0,1.3
		c0,0.4,0.2,0.5,0.8,0.5v0.2h-1.9v-0.2c0.5,0,0.7-0.1,0.7-0.5c0-0.2,0.1-0.6,0.1-1.4v-1.8c0-0.6,0-0.6-0.2-0.8
		c-0.2-0.2-0.3-0.3-0.7-0.3v-0.2h1.2l3.3,3.9h0v-1.9c0-0.7,0-1.1-0.1-1.3c0-0.4-0.2-0.5-0.8-0.5v-0.2h1.9V88.1z"/>
	<path class="st1" d="M122.9,91.8c0,0.3-0.2,1-0.3,1.3h-3.9v-0.2c0.7-0.1,0.8-0.1,0.8-0.8v-3.2c0-0.7-0.1-0.7-0.7-0.8v-0.2h3.6
		c0,0.2,0,0.7,0.1,1.2l-0.2,0c-0.1-0.3-0.2-0.5-0.3-0.7c-0.1-0.2-0.3-0.2-0.9-0.2h-0.6c-0.3,0-0.3,0-0.3,0.3v1.8h0.7
		c0.7,0,0.8-0.1,0.9-0.6h0.2v1.6h-0.2c-0.1-0.6-0.2-0.6-0.9-0.6h-0.7V92c0,0.4,0,0.6,0.2,0.7c0.2,0.1,0.4,0.1,0.8,0.1
		c0.6,0,0.8-0.1,1-0.3c0.1-0.2,0.3-0.4,0.4-0.8L122.9,91.8z"/>
	<path class="st1" d="M128.7,91.7c-0.1,0.4-0.3,1-0.5,1.2c-0.2,0.1-0.9,0.2-1.5,0.2c-2,0-2.9-1.4-2.9-2.7c0-1.7,1.3-2.8,3.1-2.8
		c0.7,0,1.2,0.2,1.4,0.2c0.1,0.4,0.1,0.8,0.2,1.2l-0.2,0.1c-0.2-0.9-0.7-1.2-1.6-1.2c-1.3,0-2,1.1-2,2.3c0,1.5,0.9,2.5,2.1,2.5
		c0.8,0,1.2-0.4,1.6-1.2L128.7,91.7z"/>
	<path class="st1" d="M133.8,89.1c-0.1-0.4-0.2-0.6-0.3-0.7c-0.1-0.2-0.3-0.2-0.9-0.2h-0.5v3.9c0,0.6,0.1,0.7,0.8,0.8v0.2h-2.4v-0.2
		c0.7,0,0.8-0.1,0.8-0.8v-3.9h-0.5c-0.7,0-0.8,0.1-0.9,0.2c-0.1,0.1-0.2,0.4-0.3,0.7h-0.2c0-0.5,0.1-1,0.1-1.5h0.2
		c0.1,0.2,0.2,0.2,0.4,0.2h3.2c0.2,0,0.3,0,0.4-0.2h0.2c0,0.4,0,1,0.1,1.4L133.8,89.1z"/>
	<path class="st1" d="M134.3,92.7c0-0.3,0.2-0.5,0.5-0.5s0.5,0.2,0.5,0.5c0,0.3-0.2,0.5-0.5,0.5S134.3,93,134.3,92.7z"/>
	<path class="st1" d="M143.2,87.8c1,0,1.8,0.2,2.3,0.7c0.4,0.4,0.7,1,0.7,1.7c0,1-0.4,1.7-1,2.1c-0.6,0.5-1.4,0.7-2.4,0.7h-1.9v-0.2
		c0.7,0,0.7-0.1,0.7-0.8v-3.2c0-0.7-0.1-0.7-0.7-0.8v-0.2H143.2z M142.3,92c0,0.6,0.2,0.8,0.8,0.8c1.4,0,2.1-1.1,2.1-2.4
		c0-0.8-0.3-1.5-0.9-1.9c-0.4-0.2-0.8-0.4-1.3-0.4c-0.3,0-0.5,0-0.6,0.1c-0.1,0.1-0.1,0.2-0.1,0.5V92z"/>
	<path class="st1" d="M147.1,93.1v-0.2c0.6,0,0.7-0.1,0.7-0.8v-3.2c0-0.7-0.1-0.7-0.7-0.8v-0.2h2.2v0.2c-0.6,0.1-0.7,0.1-0.7,0.8
		v3.2c0,0.7,0.1,0.7,0.7,0.8v0.2H147.1z"/>
	<path class="st1" d="M153.1,89.1c-0.1-0.5-0.4-1.1-1.1-1.1c-0.6,0-0.9,0.4-0.9,0.9c0,0.6,0.4,0.8,1,1.2c0.7,0.3,1.4,0.7,1.4,1.6
		c0,0.9-0.7,1.5-1.8,1.5c-0.3,0-0.6-0.1-0.8-0.1c-0.2-0.1-0.3-0.1-0.4-0.2c-0.1-0.2-0.2-0.9-0.2-1.3l0.2-0.1
		c0.1,0.5,0.5,1.3,1.3,1.3c0.6,0,0.9-0.4,0.9-0.9c0-0.6-0.4-0.9-1-1.2c-0.6-0.3-1.3-0.7-1.3-1.6c0-0.8,0.6-1.5,1.7-1.5
		c0.4,0,0.8,0.1,1,0.2c0,0.3,0.1,0.6,0.1,1.1L153.1,89.1z"/>
	<path class="st1" d="M159.4,91.7c-0.1,0.4-0.3,1-0.5,1.2c-0.2,0.1-0.9,0.2-1.5,0.2c-2,0-2.9-1.4-2.9-2.7c0-1.7,1.3-2.8,3.1-2.8
		c0.7,0,1.2,0.2,1.4,0.2c0.1,0.4,0.1,0.8,0.2,1.2l-0.2,0.1c-0.2-0.9-0.7-1.2-1.6-1.2c-1.3,0-2,1.1-2,2.3c0,1.5,0.9,2.5,2.1,2.5
		c0.8,0,1.2-0.4,1.6-1.2L159.4,91.7z"/>
	<path class="st1" d="M165.8,90.4c0,1.7-1.2,2.8-2.7,2.8c-1.5,0-2.6-1.1-2.6-2.7c0-1.4,1-2.8,2.7-2.8
		C164.5,87.7,165.8,88.8,165.8,90.4z M161.3,90.3c0,1.5,0.8,2.6,1.9,2.6c0.9,0,1.6-0.7,1.6-2.3c0-1.7-0.8-2.6-1.9-2.6
		C162.1,88,161.3,88.8,161.3,90.3z"/>
	<path class="st1" d="M171.9,88.1c-0.5,0.1-0.7,0.1-1,0.9c-0.2,0.5-1.1,2.5-1.7,4.2H169c-0.5-1.5-1.2-3.2-1.7-4.3
		c-0.2-0.6-0.4-0.7-0.9-0.7v-0.2h2v0.2c-0.6,0.1-0.6,0.1-0.5,0.5c0.2,0.6,0.8,2.2,1.3,3.4h0c0.4-1,1-2.5,1.2-3.3
		c0.2-0.5,0.1-0.6-0.5-0.6v-0.2h1.8V88.1z"/>
	<path class="st1" d="M176.8,91.8c0,0.3-0.2,1-0.3,1.3h-3.9v-0.2c0.7-0.1,0.8-0.1,0.8-0.8v-3.2c0-0.7-0.1-0.7-0.7-0.8v-0.2h3.6
		c0,0.2,0,0.7,0.1,1.2l-0.2,0c-0.1-0.3-0.2-0.5-0.3-0.7c-0.1-0.2-0.3-0.2-0.9-0.2h-0.6c-0.3,0-0.3,0-0.3,0.3v1.8h0.7
		c0.7,0,0.8-0.1,0.9-0.6h0.2v1.6h-0.2c-0.1-0.6-0.2-0.6-0.9-0.6h-0.7V92c0,0.4,0,0.6,0.2,0.7c0.2,0.1,0.4,0.1,0.8,0.1
		c0.6,0,0.8-0.1,1-0.3c0.1-0.2,0.3-0.4,0.4-0.8L176.8,91.8z"/>
	<path class="st1" d="M182.5,93.1c-0.1,0-0.2,0-0.3,0c-0.7,0-1-0.2-1.4-0.7c-0.3-0.4-0.5-0.9-0.8-1.3c-0.1-0.2-0.3-0.3-0.7-0.3h-0.2
		v1.3c0,0.7,0.1,0.7,0.7,0.8v0.2h-2.2v-0.2c0.7,0,0.7-0.1,0.7-0.8v-3.2c0-0.7-0.1-0.7-0.7-0.8v-0.2h2c0.6,0,1,0.1,1.3,0.3
		c0.3,0.2,0.5,0.6,0.5,1.1c0,0.7-0.4,1.1-1,1.4c0.1,0.3,0.5,0.8,0.7,1.2c0.3,0.4,0.5,0.6,0.6,0.8c0.2,0.2,0.4,0.3,0.6,0.4
		L182.5,93.1z M179.5,90.5c0.4,0,0.7-0.1,0.9-0.2c0.3-0.2,0.4-0.6,0.4-1c0-0.9-0.6-1.2-1.1-1.2c-0.2,0-0.4,0-0.4,0.1
		c-0.1,0-0.1,0.1-0.1,0.3v2H179.5z"/>
	<path class="st1" d="M183.4,92.7c0-0.3,0.2-0.5,0.5-0.5s0.5,0.2,0.5,0.5c0,0.3-0.2,0.5-0.5,0.5S183.4,93,183.4,92.7z"/>
	<path class="st1" d="M190,93.1v-0.2c0.6,0,0.7-0.1,0.7-0.8v-3.2c0-0.7-0.1-0.7-0.7-0.8v-0.2h2.2v0.2c-0.6,0.1-0.7,0.1-0.7,0.8v3.2
		c0,0.7,0.1,0.7,0.7,0.8v0.2H190z"/>
	<path class="st1" d="M198.6,88.1c-0.4,0-0.6,0.1-0.7,0.5c0,0.2,0,0.6,0,1.3v3.2h-0.3l-3.4-4.2h0v2c0,0.7,0,1.1,0,1.3
		c0,0.4,0.2,0.5,0.8,0.5v0.2h-1.9v-0.2c0.5,0,0.7-0.1,0.7-0.5c0-0.2,0.1-0.6,0.1-1.4v-1.8c0-0.6,0-0.6-0.2-0.8
		c-0.2-0.2-0.3-0.3-0.7-0.3v-0.2h1.2l3.3,3.9h0v-1.9c0-0.7,0-1.1-0.1-1.3c0-0.4-0.2-0.5-0.8-0.5v-0.2h1.9V88.1z"/>
	<path class="st1" d="M203,89.1c-0.1-0.3-0.1-0.5-0.2-0.7c-0.1-0.2-0.3-0.3-0.9-0.3h-0.6c-0.2,0-0.3,0-0.3,0.3v1.9h0.8
		c0.7,0,0.8-0.1,0.9-0.6h0.2v1.6h-0.2c-0.1-0.5-0.1-0.6-0.9-0.6H201V92c0,0.7,0.1,0.7,0.8,0.8v0.2h-2.2v-0.2c0.6,0,0.7-0.1,0.7-0.8
		v-3.2c0-0.7-0.1-0.7-0.7-0.8v-0.2h3.6c0,0.3,0,0.8,0.1,1.2L203,89.1z"/>
	<path class="st1" d="M208.1,91.8c0,0.3-0.2,1-0.3,1.3h-3.7v-0.2c0.7,0,0.7-0.1,0.7-0.8v-3.2c0-0.7-0.1-0.7-0.7-0.8v-0.2h2.2v0.2
		c-0.6,0-0.7,0.1-0.7,0.8V92c0,0.4,0,0.6,0.2,0.7c0.2,0.1,0.4,0.1,0.7,0.1c0.4,0,0.7,0,0.9-0.2c0.1-0.2,0.3-0.4,0.4-0.8L208.1,91.8z
		"/>
	<path class="st1" d="M214.1,88.1c-0.5,0-0.7,0.2-0.7,0.5c0,0.2,0,0.6,0,1.3v0.7c0,0.9-0.1,1.6-0.6,2.1c-0.4,0.4-0.9,0.6-1.4,0.6
		c-0.5,0-0.9-0.1-1.3-0.4c-0.5-0.4-0.7-1-0.7-1.9v-2c0-0.7-0.1-0.8-0.7-0.8v-0.2h2.1v0.2c-0.6,0-0.7,0.1-0.7,0.8v1.8
		c0,1.3,0.5,2,1.5,2c1.1,0,1.5-0.9,1.5-2.3v-0.7c0-0.7,0-1-0.1-1.3c0-0.3-0.2-0.4-0.8-0.5v-0.2h1.9V88.1z"/>
	<path class="st1" d="M219.1,91.8c0,0.3-0.2,1-0.3,1.3h-3.9v-0.2c0.7-0.1,0.8-0.1,0.8-0.8v-3.2c0-0.7-0.1-0.7-0.7-0.8v-0.2h3.6
		c0,0.2,0,0.7,0.1,1.2l-0.2,0c-0.1-0.3-0.2-0.5-0.3-0.7c-0.1-0.2-0.3-0.2-0.9-0.2h-0.6c-0.3,0-0.3,0-0.3,0.3v1.8h0.7
		c0.7,0,0.8-0.1,0.9-0.6h0.2v1.6H218c-0.1-0.6-0.2-0.6-0.9-0.6h-0.7V92c0,0.4,0,0.6,0.2,0.7c0.2,0.1,0.4,0.1,0.8,0.1
		c0.6,0,0.8-0.1,1-0.3c0.1-0.2,0.3-0.4,0.4-0.8L219.1,91.8z"/>
	<path class="st1" d="M225.4,88.1c-0.4,0-0.6,0.1-0.7,0.5c0,0.2,0,0.6,0,1.3v3.2h-0.3L221,89h0v2c0,0.7,0,1.1,0,1.3
		c0,0.4,0.2,0.5,0.8,0.5v0.2h-1.9v-0.2c0.5,0,0.7-0.1,0.7-0.5c0-0.2,0.1-0.6,0.1-1.4v-1.8c0-0.6,0-0.6-0.2-0.8
		c-0.2-0.2-0.3-0.3-0.7-0.3v-0.2h1.2l3.3,3.9h0v-1.9c0-0.7,0-1.1-0.1-1.3c0-0.4-0.2-0.5-0.8-0.5v-0.2h1.9V88.1z"/>
	<path class="st1" d="M231.1,91.7c-0.1,0.4-0.3,1-0.5,1.2c-0.2,0.1-0.9,0.2-1.5,0.2c-2,0-2.9-1.4-2.9-2.7c0-1.7,1.3-2.8,3.1-2.8
		c0.7,0,1.2,0.2,1.4,0.2c0.1,0.4,0.1,0.8,0.2,1.2l-0.2,0.1c-0.2-0.9-0.7-1.2-1.6-1.2c-1.3,0-2,1.1-2,2.3c0,1.5,0.9,2.5,2.1,2.5
		c0.8,0,1.2-0.4,1.6-1.2L231.1,91.7z"/>
	<path class="st1" d="M236.1,91.8c0,0.3-0.2,1-0.3,1.3h-3.9v-0.2c0.7-0.1,0.8-0.1,0.8-0.8v-3.2c0-0.7-0.1-0.7-0.7-0.8v-0.2h3.6
		c0,0.2,0,0.7,0.1,1.2l-0.2,0c-0.1-0.3-0.2-0.5-0.3-0.7c-0.1-0.2-0.3-0.2-0.9-0.2h-0.6c-0.3,0-0.3,0-0.3,0.3v1.8h0.7
		c0.7,0,0.8-0.1,0.9-0.6h0.2v1.6H235c-0.1-0.6-0.2-0.6-0.9-0.6h-0.7V92c0,0.4,0,0.6,0.2,0.7c0.2,0.1,0.4,0.1,0.8,0.1
		c0.6,0,0.8-0.1,1-0.3c0.1-0.2,0.3-0.4,0.4-0.8L236.1,91.8z"/>
	<path class="st1" d="M237.1,92.7c0-0.3,0.2-0.5,0.5-0.5s0.5,0.2,0.5,0.5c0,0.3-0.2,0.5-0.5,0.5S237.1,93,237.1,92.7z"/>
</g>
</svg>
